<?xml version="1.0" encoding="UTF-8"?>
<svg id="Layer_3" data-name="Layer 3" xmlns="http://www.w3.org/2000/svg" viewBox="0 0 138.37 97.73">
  <defs>
    <style>
      .cls-1 {
        fill: #775b69;
      }

      .cls-1, .cls-2 {
        stroke-width: 0px;
      }

      .cls-2 {
        fill: #f28fbf;
      }
    </style>
  </defs>
  <path class="cls-1" d="M119.79,29.81c2.05,5.36,3.98,10.58,6.04,15.76,3.94,9.93,4.25,20.09.75,30.02-2.89,8.21-8.76,14.6-16.02,19.36-4.45,2.92-9.54,3.51-14.87,1.95-7.37-2.16-14.2-5.48-19.05-11.33-3.33-4.01-5.34-9.15-7.72-13.89-2.18-4.34-2.99-9.05-2.85-13.89.02-.9.34-2.07.96-2.64,4.06-3.71,8.17-7.37,12.42-10.86,2.15-1.76,6-.63,8,2.25,1.18,1.7,1.99,3.65,2.98,5.47.69,1.27,1.12,2.86,2.16,3.72,1.2.99,3.03,1.97,4.43,1.79,1.99-.26,3.41-1.92,3.56-4.23.45-6.85-.22-13.57-2.35-20.1-.2-.62-1.55-1.15-2.4-1.22-2.95-.22-5.98.07-8.87-.43-1.36-.24-3.27-1.66-3.56-2.87-1.6-6.74-3.43-13.52-.63-20.47,1.95-4.83,5.58-6.88,10.56-7.09,4.06-.18,8.13-.33,12.19-.61,8.56-.58,17.1-.92,25.63.53,2.6.44,4.05,1.93,5.06,3.94,2.81,5.6,2.94,11.29.09,16.96-1.83,3.64-5.41,4.57-8.85,5.68-2.31.75-4.67,1.35-7.65,2.19Z"/>
  <path class="cls-2" d="M37.66,70.92c0,6.29.05,12.07-.01,17.84-.09,7.93-1.31,9.06-9.31,8.9-7.8-.15-10.46-2.25-11.53-10.04-.76-5.54-.88-11.16-1.3-16.96-2.38-.14-4.97-.21-7.55-.45-4.62-.43-6.91-2.14-7.59-6.69-.51-3.42-.49-7.05.03-10.47.7-4.64,3.48-6.32,8.22-5.8,2.41.26,4.82.53,7.57.84,0-2.75-.15-5.17.03-7.57.55-7.49.95-15.01,1.97-22.44.49-3.59,1.6-7.41,3.53-10.43,5.55-8.68,15.94-10.88,24.49-1.45,5.96,6.58,8.75,14.69,10.51,23.22.55,2.65,1.44,5.24,1.74,7.91.46,4.15-.28,5.21-4.09,6.85-1.49.64-3.06,1.1-4.62,1.55-5.22,1.52-6.89.59-8.24-4.61-.37-1.4-.5-2.86-.91-4.25-.33-1.13-.9-2.19-1.37-3.28-.31.02-.62.03-.92.05-.31,1.14-.84,2.27-.89,3.42-.14,3.44-.03,6.88-.14,10.32-.05,1.62.7,1.93,2.12,2.01,2.61.16,5.22.47,7.81.84,2.05.29,3.43,1.68,3.52,3.61.2,4.4.24,8.83-.03,13.22-.15,2.35-1.61,3.96-4.36,3.88-2.71-.08-5.41-.02-8.68-.02Z"/>
</svg>