<?xml version="1.0" encoding="UTF-8"?>
<svg id="Layer_3" xmlns="http://www.w3.org/2000/svg" viewBox="0 0 110.09 139.18">
  <defs>
    <style>
      .cls-1 {
        fill: #616be8;
      }
    </style>
  </defs>
  <path class="cls-1" d="M59.89,52.63c5.26-5.26,42.84-5.26,47.63-.46,4.36,4.36,2.6,12.04-1.08,15.73-3.62,3.62-12.11,2.89-13.44,4.23-1.91,1.91,4.08,16.02,4.08,35.66,0,10.76-3.01,31.41-21.1,31.41-19.63,0-38.45-31.85-33.34-36.95,3.61-3.61,8.61-9.66,12.94-9.66,5.17,0,10.66,19.52,16.23,19.52,8.81,0,1.15-36.08-.32-37.55-2.55-2.55-10.59.85-12.99-1.55-5.57-5.57-4.25-14.72,1.39-20.37Z"/>
  <path class="cls-1" d="M15.97,48.06C15.97,45.94,12.07,0,32.73,0c12.01,0,25.53,18.61,25.53,39.91,0,4.43-13.17,7.5-14.73,5.93-2.58-2.58-2.2-12.18-5.04-12.18-2.61,0-1.99,14.34-1.04,15.29,2.09,2.09,8.74-.8,11.64,2.1,4.92,4.92,3.24,15.52-.69,19.46-3.44,3.44-9.94-.64-10.96.38-1.24,1.24,1.08,22.55-1.54,25.17-2.69,2.69-12.89,2.98-16.01-.14-5.1-5.1-3.33-24.02-4.6-25.29-1.36-1.36-9.36,1.27-13.4-2.77-2.9-2.9-2.33-15.31.93-18.57s13.15,2.06,13.15-1.24Z"/>
</svg>