<svg width="419" height="272" viewBox="0 0 419 272" fill="none" xmlns="http://www.w3.org/2000/svg">
<path d="M33.7067 219.363C33.295 219.363 32.968 219.291 32.7258 219.145C32.5079 219 32.3504 218.806 32.2536 218.564C32.1567 218.298 32.1083 218.007 32.1083 217.692V195.605C32.1083 195.29 32.1446 195.012 32.2172 194.77C32.3141 194.528 32.4836 194.334 32.7258 194.188C32.968 194.043 33.3071 193.971 33.743 193.971L40.8995 194.007C42.6916 194.007 44.3142 194.31 45.7673 194.915C47.2446 195.496 48.504 196.332 49.5454 197.422C50.5867 198.511 51.3859 199.831 51.943 201.381C52.5 202.931 52.7785 204.651 52.7785 206.54C52.7785 208.501 52.5 210.269 51.943 211.844C51.3859 213.418 50.5746 214.762 49.509 215.876C48.4677 216.99 47.2083 217.85 45.731 218.455C44.2537 219.061 42.6068 219.363 40.7905 219.363H33.7067ZM35.3777 216.057H40.8995C42.6674 216.057 44.1931 215.682 45.4767 214.931C46.7603 214.156 47.7532 213.079 48.4555 211.698C49.1579 210.294 49.509 208.635 49.509 206.721C49.509 204.784 49.1579 203.113 48.4555 201.708C47.7532 200.304 46.7482 199.226 45.4404 198.475C44.1568 197.7 42.6311 197.313 40.8631 197.313H35.3777V216.057ZM65.4706 219.545C64.0175 219.545 62.7218 219.303 61.5836 218.818C60.4453 218.334 59.4766 217.68 58.6774 216.857C57.9024 216.009 57.3091 215.04 56.8974 213.951C56.4857 212.861 56.2798 211.686 56.2798 210.427C56.2798 208.756 56.6673 207.266 57.4423 205.959C58.2173 204.651 59.2829 203.621 60.6391 202.871C62.0195 202.096 63.5937 201.708 65.3616 201.708C66.5725 201.708 67.6502 201.902 68.5948 202.289C69.5635 202.653 70.3869 203.149 71.065 203.779C71.7431 204.409 72.2638 205.111 72.6271 205.886C72.9904 206.661 73.172 207.436 73.172 208.211C73.172 209.446 72.8814 210.318 72.3001 210.826C71.7189 211.311 71.0045 211.553 70.1568 211.553H59.6582C59.634 212.619 59.9125 213.539 60.4938 214.314C61.0992 215.065 61.85 215.646 62.7461 216.057C63.6664 216.469 64.5866 216.675 65.5069 216.675C66.185 216.675 66.7663 216.639 67.2506 216.566C67.735 216.493 68.1588 216.397 68.5221 216.275C68.8854 216.154 69.2002 216.033 69.4666 215.912C69.733 215.791 69.9631 215.67 70.1568 215.549C70.3748 215.428 70.5806 215.343 70.7744 215.295C70.9924 215.246 71.1982 215.27 71.392 215.367C71.6099 215.44 71.7794 215.597 71.9005 215.84C72.0458 216.033 72.1427 216.215 72.1912 216.384C72.2396 216.554 72.2638 216.736 72.2638 216.929C72.2638 217.268 71.9732 217.644 71.392 218.055C70.8107 218.467 69.9994 218.818 68.958 219.109C67.9409 219.4 66.7784 219.545 65.4706 219.545ZM59.6582 209.41H68.7764C69.2365 209.41 69.5756 209.349 69.7936 209.228C70.0357 209.107 70.1568 208.78 70.1568 208.247C70.1568 207.569 69.951 206.964 69.5393 206.431C69.1276 205.874 68.5584 205.426 67.8319 205.087C67.1296 204.748 66.3182 204.578 65.398 204.578C64.3324 204.578 63.3515 204.796 62.4554 205.232C61.5836 205.644 60.8934 206.213 60.3848 206.939C59.8762 207.666 59.634 208.489 59.6582 209.41ZM84.3985 219.363C83.3087 219.363 82.2673 219.145 81.2744 218.709C80.2814 218.273 79.4096 217.656 78.6588 216.857C77.9323 216.057 77.351 215.125 76.9151 214.059C76.5034 212.97 76.2976 211.783 76.2976 210.499C76.2976 209.24 76.5034 208.078 76.9151 207.012C77.351 205.946 77.9323 205.026 78.6588 204.251C79.4096 203.452 80.2814 202.834 81.2744 202.398C82.2673 201.963 83.3087 201.745 84.3985 201.745C85.5852 201.745 86.6508 201.963 87.5953 202.398C88.5641 202.834 89.3875 203.452 90.0656 204.251C90.7679 205.026 91.3007 205.959 91.664 207.048C92.0273 208.114 92.2089 209.276 92.2089 210.536C92.2331 211.819 92.0515 212.994 91.664 214.059C91.3007 215.125 90.78 216.057 90.1019 216.857C89.4238 217.656 88.6004 218.273 87.6317 218.709C86.6872 219.145 85.6094 219.363 84.3985 219.363ZM84.8708 216.275C85.888 216.275 86.7961 216.033 87.5953 215.549C88.4188 215.065 89.0605 214.399 89.5207 213.551C90.005 212.679 90.2472 211.686 90.2472 210.572C90.2472 209.434 90.005 208.441 89.5207 207.593C89.0605 206.721 88.4188 206.043 87.5953 205.559C86.7961 205.075 85.888 204.832 84.8708 204.832C83.8536 204.832 82.9333 205.075 82.1099 205.559C81.2865 206.043 80.6326 206.721 80.1482 207.593C79.6881 208.441 79.458 209.434 79.458 210.572C79.458 211.686 79.6881 212.679 80.1482 213.551C80.6326 214.399 81.2865 215.065 82.1099 215.549C82.9576 216.033 83.8778 216.275 84.8708 216.275ZM91.9909 219.363C91.4581 219.363 91.0706 219.266 90.8285 219.073C90.5863 218.879 90.441 218.552 90.3925 218.092V195.351C90.3925 194.988 90.4168 194.685 90.4652 194.443C90.5378 194.201 90.6832 194.019 90.9011 193.898C91.1433 193.753 91.4945 193.68 91.9546 193.68C92.4148 193.68 92.7538 193.753 92.9718 193.898C93.214 194.019 93.3714 194.201 93.444 194.443C93.5167 194.685 93.553 194.976 93.553 195.315V217.692C93.553 218.031 93.5167 218.334 93.444 218.6C93.3714 218.843 93.2261 219.024 93.0081 219.145C92.7901 219.291 92.4511 219.363 91.9909 219.363ZM99.8717 219.363C99.4115 219.363 99.0604 219.291 98.8182 219.145C98.6002 219.024 98.4549 218.843 98.3823 218.6C98.3096 218.358 98.2733 218.068 98.2733 217.729V203.379C98.2733 203.04 98.3096 202.75 98.3823 202.507C98.4549 202.265 98.6002 202.084 98.8182 201.963C99.0604 201.841 99.4237 201.781 99.908 201.781C100.368 201.781 100.707 201.854 100.925 201.999C101.143 202.12 101.288 202.302 101.361 202.544C101.434 202.786 101.47 203.089 101.47 203.452V217.765C101.47 218.104 101.434 218.395 101.361 218.637C101.288 218.879 101.131 219.061 100.889 219.182C100.671 219.303 100.332 219.363 99.8717 219.363ZM99.8717 197.422C99.3389 197.422 98.9393 197.349 98.6729 197.204C98.4065 197.034 98.2249 196.804 98.128 196.513C98.0553 196.223 98.019 195.884 98.019 195.496C98.019 195.109 98.0674 194.782 98.1643 194.515C98.2612 194.225 98.4428 194.019 98.7092 193.898C98.9756 193.753 99.3752 193.68 99.908 193.68C100.417 193.68 100.804 193.753 101.07 193.898C101.337 194.043 101.506 194.261 101.579 194.552C101.676 194.842 101.724 195.181 101.724 195.569C101.724 195.956 101.676 196.295 101.579 196.586C101.506 196.852 101.337 197.058 101.07 197.204C100.804 197.349 100.404 197.422 99.8717 197.422ZM113.576 219.436C112.317 219.436 111.13 219.23 110.016 218.818C108.926 218.407 107.957 217.813 107.11 217.038C106.286 216.263 105.632 215.343 105.148 214.277C104.688 213.188 104.458 211.953 104.458 210.572C104.458 209.192 104.688 207.969 105.148 206.903C105.632 205.813 106.286 204.881 107.11 204.106C107.933 203.331 108.89 202.737 109.979 202.326C111.094 201.914 112.268 201.708 113.503 201.708C114.327 201.708 115.138 201.841 115.937 202.108C116.736 202.35 117.439 202.677 118.044 203.089C118.674 203.476 119.122 203.888 119.388 204.324C119.63 204.639 119.8 204.905 119.897 205.123C120.018 205.317 120.03 205.547 119.933 205.813C119.836 206.007 119.703 206.189 119.534 206.358C119.364 206.503 119.194 206.625 119.025 206.721C118.589 207.06 118.153 207.109 117.717 206.867C117.451 206.6 117.148 206.358 116.809 206.14C116.494 205.898 116.155 205.68 115.792 205.486C115.429 205.293 115.053 205.147 114.666 205.05C114.302 204.929 113.915 204.869 113.503 204.869C112.365 204.869 111.36 205.111 110.488 205.595C109.616 206.055 108.938 206.721 108.454 207.593C107.994 208.441 107.764 209.434 107.764 210.572C107.764 211.71 107.994 212.703 108.454 213.551C108.938 214.399 109.604 215.065 110.452 215.549C111.324 216.033 112.317 216.275 113.431 216.275C113.939 216.275 114.424 216.215 114.884 216.094C115.368 215.949 115.816 215.767 116.228 215.549C116.639 215.307 116.979 215.052 117.245 214.786C117.487 214.617 117.693 214.471 117.862 214.35C118.032 214.229 118.238 214.168 118.48 214.168C118.674 214.168 118.88 214.253 119.098 214.423C119.316 214.568 119.546 214.798 119.788 215.113C119.982 215.331 120.091 215.561 120.115 215.803C120.163 216.045 120.127 216.275 120.006 216.493C119.885 216.711 119.691 216.929 119.425 217.147C119.037 217.535 118.516 217.91 117.862 218.273C117.233 218.613 116.543 218.891 115.792 219.109C115.041 219.327 114.302 219.436 113.576 219.436ZM138.708 219.327C138.175 219.327 137.787 219.218 137.545 219C137.327 218.782 137.194 218.443 137.145 217.983L137.291 216.166C137.049 216.554 136.673 217.002 136.165 217.511C135.656 217.995 134.99 218.431 134.167 218.818C133.343 219.182 132.338 219.363 131.151 219.363C129.989 219.363 128.899 219.133 127.882 218.673C126.889 218.213 126.005 217.571 125.23 216.748C124.479 215.924 123.886 214.98 123.45 213.914C123.038 212.849 122.833 211.71 122.833 210.499C122.833 209.313 123.038 208.199 123.45 207.157C123.886 206.092 124.491 205.159 125.266 204.36C126.041 203.561 126.925 202.931 127.918 202.471C128.935 202.011 130.013 201.781 131.151 201.781C132.217 201.781 133.125 201.926 133.876 202.217C134.627 202.483 135.269 202.846 135.801 203.307C136.358 203.743 136.843 204.239 137.254 204.796L137.182 203.27C137.158 202.737 137.267 202.362 137.509 202.144C137.775 201.902 138.187 201.781 138.744 201.781C139.204 201.781 139.531 201.854 139.725 201.999C139.943 202.144 140.088 202.35 140.161 202.616C140.233 202.883 140.27 203.21 140.27 203.597V217.62C140.27 217.959 140.233 218.261 140.161 218.528C140.088 218.794 139.943 218.988 139.725 219.109C139.507 219.254 139.168 219.327 138.708 219.327ZM131.696 216.312C132.665 216.312 133.549 216.057 134.348 215.549C135.172 215.04 135.813 214.362 136.274 213.515C136.758 212.643 137 211.65 137 210.536C137 209.397 136.746 208.405 136.237 207.557C135.753 206.685 135.099 206.007 134.276 205.523C133.476 205.014 132.592 204.76 131.624 204.76C130.485 204.76 129.493 205.026 128.645 205.559C127.821 206.067 127.168 206.758 126.683 207.63C126.199 208.501 125.957 209.494 125.957 210.608C125.957 211.698 126.199 212.679 126.683 213.551C127.168 214.399 127.834 215.077 128.681 215.585C129.553 216.07 130.558 216.312 131.696 216.312ZM152.883 219.363C151.745 219.363 150.776 219.254 149.977 219.036C149.202 218.818 148.56 218.479 148.052 218.019C147.543 217.559 147.18 216.966 146.962 216.239C146.744 215.488 146.635 214.568 146.635 213.478V197.422C146.635 197.083 146.671 196.792 146.744 196.55C146.816 196.308 146.962 196.126 147.18 196.005C147.398 195.86 147.737 195.787 148.197 195.787C148.657 195.787 149.008 195.86 149.25 196.005C149.493 196.126 149.65 196.308 149.723 196.55C149.795 196.768 149.832 197.046 149.832 197.385V213.478C149.832 214.108 149.88 214.617 149.977 215.004C150.098 215.367 150.268 215.646 150.486 215.84C150.728 216.033 151.043 216.154 151.43 216.203C151.818 216.251 152.29 216.275 152.847 216.275C153.234 216.275 153.549 216.312 153.791 216.384C154.033 216.457 154.215 216.602 154.336 216.82C154.457 217.038 154.518 217.365 154.518 217.801C154.518 218.261 154.445 218.613 154.3 218.855C154.179 219.073 153.985 219.206 153.719 219.254C153.476 219.327 153.198 219.363 152.883 219.363ZM144.746 202.18L148.233 202.217L153.283 202.144C153.622 202.144 153.912 202.18 154.155 202.253C154.397 202.302 154.578 202.447 154.699 202.689C154.845 202.907 154.917 203.246 154.917 203.706C154.917 204.166 154.857 204.518 154.736 204.76C154.615 204.978 154.433 205.123 154.191 205.196C153.949 205.268 153.658 205.305 153.319 205.305L148.342 205.232L144.673 205.268C144.165 205.268 143.813 205.147 143.62 204.905C143.45 204.663 143.365 204.263 143.365 203.706C143.365 203.173 143.474 202.786 143.692 202.544C143.91 202.302 144.261 202.18 144.746 202.18ZM166.541 219.545C165.088 219.545 163.793 219.303 162.654 218.818C161.516 218.334 160.547 217.68 159.748 216.857C158.973 216.009 158.38 215.04 157.968 213.951C157.556 212.861 157.351 211.686 157.351 210.427C157.351 208.756 157.738 207.266 158.513 205.959C159.288 204.651 160.354 203.621 161.71 202.871C163.09 202.096 164.664 201.708 166.432 201.708C167.643 201.708 168.721 201.902 169.665 202.289C170.634 202.653 171.458 203.149 172.136 203.779C172.814 204.409 173.335 205.111 173.698 205.886C174.061 206.661 174.243 207.436 174.243 208.211C174.243 209.446 173.952 210.318 173.371 210.826C172.79 211.311 172.075 211.553 171.228 211.553H160.729C160.705 212.619 160.983 213.539 161.564 214.314C162.17 215.065 162.921 215.646 163.817 216.057C164.737 216.469 165.657 216.675 166.578 216.675C167.256 216.675 167.837 216.639 168.321 216.566C168.806 216.493 169.23 216.397 169.593 216.275C169.956 216.154 170.271 216.033 170.537 215.912C170.804 215.791 171.034 215.67 171.228 215.549C171.446 215.428 171.651 215.343 171.845 215.295C172.063 215.246 172.269 215.27 172.463 215.367C172.681 215.44 172.85 215.597 172.971 215.84C173.117 216.033 173.213 216.215 173.262 216.384C173.31 216.554 173.335 216.736 173.335 216.929C173.335 217.268 173.044 217.644 172.463 218.055C171.881 218.467 171.07 218.818 170.029 219.109C169.012 219.4 167.849 219.545 166.541 219.545ZM160.729 209.41H169.847C170.307 209.41 170.646 209.349 170.864 209.228C171.106 209.107 171.228 208.78 171.228 208.247C171.228 207.569 171.022 206.964 170.61 206.431C170.198 205.874 169.629 205.426 168.903 205.087C168.2 204.748 167.389 204.578 166.469 204.578C165.403 204.578 164.422 204.796 163.526 205.232C162.654 205.644 161.964 206.213 161.456 206.939C160.947 207.666 160.705 208.489 160.729 209.41ZM185.469 219.363C184.379 219.363 183.338 219.145 182.345 218.709C181.352 218.273 180.48 217.656 179.73 216.857C179.003 216.057 178.422 215.125 177.986 214.059C177.574 212.97 177.368 211.783 177.368 210.499C177.368 209.24 177.574 208.078 177.986 207.012C178.422 205.946 179.003 205.026 179.73 204.251C180.48 203.452 181.352 202.834 182.345 202.398C183.338 201.963 184.379 201.745 185.469 201.745C186.656 201.745 187.722 201.963 188.666 202.398C189.635 202.834 190.458 203.452 191.136 204.251C191.839 205.026 192.371 205.959 192.735 207.048C193.098 208.114 193.28 209.276 193.28 210.536C193.304 211.819 193.122 212.994 192.735 214.059C192.371 215.125 191.851 216.057 191.173 216.857C190.495 217.656 189.671 218.273 188.702 218.709C187.758 219.145 186.68 219.363 185.469 219.363ZM185.942 216.275C186.959 216.275 187.867 216.033 188.666 215.549C189.489 215.065 190.131 214.399 190.591 213.551C191.076 212.679 191.318 211.686 191.318 210.572C191.318 209.434 191.076 208.441 190.591 207.593C190.131 206.721 189.489 206.043 188.666 205.559C187.867 205.075 186.959 204.832 185.942 204.832C184.924 204.832 184.004 205.075 183.181 205.559C182.357 206.043 181.703 206.721 181.219 207.593C180.759 208.441 180.529 209.434 180.529 210.572C180.529 211.686 180.759 212.679 181.219 213.551C181.703 214.399 182.357 215.065 183.181 215.549C184.028 216.033 184.949 216.275 185.942 216.275ZM193.062 219.363C192.529 219.363 192.141 219.266 191.899 219.073C191.657 218.879 191.512 218.552 191.463 218.092V195.351C191.463 194.988 191.487 194.685 191.536 194.443C191.609 194.201 191.754 194.019 191.972 193.898C192.214 193.753 192.565 193.68 193.025 193.68C193.485 193.68 193.825 193.753 194.042 193.898C194.285 194.019 194.442 194.201 194.515 194.443C194.587 194.685 194.624 194.976 194.624 195.315V217.692C194.624 218.031 194.587 218.334 194.515 218.6C194.442 218.843 194.297 219.024 194.079 219.145C193.861 219.291 193.522 219.363 193.062 219.363ZM215.959 219.363C214.821 219.363 213.852 219.254 213.053 219.036C212.278 218.818 211.636 218.479 211.128 218.019C210.619 217.559 210.256 216.966 210.038 216.239C209.82 215.488 209.711 214.568 209.711 213.478V197.422C209.711 197.083 209.747 196.792 209.82 196.55C209.893 196.308 210.038 196.126 210.256 196.005C210.474 195.86 210.813 195.787 211.273 195.787C211.733 195.787 212.084 195.86 212.326 196.005C212.569 196.126 212.726 196.308 212.799 196.55C212.871 196.768 212.908 197.046 212.908 197.385V213.478C212.908 214.108 212.956 214.617 213.053 215.004C213.174 215.367 213.344 215.646 213.562 215.84C213.804 216.033 214.119 216.154 214.506 216.203C214.894 216.251 215.366 216.275 215.923 216.275C216.31 216.275 216.625 216.312 216.867 216.384C217.11 216.457 217.291 216.602 217.412 216.82C217.533 217.038 217.594 217.365 217.594 217.801C217.594 218.261 217.521 218.613 217.376 218.855C217.255 219.073 217.061 219.206 216.795 219.254C216.553 219.327 216.274 219.363 215.959 219.363ZM207.822 202.18L211.309 202.217L216.359 202.144C216.698 202.144 216.988 202.18 217.231 202.253C217.473 202.302 217.654 202.447 217.776 202.689C217.921 202.907 217.994 203.246 217.994 203.706C217.994 204.166 217.933 204.518 217.812 204.76C217.691 204.978 217.509 205.123 217.267 205.196C217.025 205.268 216.734 205.305 216.395 205.305L211.418 205.232L207.749 205.268C207.241 205.268 206.889 205.147 206.696 204.905C206.526 204.663 206.441 204.263 206.441 203.706C206.441 203.173 206.55 202.786 206.768 202.544C206.986 202.302 207.338 202.18 207.822 202.18ZM229.29 219.581C228.104 219.581 226.966 219.351 225.876 218.891C224.81 218.431 223.853 217.801 223.006 217.002C222.158 216.179 221.492 215.222 221.008 214.132C220.523 213.042 220.281 211.856 220.281 210.572C220.281 209.313 220.511 208.15 220.972 207.085C221.432 205.995 222.073 205.038 222.897 204.215C223.72 203.391 224.665 202.75 225.73 202.289C226.82 201.805 227.983 201.563 229.218 201.563C230.889 201.563 232.39 201.963 233.722 202.762C235.079 203.537 236.156 204.602 236.956 205.959C237.755 207.315 238.154 208.84 238.154 210.536C238.154 211.868 237.912 213.091 237.428 214.205C236.943 215.295 236.29 216.239 235.466 217.038C234.643 217.838 233.698 218.467 232.633 218.927C231.567 219.363 230.453 219.581 229.29 219.581ZM229.218 216.421C230.235 216.421 231.179 216.166 232.051 215.658C232.923 215.149 233.626 214.447 234.158 213.551C234.691 212.655 234.958 211.638 234.958 210.499C234.958 209.361 234.703 208.356 234.195 207.484C233.71 206.612 233.032 205.934 232.16 205.45C231.288 204.966 230.296 204.723 229.181 204.723C228.116 204.723 227.147 204.978 226.275 205.486C225.428 205.995 224.737 206.685 224.205 207.557C223.696 208.429 223.442 209.422 223.442 210.536C223.442 211.698 223.708 212.727 224.241 213.624C224.774 214.495 225.476 215.186 226.348 215.694C227.244 216.179 228.201 216.421 229.218 216.421ZM264.4 216.53C264.86 216.893 265.102 217.244 265.126 217.583C265.175 217.922 265.005 218.322 264.618 218.782C264.327 219.121 264.061 219.339 263.819 219.436C263.601 219.557 263.371 219.569 263.128 219.472C262.886 219.4 262.608 219.23 262.293 218.964L254.083 212.279V217.729C254.083 218.068 254.035 218.358 253.938 218.6C253.865 218.843 253.72 219.024 253.502 219.145C253.284 219.291 252.933 219.363 252.448 219.363C252.012 219.363 251.673 219.291 251.431 219.145C251.189 219.024 251.031 218.843 250.959 218.6C250.91 218.334 250.886 218.031 250.886 217.692V195.278C250.886 194.939 250.922 194.649 250.995 194.406C251.068 194.164 251.225 193.983 251.467 193.862C251.71 193.716 252.049 193.644 252.485 193.644C252.969 193.644 253.32 193.716 253.538 193.862C253.756 193.983 253.901 194.176 253.974 194.443C254.047 194.685 254.083 194.976 254.083 195.315V208.174L260.077 202.435C260.343 202.168 260.598 201.987 260.84 201.89C261.106 201.769 261.361 201.745 261.603 201.817C261.869 201.89 262.135 202.084 262.402 202.398C262.838 202.883 263.044 203.295 263.019 203.634C263.019 203.948 262.801 204.312 262.366 204.723L256.481 210.281L264.4 216.53ZM275.842 219.545C274.389 219.545 273.094 219.303 271.955 218.818C270.817 218.334 269.848 217.68 269.049 216.857C268.274 216.009 267.681 215.04 267.269 213.951C266.857 212.861 266.652 211.686 266.652 210.427C266.652 208.756 267.039 207.266 267.814 205.959C268.589 204.651 269.655 203.621 271.011 202.871C272.391 202.096 273.966 201.708 275.733 201.708C276.944 201.708 278.022 201.902 278.967 202.289C279.935 202.653 280.759 203.149 281.437 203.779C282.115 204.409 282.636 205.111 282.999 205.886C283.362 206.661 283.544 207.436 283.544 208.211C283.544 209.446 283.253 210.318 282.672 210.826C282.091 211.311 281.376 211.553 280.529 211.553H270.03C270.006 212.619 270.284 213.539 270.866 214.314C271.471 215.065 272.222 215.646 273.118 216.057C274.038 216.469 274.958 216.675 275.879 216.675C276.557 216.675 277.138 216.639 277.622 216.566C278.107 216.493 278.531 216.397 278.894 216.275C279.257 216.154 279.572 216.033 279.838 215.912C280.105 215.791 280.335 215.67 280.529 215.549C280.747 215.428 280.952 215.343 281.146 215.295C281.364 215.246 281.57 215.27 281.764 215.367C281.982 215.44 282.151 215.597 282.272 215.84C282.418 216.033 282.515 216.215 282.563 216.384C282.611 216.554 282.636 216.736 282.636 216.929C282.636 217.268 282.345 217.644 281.764 218.055C281.183 218.467 280.371 218.818 279.33 219.109C278.313 219.4 277.15 219.545 275.842 219.545ZM270.03 209.41H279.148C279.608 209.41 279.947 209.349 280.165 209.228C280.408 209.107 280.529 208.78 280.529 208.247C280.529 207.569 280.323 206.964 279.911 206.431C279.499 205.874 278.93 205.426 278.204 205.087C277.501 204.748 276.69 204.578 275.77 204.578C274.704 204.578 273.723 204.796 272.827 205.232C271.955 205.644 271.265 206.213 270.757 206.939C270.248 207.666 270.006 208.489 270.03 209.41ZM295.461 219.545C294.007 219.545 292.712 219.303 291.574 218.818C290.435 218.334 289.467 217.68 288.667 216.857C287.892 216.009 287.299 215.04 286.887 213.951C286.476 212.861 286.27 211.686 286.27 210.427C286.27 208.756 286.657 207.266 287.432 205.959C288.207 204.651 289.273 203.621 290.629 202.871C292.009 202.096 293.584 201.708 295.352 201.708C296.563 201.708 297.64 201.902 298.585 202.289C299.553 202.653 300.377 203.149 301.055 203.779C301.733 204.409 302.254 205.111 302.617 205.886C302.98 206.661 303.162 207.436 303.162 208.211C303.162 209.446 302.871 210.318 302.29 210.826C301.709 211.311 300.994 211.553 300.147 211.553H289.648C289.624 212.619 289.903 213.539 290.484 214.314C291.089 215.065 291.84 215.646 292.736 216.057C293.656 216.469 294.577 216.675 295.497 216.675C296.175 216.675 296.756 216.639 297.241 216.566C297.725 216.493 298.149 216.397 298.512 216.275C298.875 216.154 299.19 216.033 299.457 215.912C299.723 215.791 299.953 215.67 300.147 215.549C300.365 215.428 300.571 215.343 300.764 215.295C300.982 215.246 301.188 215.27 301.382 215.367C301.6 215.44 301.769 215.597 301.891 215.84C302.036 216.033 302.133 216.215 302.181 216.384C302.23 216.554 302.254 216.736 302.254 216.929C302.254 217.268 301.963 217.644 301.382 218.055C300.801 218.467 299.989 218.818 298.948 219.109C297.931 219.4 296.768 219.545 295.461 219.545ZM289.648 209.41H298.766C299.227 209.41 299.566 209.349 299.784 209.228C300.026 209.107 300.147 208.78 300.147 208.247C300.147 207.569 299.941 206.964 299.529 206.431C299.118 205.874 298.548 205.426 297.822 205.087C297.12 204.748 296.308 204.578 295.388 204.578C294.322 204.578 293.341 204.796 292.445 205.232C291.574 205.644 290.883 206.213 290.375 206.939C289.866 207.666 289.624 208.489 289.648 209.41ZM315.696 219.218C314.51 219.218 313.432 219 312.463 218.564C311.494 218.128 310.671 217.523 309.993 216.748C309.315 215.949 308.782 215.016 308.395 213.951C308.031 212.885 307.862 211.71 307.886 210.427C307.886 209.167 308.068 208.005 308.431 206.939C308.794 205.874 309.315 204.953 309.993 204.178C310.695 203.379 311.519 202.774 312.463 202.362C313.432 201.926 314.51 201.708 315.696 201.708C316.81 201.708 317.852 201.926 318.82 202.362C319.813 202.798 320.673 203.416 321.4 204.215C322.15 204.99 322.732 205.922 323.143 207.012C323.579 208.102 323.797 209.276 323.797 210.536C323.797 211.795 323.579 212.958 323.143 214.023C322.732 215.089 322.15 216.009 321.4 216.784C320.673 217.559 319.813 218.164 318.82 218.6C317.852 219.012 316.81 219.218 315.696 219.218ZM308.14 226.52C307.68 226.52 307.329 226.447 307.087 226.302C306.869 226.181 306.711 225.999 306.614 225.757C306.542 225.515 306.506 225.224 306.506 224.885V203.416C306.506 203.077 306.542 202.786 306.614 202.544C306.687 202.302 306.832 202.12 307.05 201.999C307.293 201.854 307.644 201.781 308.104 201.781C308.637 201.781 309.024 201.866 309.266 202.035C309.533 202.205 309.69 202.507 309.739 202.943V224.849C309.763 225.188 309.739 225.478 309.666 225.721C309.593 225.987 309.436 226.181 309.194 226.302C308.976 226.447 308.625 226.52 308.14 226.52ZM315.224 216.239C316.241 216.239 317.162 215.997 317.985 215.513C318.808 215.004 319.45 214.314 319.91 213.442C320.395 212.57 320.637 211.577 320.637 210.463C320.637 209.325 320.395 208.332 319.91 207.484C319.45 206.637 318.808 205.983 317.985 205.523C317.186 205.038 316.265 204.796 315.224 204.796C314.207 204.796 313.287 205.038 312.463 205.523C311.664 206.007 311.022 206.673 310.538 207.521C310.078 208.368 309.848 209.349 309.848 210.463C309.848 211.577 310.078 212.57 310.538 213.442C311.022 214.314 311.664 215.004 312.463 215.513C313.287 215.997 314.207 216.239 315.224 216.239ZM329.436 219.363C328.976 219.363 328.625 219.291 328.382 219.145C328.165 219.024 328.019 218.843 327.947 218.6C327.874 218.358 327.838 218.068 327.838 217.729V203.379C327.838 203.04 327.874 202.75 327.947 202.507C328.019 202.265 328.165 202.084 328.382 201.963C328.625 201.841 328.988 201.781 329.472 201.781C329.932 201.781 330.271 201.854 330.489 201.999C330.707 202.12 330.853 202.302 330.925 202.544C330.998 202.786 331.034 203.089 331.034 203.452V217.765C331.034 218.104 330.998 218.395 330.925 218.637C330.853 218.879 330.695 219.061 330.453 219.182C330.235 219.303 329.896 219.363 329.436 219.363ZM329.436 197.422C328.903 197.422 328.504 197.349 328.237 197.204C327.971 197.034 327.789 196.804 327.692 196.513C327.62 196.223 327.583 195.884 327.583 195.496C327.583 195.109 327.632 194.782 327.729 194.515C327.825 194.225 328.007 194.019 328.273 193.898C328.54 193.753 328.939 193.68 329.472 193.68C329.981 193.68 330.368 193.753 330.635 193.898C330.901 194.043 331.071 194.261 331.143 194.552C331.24 194.842 331.289 195.181 331.289 195.569C331.289 195.956 331.24 196.295 331.143 196.586C331.071 196.852 330.901 197.058 330.635 197.204C330.368 197.349 329.969 197.422 329.436 197.422ZM337.378 219.327C336.918 219.327 336.567 219.254 336.325 219.109C336.107 218.988 335.962 218.806 335.889 218.564C335.84 218.322 335.816 218.031 335.816 217.692V203.27C335.816 202.955 335.853 202.689 335.925 202.471C335.998 202.253 336.143 202.084 336.361 201.963C336.603 201.841 336.954 201.781 337.415 201.781C337.778 201.781 338.056 201.829 338.25 201.926C338.468 201.999 338.613 202.108 338.686 202.253C338.783 202.398 338.843 202.556 338.868 202.725C338.892 202.895 338.904 203.052 338.904 203.198L338.831 204.869C339.074 204.457 339.376 204.069 339.74 203.706C340.103 203.319 340.527 202.98 341.011 202.689C341.495 202.374 342.016 202.132 342.573 201.963C343.154 201.793 343.772 201.708 344.426 201.708C345.491 201.708 346.472 201.902 347.368 202.289C348.264 202.653 349.027 203.198 349.657 203.924C350.311 204.627 350.807 205.474 351.146 206.467C351.51 207.46 351.691 208.586 351.691 209.846V217.729C351.691 218.068 351.655 218.358 351.582 218.6C351.534 218.843 351.389 219.024 351.146 219.145C350.928 219.266 350.589 219.327 350.129 219.327C349.645 219.327 349.282 219.254 349.039 219.109C348.821 218.988 348.676 218.806 348.603 218.564C348.531 218.322 348.494 218.031 348.494 217.692V209.809C348.494 208.792 348.325 207.908 347.986 207.157C347.647 206.407 347.138 205.825 346.46 205.414C345.782 204.978 344.922 204.76 343.881 204.76C342.888 204.76 342.016 204.978 341.265 205.414C340.539 205.825 339.97 206.407 339.558 207.157C339.17 207.908 338.977 208.792 338.977 209.809V217.729C338.977 218.068 338.94 218.358 338.868 218.6C338.795 218.843 338.638 219.024 338.395 219.145C338.177 219.266 337.838 219.327 337.378 219.327ZM363.412 226.483C362.564 226.483 361.753 226.387 360.978 226.193C360.203 225.999 359.525 225.745 358.944 225.43C358.362 225.115 357.902 224.776 357.563 224.413C357.224 224.049 357.055 223.71 357.055 223.396C357.055 223.153 357.091 222.948 357.164 222.778C357.236 222.633 357.345 222.475 357.49 222.306C357.733 222.064 357.926 221.894 358.072 221.797C358.217 221.7 358.411 221.652 358.653 221.652C358.895 221.652 359.137 221.749 359.38 221.943C359.622 222.16 359.912 222.391 360.251 222.633C360.615 222.899 361.051 223.129 361.559 223.323C362.092 223.541 362.746 223.65 363.521 223.65C364.32 223.65 365.034 223.529 365.664 223.287C366.294 223.044 366.839 222.681 367.299 222.197C367.759 221.712 368.11 221.119 368.352 220.417C368.595 219.739 368.716 218.964 368.716 218.092L368.643 202.98C368.667 202.52 368.8 202.193 369.043 201.999C369.309 201.805 369.721 201.708 370.278 201.708C370.738 201.708 371.065 201.781 371.259 201.926C371.477 202.047 371.61 202.229 371.658 202.471C371.731 202.689 371.767 202.968 371.767 203.307V218.346C371.767 219.63 371.561 220.768 371.15 221.761C370.738 222.778 370.157 223.638 369.406 224.34C368.655 225.042 367.771 225.575 366.754 225.939C365.737 226.302 364.623 226.483 363.412 226.483ZM363.303 218.964C362.14 218.964 361.063 218.758 360.07 218.346C359.101 217.91 358.241 217.305 357.49 216.53C356.764 215.755 356.195 214.847 355.783 213.805C355.396 212.764 355.202 211.626 355.202 210.39C355.202 209.155 355.396 208.017 355.783 206.976C356.195 205.934 356.764 205.026 357.49 204.251C358.217 203.476 359.065 202.883 360.033 202.471C361.026 202.035 362.104 201.817 363.267 201.817C364.332 201.817 365.301 202.023 366.173 202.435C367.045 202.846 367.783 203.44 368.389 204.215C369.018 204.966 369.491 205.862 369.805 206.903C370.12 207.944 370.278 209.107 370.278 210.39C370.278 212.134 369.999 213.648 369.442 214.931C368.885 216.215 368.086 217.208 367.045 217.91C366.003 218.613 364.756 218.964 363.303 218.964ZM363.485 215.985C364.453 215.985 365.325 215.743 366.1 215.258C366.875 214.774 367.493 214.108 367.953 213.26C368.413 212.413 368.643 211.432 368.643 210.318C368.643 209.228 368.413 208.271 367.953 207.448C367.493 206.6 366.863 205.946 366.064 205.486C365.289 205.026 364.405 204.796 363.412 204.796C362.419 204.796 361.535 205.026 360.76 205.486C359.985 205.946 359.38 206.6 358.944 207.448C358.532 208.271 358.326 209.24 358.326 210.354C358.326 211.468 358.544 212.449 358.98 213.297C359.416 214.12 360.021 214.774 360.796 215.258C361.571 215.743 362.467 215.985 363.485 215.985ZM33.7197 263.436C32.4604 263.436 31.2737 263.23 30.1596 262.818C29.0698 262.407 28.1011 261.813 27.2535 261.038C26.43 260.263 25.7762 259.343 25.2918 258.277C24.8316 257.188 24.6016 255.953 24.6016 254.572C24.6016 253.192 24.8316 251.969 25.2918 250.903C25.7762 249.813 26.43 248.881 27.2535 248.106C28.0769 247.331 29.0335 246.737 30.1233 246.326C31.2374 245.914 32.4119 245.708 33.6471 245.708C34.4705 245.708 35.2818 245.841 36.081 246.108C36.8802 246.35 37.5825 246.677 38.188 247.089C38.8176 247.476 39.2657 247.888 39.5321 248.324C39.7743 248.639 39.9438 248.905 40.0407 249.123C40.1618 249.317 40.1739 249.547 40.077 249.813C39.9801 250.007 39.8469 250.189 39.6774 250.358C39.5079 250.503 39.3383 250.625 39.1688 250.721C38.7329 251.06 38.297 251.109 37.861 250.867C37.5946 250.6 37.2919 250.358 36.9528 250.14C36.638 249.898 36.299 249.68 35.9357 249.486C35.5724 249.293 35.197 249.147 34.8095 249.05C34.4463 248.929 34.0588 248.869 33.6471 248.869C32.5088 248.869 31.5038 249.111 30.6319 249.595C29.76 250.055 29.0819 250.721 28.5976 251.593C28.1374 252.441 27.9074 253.434 27.9074 254.572C27.9074 255.71 28.1374 256.703 28.5976 257.551C29.0819 258.399 29.7479 259.065 30.5956 259.549C31.4674 260.033 32.4604 260.275 33.5744 260.275C34.083 260.275 34.5674 260.215 35.0275 260.094C35.5119 259.949 35.9599 259.767 36.3716 259.549C36.7833 259.307 37.1224 259.052 37.3888 258.786C37.631 258.617 37.8368 258.471 38.0063 258.35C38.1759 258.229 38.3817 258.168 38.6239 258.168C38.8176 258.168 39.0235 258.253 39.2415 258.423C39.4594 258.568 39.6895 258.798 39.9317 259.113C40.1254 259.331 40.2344 259.561 40.2586 259.803C40.3071 260.045 40.2707 260.275 40.1496 260.493C40.0286 260.711 39.8348 260.929 39.5684 261.147C39.1809 261.535 38.6602 261.91 38.0063 262.273C37.3767 262.613 36.6864 262.891 35.9357 263.109C35.1849 263.327 34.4463 263.436 33.7197 263.436ZM45.0158 263.363C44.5557 263.363 44.2045 263.291 43.9623 263.145C43.7201 263.024 43.5627 262.843 43.4901 262.6C43.4416 262.334 43.4174 262.031 43.4174 261.692V239.315C43.4174 238.976 43.4537 238.685 43.5264 238.443C43.599 238.201 43.7565 238.019 43.9986 237.898C44.2408 237.753 44.592 237.68 45.0521 237.68C45.5365 237.68 45.8877 237.753 46.1056 237.898C46.3478 238.019 46.4931 238.201 46.5415 238.443C46.6142 238.685 46.6505 238.988 46.6505 239.351V248.324C47.2318 247.646 47.9341 247.04 48.7575 246.507C49.6051 245.975 50.6344 245.708 51.8453 245.708C53.2742 245.708 54.5457 246.047 55.6597 246.725C56.7979 247.379 57.694 248.312 58.3479 249.523C59.026 250.733 59.3651 252.174 59.3651 253.846V261.729C59.3651 262.068 59.3287 262.358 59.2561 262.6C59.1834 262.843 59.0381 263.024 58.8202 263.145C58.6022 263.291 58.251 263.363 57.7667 263.363C57.3065 263.363 56.9554 263.291 56.7132 263.145C56.471 263.024 56.3136 262.843 56.2409 262.6C56.1683 262.334 56.1319 262.031 56.1319 261.692V253.809C56.1319 252.792 55.9624 251.908 55.6234 251.157C55.2843 250.407 54.7757 249.825 54.0976 249.414C53.4437 249.002 52.6082 248.796 51.591 248.796C50.2106 248.796 49.0723 249.196 48.1763 249.995C47.3044 250.77 46.7958 251.811 46.6505 253.119V261.729C46.6505 262.068 46.6142 262.358 46.5415 262.6C46.4689 262.843 46.3115 263.024 46.0693 263.145C45.8513 263.291 45.5002 263.363 45.0158 263.363ZM64.8925 263.363C64.4323 263.363 64.0812 263.291 63.839 263.145C63.621 263.024 63.4757 262.843 63.4031 262.6C63.3304 262.358 63.2941 262.068 63.2941 261.729V247.379C63.2941 247.04 63.3304 246.75 63.4031 246.507C63.4757 246.265 63.621 246.084 63.839 245.963C64.0812 245.841 64.4445 245.781 64.9288 245.781C65.389 245.781 65.728 245.854 65.946 245.999C66.1639 246.12 66.3093 246.302 66.3819 246.544C66.4546 246.786 66.4909 247.089 66.4909 247.452V261.765C66.4909 262.104 66.4546 262.395 66.3819 262.637C66.3093 262.879 66.1518 263.061 65.9097 263.182C65.6917 263.303 65.3526 263.363 64.8925 263.363ZM64.8925 241.422C64.3597 241.422 63.9601 241.349 63.6937 241.204C63.4273 241.034 63.2457 240.804 63.1488 240.513C63.0761 240.223 63.0398 239.884 63.0398 239.496C63.0398 239.109 63.0882 238.782 63.1851 238.515C63.282 238.225 63.4636 238.019 63.73 237.898C63.9964 237.753 64.396 237.68 64.9288 237.68C65.4374 237.68 65.8249 237.753 66.0913 237.898C66.3577 238.043 66.5272 238.261 66.5999 238.552C66.6967 238.842 66.7452 239.181 66.7452 239.569C66.7452 239.956 66.6967 240.295 66.5999 240.586C66.5272 240.852 66.3577 241.058 66.0913 241.204C65.8249 241.349 65.4253 241.422 64.8925 241.422ZM76.7582 263.363C75.9832 263.363 75.2809 263.291 74.6512 263.145C74.0457 263.024 73.5129 262.818 73.0528 262.528C72.5926 262.237 72.2052 261.862 71.8903 261.402C71.5997 260.941 71.3817 260.384 71.2364 259.731C71.1153 259.077 71.0548 258.314 71.0548 257.442V239.278C71.0548 238.915 71.079 238.612 71.1274 238.37C71.2001 238.128 71.3575 237.946 71.5997 237.825C71.8419 237.68 72.1809 237.607 72.6169 237.607C73.1012 237.607 73.4524 237.668 73.6704 237.789C73.9125 237.91 74.07 238.092 74.1426 238.334C74.2153 238.576 74.2516 238.867 74.2516 239.206V257.406C74.2516 257.89 74.3 258.314 74.3969 258.677C74.4938 259.016 74.6391 259.307 74.8328 259.549C75.0508 259.791 75.3172 259.961 75.632 260.057C75.9469 260.154 76.3222 260.203 76.7582 260.203C77.0488 260.203 77.291 260.239 77.4847 260.312C77.7027 260.384 77.8722 260.53 77.9933 260.748C78.1144 260.966 78.1749 261.305 78.1749 261.765C78.1749 262.249 78.1144 262.613 77.9933 262.855C77.8722 263.073 77.7027 263.206 77.4847 263.254C77.291 263.327 77.0488 263.363 76.7582 263.363ZM89.0459 263.363C87.9561 263.363 86.9147 263.145 85.9217 262.709C84.9288 262.273 84.0569 261.656 83.3062 260.857C82.5796 260.057 81.9984 259.125 81.5625 258.059C81.1507 256.97 80.9449 255.783 80.9449 254.499C80.9449 253.24 81.1507 252.078 81.5625 251.012C81.9984 249.946 82.5796 249.026 83.3062 248.251C84.0569 247.452 84.9288 246.834 85.9217 246.398C86.9147 245.963 87.9561 245.745 89.0459 245.745C90.2326 245.745 91.2982 245.963 92.2427 246.398C93.2114 246.834 94.0348 247.452 94.7129 248.251C95.4153 249.026 95.9481 249.959 96.3113 251.048C96.6746 252.114 96.8562 253.276 96.8562 254.536C96.8805 255.819 96.6988 256.994 96.3113 258.059C95.9481 259.125 95.4274 260.057 94.7493 260.857C94.0711 261.656 93.2477 262.273 92.279 262.709C91.3345 263.145 90.2568 263.363 89.0459 263.363ZM89.5181 260.275C90.5353 260.275 91.4435 260.033 92.2427 259.549C93.0661 259.065 93.7079 258.399 94.168 257.551C94.6524 256.679 94.8946 255.686 94.8946 254.572C94.8946 253.434 94.6524 252.441 94.168 251.593C93.7079 250.721 93.0661 250.043 92.2427 249.559C91.4435 249.075 90.5353 248.832 89.5181 248.832C88.501 248.832 87.5807 249.075 86.7573 249.559C85.9338 250.043 85.2799 250.721 84.7956 251.593C84.3354 252.441 84.1054 253.434 84.1054 254.572C84.1054 255.686 84.3354 256.679 84.7956 257.551C85.2799 258.399 85.9338 259.065 86.7573 259.549C87.6049 260.033 88.5252 260.275 89.5181 260.275ZM96.6383 263.363C96.1055 263.363 95.718 263.266 95.4758 263.073C95.2336 262.879 95.0883 262.552 95.0399 262.092V239.351C95.0399 238.988 95.0641 238.685 95.1125 238.443C95.1852 238.201 95.3305 238.019 95.5485 237.898C95.7906 237.753 96.1418 237.68 96.6019 237.68C97.0621 237.68 97.4011 237.753 97.6191 237.898C97.8613 238.019 98.0187 238.201 98.0914 238.443C98.164 238.685 98.2003 238.976 98.2003 239.315V261.692C98.2003 262.031 98.164 262.334 98.0914 262.6C98.0187 262.843 97.8734 263.024 97.6554 263.145C97.4375 263.291 97.0984 263.363 96.6383 263.363ZM108.261 263.363C107.486 263.363 106.783 263.291 106.154 263.145C105.548 263.024 105.015 262.818 104.555 262.528C104.095 262.237 103.708 261.862 103.393 261.402C103.102 260.941 102.884 260.384 102.739 259.731C102.618 259.077 102.557 258.314 102.557 257.442V239.278C102.557 238.915 102.582 238.612 102.63 238.37C102.703 238.128 102.86 237.946 103.102 237.825C103.344 237.68 103.683 237.607 104.119 237.607C104.604 237.607 104.955 237.668 105.173 237.789C105.415 237.91 105.573 238.092 105.645 238.334C105.718 238.576 105.754 238.867 105.754 239.206V257.406C105.754 257.89 105.803 258.314 105.899 258.677C105.996 259.016 106.142 259.307 106.335 259.549C106.553 259.791 106.82 259.961 107.135 260.057C107.449 260.154 107.825 260.203 108.261 260.203C108.551 260.203 108.794 260.239 108.987 260.312C109.205 260.384 109.375 260.53 109.496 260.748C109.617 260.966 109.677 261.305 109.677 261.765C109.677 262.249 109.617 262.613 109.496 262.855C109.375 263.073 109.205 263.206 108.987 263.254C108.794 263.327 108.551 263.363 108.261 263.363ZM114.736 263.363C114.276 263.363 113.925 263.291 113.683 263.145C113.465 263.024 113.319 262.843 113.247 262.6C113.174 262.358 113.138 262.068 113.138 261.729V247.379C113.138 247.04 113.174 246.75 113.247 246.507C113.319 246.265 113.465 246.084 113.683 245.963C113.925 245.841 114.288 245.781 114.772 245.781C115.233 245.781 115.572 245.854 115.79 245.999C116.008 246.12 116.153 246.302 116.225 246.544C116.298 246.786 116.334 247.089 116.334 247.452V261.765C116.334 262.104 116.298 262.395 116.225 262.637C116.153 262.879 115.995 263.061 115.753 263.182C115.535 263.303 115.196 263.363 114.736 263.363ZM114.736 241.422C114.203 241.422 113.804 241.349 113.537 241.204C113.271 241.034 113.089 240.804 112.992 240.513C112.92 240.223 112.883 239.884 112.883 239.496C112.883 239.109 112.932 238.782 113.029 238.515C113.126 238.225 113.307 238.019 113.574 237.898C113.84 237.753 114.24 237.68 114.772 237.68C115.281 237.68 115.668 237.753 115.935 237.898C116.201 238.043 116.371 238.261 116.443 238.552C116.54 238.842 116.589 239.181 116.589 239.569C116.589 239.956 116.54 240.295 116.443 240.586C116.371 240.852 116.201 241.058 115.935 241.204C115.668 241.349 115.269 241.422 114.736 241.422ZM134.594 260.53C135.054 260.893 135.296 261.244 135.32 261.583C135.369 261.922 135.199 262.322 134.812 262.782C134.521 263.121 134.255 263.339 134.013 263.436C133.795 263.557 133.564 263.569 133.322 263.472C133.08 263.4 132.802 263.23 132.487 262.964L124.277 256.279V261.729C124.277 262.068 124.228 262.358 124.131 262.6C124.059 262.843 123.914 263.024 123.696 263.145C123.478 263.291 123.126 263.363 122.642 263.363C122.206 263.363 121.867 263.291 121.625 263.145C121.383 263.024 121.225 262.843 121.153 262.6C121.104 262.334 121.08 262.031 121.08 261.692V239.278C121.08 238.939 121.116 238.649 121.189 238.406C121.262 238.164 121.419 237.983 121.661 237.862C121.903 237.716 122.242 237.644 122.678 237.644C123.163 237.644 123.514 237.716 123.732 237.862C123.95 237.983 124.095 238.176 124.168 238.443C124.24 238.685 124.277 238.976 124.277 239.315V252.174L130.271 246.435C130.537 246.168 130.791 245.987 131.034 245.89C131.3 245.769 131.554 245.745 131.797 245.817C132.063 245.89 132.329 246.084 132.596 246.398C133.032 246.883 133.238 247.295 133.213 247.634C133.213 247.948 132.995 248.312 132.559 248.723L126.674 254.281L134.594 260.53ZM146.036 263.545C144.583 263.545 143.288 263.303 142.149 262.818C141.011 262.334 140.042 261.68 139.243 260.857C138.468 260.009 137.875 259.04 137.463 257.951C137.051 256.861 136.845 255.686 136.845 254.427C136.845 252.756 137.233 251.266 138.008 249.959C138.783 248.651 139.849 247.621 141.205 246.871C142.585 246.096 144.159 245.708 145.927 245.708C147.138 245.708 148.216 245.902 149.16 246.289C150.129 246.653 150.953 247.149 151.631 247.779C152.309 248.409 152.829 249.111 153.193 249.886C153.556 250.661 153.738 251.436 153.738 252.211C153.738 253.446 153.447 254.318 152.866 254.826C152.285 255.311 151.57 255.553 150.722 255.553H140.224C140.2 256.619 140.478 257.539 141.059 258.314C141.665 259.065 142.416 259.646 143.312 260.057C144.232 260.469 145.152 260.675 146.073 260.675C146.751 260.675 147.332 260.639 147.816 260.566C148.301 260.493 148.724 260.397 149.088 260.275C149.451 260.154 149.766 260.033 150.032 259.912C150.299 259.791 150.529 259.67 150.722 259.549C150.94 259.428 151.146 259.343 151.34 259.295C151.558 259.246 151.764 259.27 151.958 259.367C152.176 259.44 152.345 259.597 152.466 259.84C152.612 260.033 152.708 260.215 152.757 260.384C152.805 260.554 152.829 260.736 152.829 260.929C152.829 261.268 152.539 261.644 151.958 262.055C151.376 262.467 150.565 262.818 149.524 263.109C148.507 263.4 147.344 263.545 146.036 263.545ZM140.224 253.41H149.342C149.802 253.41 150.141 253.349 150.359 253.228C150.601 253.107 150.722 252.78 150.722 252.247C150.722 251.569 150.517 250.964 150.105 250.431C149.693 249.874 149.124 249.426 148.398 249.087C147.695 248.748 146.884 248.578 145.964 248.578C144.898 248.578 143.917 248.796 143.021 249.232C142.149 249.644 141.459 250.213 140.95 250.939C140.442 251.666 140.2 252.489 140.224 253.41ZM172.699 263.254C172.335 263.254 172.045 263.194 171.827 263.073C171.633 262.976 171.475 262.843 171.354 262.673C171.258 262.479 171.185 262.273 171.136 262.055L165.506 247.743C165.385 247.379 165.324 247.077 165.324 246.834C165.348 246.592 165.445 246.386 165.615 246.217C165.808 246.047 166.087 245.902 166.45 245.781C167.031 245.563 167.479 245.514 167.794 245.636C168.109 245.732 168.363 246.047 168.557 246.58L172.699 257.624L176.549 246.834C176.622 246.641 176.707 246.459 176.803 246.289C176.925 246.096 177.094 245.938 177.312 245.817C177.53 245.696 177.809 245.636 178.148 245.636C178.535 245.636 178.826 245.696 179.019 245.817C179.237 245.938 179.407 246.084 179.528 246.253C179.673 246.423 179.77 246.604 179.819 246.798L183.633 257.696L187.774 246.762C187.992 246.18 188.259 245.805 188.574 245.636C188.913 245.466 189.373 245.49 189.954 245.708C190.463 245.878 190.802 246.12 190.971 246.435C191.141 246.75 191.104 247.198 190.862 247.779L185.231 262.092C185.159 262.286 185.062 262.479 184.941 262.673C184.844 262.843 184.687 262.976 184.469 263.073C184.275 263.194 184.008 263.254 183.669 263.254C183.33 263.254 183.064 263.206 182.87 263.109C182.676 263.012 182.519 262.867 182.398 262.673C182.277 262.455 182.168 262.225 182.071 261.983L178.184 250.794L174.261 261.983C174.164 262.273 174.055 262.516 173.934 262.709C173.837 262.903 173.691 263.036 173.498 263.109C173.304 263.206 173.038 263.254 172.699 263.254ZM201.3 263.581C200.113 263.581 198.975 263.351 197.885 262.891C196.82 262.431 195.863 261.801 195.015 261.002C194.168 260.179 193.502 259.222 193.017 258.132C192.533 257.042 192.291 255.856 192.291 254.572C192.291 253.313 192.521 252.15 192.981 251.085C193.441 249.995 194.083 249.038 194.906 248.215C195.73 247.391 196.674 246.75 197.74 246.289C198.83 245.805 199.992 245.563 201.227 245.563C202.898 245.563 204.4 245.963 205.732 246.762C207.088 247.537 208.166 248.602 208.965 249.959C209.764 251.315 210.164 252.84 210.164 254.536C210.164 255.868 209.922 257.091 209.437 258.205C208.953 259.295 208.299 260.239 207.476 261.038C206.652 261.838 205.708 262.467 204.642 262.927C203.576 263.363 202.462 263.581 201.3 263.581ZM201.227 260.421C202.244 260.421 203.189 260.166 204.061 259.658C204.933 259.149 205.635 258.447 206.168 257.551C206.701 256.655 206.967 255.638 206.967 254.499C206.967 253.361 206.713 252.356 206.204 251.484C205.72 250.612 205.042 249.934 204.17 249.45C203.298 248.966 202.305 248.723 201.191 248.723C200.125 248.723 199.157 248.978 198.285 249.486C197.437 249.995 196.747 250.685 196.214 251.557C195.706 252.429 195.451 253.422 195.451 254.536C195.451 255.698 195.718 256.727 196.25 257.624C196.783 258.495 197.486 259.186 198.357 259.694C199.254 260.179 200.21 260.421 201.227 260.421ZM215.27 263.327C214.81 263.327 214.459 263.254 214.217 263.109C213.999 262.988 213.854 262.806 213.781 262.564C213.733 262.322 213.708 262.031 213.708 261.692V247.27C213.708 246.955 213.745 246.689 213.817 246.471C213.89 246.253 214.035 246.084 214.253 245.963C214.495 245.841 214.847 245.781 215.307 245.781C215.67 245.781 215.948 245.829 216.142 245.926C216.36 245.999 216.506 246.108 216.578 246.253C216.675 246.398 216.736 246.556 216.76 246.725C216.784 246.895 216.796 247.052 216.796 247.198L216.723 248.869C216.966 248.457 217.268 248.069 217.632 247.706C217.995 247.319 218.419 246.98 218.903 246.689C219.387 246.374 219.908 246.132 220.465 245.963C221.046 245.793 221.664 245.708 222.318 245.708C223.383 245.708 224.364 245.902 225.26 246.289C226.156 246.653 226.919 247.198 227.549 247.924C228.203 248.627 228.699 249.474 229.038 250.467C229.402 251.46 229.583 252.586 229.583 253.846V261.729C229.583 262.068 229.547 262.358 229.474 262.6C229.426 262.843 229.281 263.024 229.038 263.145C228.82 263.266 228.481 263.327 228.021 263.327C227.537 263.327 227.174 263.254 226.931 263.109C226.713 262.988 226.568 262.806 226.496 262.564C226.423 262.322 226.387 262.031 226.387 261.692V253.809C226.387 252.792 226.217 251.908 225.878 251.157C225.539 250.407 225.03 249.825 224.352 249.414C223.674 248.978 222.814 248.76 221.773 248.76C220.78 248.76 219.908 248.978 219.157 249.414C218.431 249.825 217.862 250.407 217.45 251.157C217.063 251.908 216.869 252.792 216.869 253.809V261.729C216.869 262.068 216.832 262.358 216.76 262.6C216.687 262.843 216.53 263.024 216.288 263.145C216.07 263.266 215.731 263.327 215.27 263.327ZM241.486 263.363C240.396 263.363 239.354 263.145 238.361 262.709C237.369 262.273 236.497 261.656 235.746 260.857C235.019 260.057 234.438 259.125 234.002 258.059C233.59 256.97 233.385 255.783 233.385 254.499C233.385 253.24 233.59 252.078 234.002 251.012C234.438 249.946 235.019 249.026 235.746 248.251C236.497 247.452 237.369 246.834 238.361 246.398C239.354 245.963 240.396 245.745 241.486 245.745C242.672 245.745 243.738 245.963 244.682 246.398C245.651 246.834 246.475 247.452 247.153 248.251C247.855 249.026 248.388 249.959 248.751 251.048C249.114 252.114 249.296 253.276 249.296 254.536C249.32 255.819 249.139 256.994 248.751 258.059C248.388 259.125 247.867 260.057 247.189 260.857C246.511 261.656 245.687 262.273 244.719 262.709C243.774 263.145 242.697 263.363 241.486 263.363ZM241.958 260.275C242.975 260.275 243.883 260.033 244.682 259.549C245.506 259.065 246.148 258.399 246.608 257.551C247.092 256.679 247.334 255.686 247.334 254.572C247.334 253.434 247.092 252.441 246.608 251.593C246.148 250.721 245.506 250.043 244.682 249.559C243.883 249.075 242.975 248.832 241.958 248.832C240.941 248.832 240.02 249.075 239.197 249.559C238.374 250.043 237.72 250.721 237.235 251.593C236.775 252.441 236.545 253.434 236.545 254.572C236.545 255.686 236.775 256.679 237.235 257.551C237.72 258.399 238.374 259.065 239.197 259.549C240.045 260.033 240.965 260.275 241.958 260.275ZM249.078 263.363C248.545 263.363 248.158 263.266 247.916 263.073C247.673 262.879 247.528 262.552 247.48 262.092V239.351C247.48 238.988 247.504 238.685 247.552 238.443C247.625 238.201 247.77 238.019 247.988 237.898C248.23 237.753 248.582 237.68 249.042 237.68C249.502 237.68 249.841 237.753 250.059 237.898C250.301 238.019 250.458 238.201 250.531 238.443C250.604 238.685 250.64 238.976 250.64 239.315V261.692C250.64 262.031 250.604 262.334 250.531 262.6C250.458 262.843 250.313 263.024 250.095 263.145C249.877 263.291 249.538 263.363 249.078 263.363ZM263.461 263.545C262.008 263.545 260.713 263.303 259.574 262.818C258.436 262.334 257.467 261.68 256.668 260.857C255.893 260.009 255.3 259.04 254.888 257.951C254.476 256.861 254.271 255.686 254.271 254.427C254.271 252.756 254.658 251.266 255.433 249.959C256.208 248.651 257.274 247.621 258.63 246.871C260.01 246.096 261.584 245.708 263.352 245.708C264.563 245.708 265.641 245.902 266.586 246.289C267.554 246.653 268.378 247.149 269.056 247.779C269.734 248.409 270.255 249.111 270.618 249.886C270.981 250.661 271.163 251.436 271.163 252.211C271.163 253.446 270.872 254.318 270.291 254.826C269.71 255.311 268.995 255.553 268.148 255.553H257.649C257.625 256.619 257.903 257.539 258.485 258.314C259.09 259.065 259.841 259.646 260.737 260.057C261.657 260.469 262.577 260.675 263.498 260.675C264.176 260.675 264.757 260.639 265.241 260.566C265.726 260.493 266.15 260.397 266.513 260.275C266.876 260.154 267.191 260.033 267.457 259.912C267.724 259.791 267.954 259.67 268.148 259.549C268.366 259.428 268.571 259.343 268.765 259.295C268.983 259.246 269.189 259.27 269.383 259.367C269.601 259.44 269.77 259.597 269.891 259.84C270.037 260.033 270.133 260.215 270.182 260.384C270.23 260.554 270.255 260.736 270.255 260.929C270.255 261.268 269.964 261.644 269.383 262.055C268.801 262.467 267.99 262.818 266.949 263.109C265.932 263.4 264.769 263.545 263.461 263.545ZM257.649 253.41H266.767C267.227 253.41 267.566 253.349 267.784 253.228C268.026 253.107 268.148 252.78 268.148 252.247C268.148 251.569 267.942 250.964 267.53 250.431C267.118 249.874 266.549 249.426 265.823 249.087C265.12 248.748 264.309 248.578 263.389 248.578C262.323 248.578 261.342 248.796 260.446 249.232C259.574 249.644 258.884 250.213 258.376 250.939C257.867 251.666 257.625 252.489 257.649 253.41ZM276.395 263.363C275.935 263.363 275.584 263.291 275.342 263.145C275.124 263.024 274.979 262.843 274.906 262.6C274.857 262.334 274.833 262.031 274.833 261.692V247.379C274.833 247.016 274.87 246.713 274.942 246.471C275.015 246.229 275.16 246.059 275.378 245.963C275.596 245.841 275.947 245.781 276.432 245.781C276.868 245.781 277.194 245.841 277.412 245.963C277.655 246.059 277.812 246.217 277.885 246.435C277.982 246.629 278.03 246.859 278.03 247.125L277.885 248.215C278.054 247.9 278.248 247.585 278.466 247.27C278.708 246.955 278.999 246.677 279.338 246.435C279.701 246.168 280.125 245.95 280.609 245.781C281.118 245.611 281.735 245.527 282.462 245.527C282.825 245.527 283.164 245.563 283.479 245.636C283.818 245.684 284.133 245.769 284.424 245.89C284.738 246.011 285.005 246.156 285.223 246.326C285.441 246.471 285.61 246.641 285.731 246.834C285.877 247.004 285.949 247.21 285.949 247.452C285.949 247.985 285.78 248.445 285.441 248.832C285.102 249.196 284.751 249.377 284.387 249.377C284.072 249.377 283.842 249.341 283.697 249.268C283.552 249.171 283.406 249.075 283.261 248.978C283.14 248.881 282.958 248.796 282.716 248.723C282.474 248.627 282.087 248.578 281.554 248.578C281.19 248.578 280.803 248.651 280.391 248.796C280.004 248.941 279.628 249.159 279.265 249.45C278.902 249.716 278.599 250.067 278.357 250.503C278.139 250.939 278.03 251.448 278.03 252.029V261.765C278.03 262.104 277.994 262.395 277.921 262.637C277.848 262.879 277.691 263.061 277.449 263.182C277.231 263.303 276.88 263.363 276.395 263.363ZM313.213 263.327C312.68 263.327 312.293 263.218 312.051 263C311.833 262.782 311.7 262.443 311.651 261.983L311.797 260.166C311.554 260.554 311.179 261.002 310.67 261.511C310.162 261.995 309.496 262.431 308.672 262.818C307.849 263.182 306.844 263.363 305.657 263.363C304.495 263.363 303.405 263.133 302.388 262.673C301.395 262.213 300.511 261.571 299.736 260.748C298.985 259.924 298.392 258.98 297.956 257.914C297.544 256.849 297.338 255.71 297.338 254.499C297.338 253.313 297.544 252.199 297.956 251.157C298.392 250.092 298.997 249.159 299.772 248.36C300.547 247.561 301.431 246.931 302.424 246.471C303.441 246.011 304.519 245.781 305.657 245.781C306.723 245.781 307.631 245.926 308.382 246.217C309.133 246.483 309.774 246.846 310.307 247.307C310.864 247.743 311.348 248.239 311.76 248.796L311.688 247.27C311.663 246.737 311.772 246.362 312.014 246.144C312.281 245.902 312.693 245.781 313.25 245.781C313.71 245.781 314.037 245.854 314.23 245.999C314.448 246.144 314.594 246.35 314.666 246.616C314.739 246.883 314.775 247.21 314.775 247.597V261.62C314.775 261.959 314.739 262.261 314.666 262.528C314.594 262.794 314.448 262.988 314.23 263.109C314.012 263.254 313.673 263.327 313.213 263.327ZM306.202 260.312C307.171 260.312 308.055 260.057 308.854 259.549C309.677 259.04 310.319 258.362 310.779 257.515C311.264 256.643 311.506 255.65 311.506 254.536C311.506 253.397 311.252 252.405 310.743 251.557C310.259 250.685 309.605 250.007 308.781 249.523C307.982 249.014 307.098 248.76 306.129 248.76C304.991 248.76 303.998 249.026 303.151 249.559C302.327 250.067 301.673 250.758 301.189 251.63C300.705 252.501 300.462 253.494 300.462 254.608C300.462 255.698 300.705 256.679 301.189 257.551C301.673 258.399 302.339 259.077 303.187 259.585C304.059 260.07 305.064 260.312 306.202 260.312ZM324.628 263.363C323.853 263.363 323.151 263.291 322.521 263.145C321.916 263.024 321.383 262.818 320.923 262.528C320.462 262.237 320.075 261.862 319.76 261.402C319.47 260.941 319.252 260.384 319.106 259.731C318.985 259.077 318.925 258.314 318.925 257.442V239.278C318.925 238.915 318.949 238.612 318.997 238.37C319.07 238.128 319.227 237.946 319.47 237.825C319.712 237.68 320.051 237.607 320.487 237.607C320.971 237.607 321.322 237.668 321.54 237.789C321.782 237.91 321.94 238.092 322.012 238.334C322.085 238.576 322.121 238.867 322.121 239.206V257.406C322.121 257.89 322.17 258.314 322.267 258.677C322.364 259.016 322.509 259.307 322.703 259.549C322.921 259.791 323.187 259.961 323.502 260.057C323.817 260.154 324.192 260.203 324.628 260.203C324.919 260.203 325.161 260.239 325.355 260.312C325.573 260.384 325.742 260.53 325.863 260.748C325.984 260.966 326.045 261.305 326.045 261.765C326.045 262.249 325.984 262.613 325.863 262.855C325.742 263.073 325.573 263.206 325.355 263.254C325.161 263.327 324.919 263.363 324.628 263.363ZM331.103 263.363C330.643 263.363 330.292 263.291 330.05 263.145C329.832 263.024 329.687 262.843 329.614 262.6C329.541 262.358 329.505 262.068 329.505 261.729V247.379C329.505 247.04 329.541 246.75 329.614 246.507C329.687 246.265 329.832 246.084 330.05 245.963C330.292 245.841 330.655 245.781 331.14 245.781C331.6 245.781 331.939 245.854 332.157 245.999C332.375 246.12 332.52 246.302 332.593 246.544C332.665 246.786 332.702 247.089 332.702 247.452V261.765C332.702 262.104 332.665 262.395 332.593 262.637C332.52 262.879 332.363 263.061 332.12 263.182C331.903 263.303 331.563 263.363 331.103 263.363ZM331.103 241.422C330.571 241.422 330.171 241.349 329.905 241.204C329.638 241.034 329.456 240.804 329.36 240.513C329.287 240.223 329.251 239.884 329.251 239.496C329.251 239.109 329.299 238.782 329.396 238.515C329.493 238.225 329.674 238.019 329.941 237.898C330.207 237.753 330.607 237.68 331.14 237.68C331.648 237.68 332.036 237.753 332.302 237.898C332.569 238.043 332.738 238.261 332.811 238.552C332.908 238.842 332.956 239.181 332.956 239.569C332.956 239.956 332.908 240.295 332.811 240.586C332.738 240.852 332.569 241.058 332.302 241.204C332.036 241.349 331.636 241.422 331.103 241.422ZM344.894 263.436C344.483 263.436 344.144 263.375 343.877 263.254C343.635 263.133 343.429 262.915 343.26 262.6L336.539 247.961C336.273 247.379 336.212 246.943 336.357 246.653C336.503 246.338 336.842 246.047 337.375 245.781C337.859 245.539 338.271 245.466 338.61 245.563C338.949 245.636 339.239 245.95 339.482 246.507L344.894 259.404L350.198 246.871C350.465 246.314 350.755 245.914 351.07 245.672C351.385 245.43 351.881 245.478 352.559 245.817C353.213 246.132 353.54 246.495 353.54 246.907C353.54 247.295 353.431 247.718 353.213 248.178L346.529 262.564C346.408 262.855 346.214 263.073 345.948 263.218C345.681 263.363 345.33 263.436 344.894 263.436ZM364.142 263.545C362.689 263.545 361.393 263.303 360.255 262.818C359.117 262.334 358.148 261.68 357.349 260.857C356.574 260.009 355.98 259.04 355.569 257.951C355.157 256.861 354.951 255.686 354.951 254.427C354.951 252.756 355.339 251.266 356.114 249.959C356.889 248.651 357.954 247.621 359.31 246.871C360.691 246.096 362.265 245.708 364.033 245.708C365.244 245.708 366.321 245.902 367.266 246.289C368.235 246.653 369.058 247.149 369.736 247.779C370.414 248.409 370.935 249.111 371.298 249.886C371.662 250.661 371.843 251.436 371.843 252.211C371.843 253.446 371.553 254.318 370.971 254.826C370.39 255.311 369.676 255.553 368.828 255.553H358.329C358.305 256.619 358.584 257.539 359.165 258.314C359.77 259.065 360.521 259.646 361.417 260.057C362.338 260.469 363.258 260.675 364.178 260.675C364.856 260.675 365.438 260.639 365.922 260.566C366.406 260.493 366.83 260.397 367.193 260.275C367.557 260.154 367.871 260.033 368.138 259.912C368.404 259.791 368.634 259.67 368.828 259.549C369.046 259.428 369.252 259.343 369.446 259.295C369.664 259.246 369.869 259.27 370.063 259.367C370.281 259.44 370.451 259.597 370.572 259.84C370.717 260.033 370.814 260.215 370.862 260.384C370.911 260.554 370.935 260.736 370.935 260.929C370.935 261.268 370.644 261.644 370.063 262.055C369.482 262.467 368.671 262.818 367.629 263.109C366.612 263.4 365.45 263.545 364.142 263.545ZM358.329 253.41H367.448C367.908 253.41 368.247 253.349 368.465 253.228C368.707 253.107 368.828 252.78 368.828 252.247C368.828 251.569 368.622 250.964 368.211 250.431C367.799 249.874 367.23 249.426 366.503 249.087C365.801 248.748 364.989 248.578 364.069 248.578C363.004 248.578 362.023 248.796 361.127 249.232C360.255 249.644 359.565 250.213 359.056 250.939C358.547 251.666 358.305 252.489 358.329 253.41ZM377.039 263.4C376.313 263.4 375.804 263.254 375.514 262.964C375.223 262.673 375.078 262.189 375.078 261.511C375.078 261.002 375.138 260.615 375.259 260.348C375.38 260.057 375.586 259.852 375.877 259.731C376.168 259.585 376.555 259.513 377.039 259.513C377.766 259.513 378.262 259.658 378.529 259.949C378.819 260.239 378.965 260.748 378.965 261.474C378.965 261.959 378.904 262.346 378.783 262.637C378.662 262.903 378.456 263.097 378.166 263.218C377.899 263.339 377.524 263.4 377.039 263.4Z" fill="#653392"/>
<path d="M150.893 131.23C152.331 128.102 154.135 125.831 156.304 124.418C158.474 123.006 161.06 122.299 164.062 122.299C168.401 122.299 171.731 123.636 174.052 126.31C176.373 128.985 177.533 132.895 177.533 138.041V164H166.938V141.068C166.938 137.461 166.332 134.762 165.121 132.97C163.91 131.179 162.081 130.284 159.634 130.284C157.061 130.284 154.98 131.394 153.391 133.614C151.827 135.809 151.045 138.634 151.045 142.09V164H140.411V107.844H151.045V123.17C151.045 124.078 151.032 124.986 151.007 125.894C150.981 126.802 150.944 127.698 150.893 128.581C150.868 129.464 150.818 130.347 150.742 131.23H150.893ZM226.689 143.49C226.689 150.125 224.847 155.334 221.164 159.119C217.481 162.877 212.385 164.757 205.876 164.757C199.494 164.757 194.486 162.865 190.853 159.081C187.22 155.297 185.404 150.1 185.404 143.49C185.404 136.906 187.22 131.734 190.853 127.975C194.486 124.191 199.569 122.299 206.103 122.299C212.788 122.299 217.884 124.128 221.391 127.786C224.923 131.419 226.689 136.654 226.689 143.49ZM215.563 143.49C215.563 138.621 214.769 135.09 213.179 132.895C211.59 130.7 209.282 129.603 206.254 129.603C203.025 129.603 200.604 130.763 198.989 133.084C197.374 135.38 196.567 138.848 196.567 143.49C196.567 148.056 197.349 151.538 198.913 153.934C200.503 156.306 202.786 157.491 205.763 157.491C209.042 157.491 211.489 156.331 213.104 154.01C214.743 151.664 215.563 148.157 215.563 143.49ZM243.944 145.571C243.944 149.557 244.676 152.572 246.139 154.615C247.627 156.634 249.734 157.643 252.458 157.643C254.325 157.643 255.851 157.239 257.037 156.432C258.248 155.599 259.093 154.376 259.572 152.761L269.6 153.632C266.699 161.048 260.808 164.757 251.928 164.757C245.773 164.757 241.043 162.94 237.738 159.308C234.433 155.65 232.781 150.327 232.781 143.339C232.781 136.578 234.459 131.381 237.814 127.748C241.169 124.116 245.924 122.299 252.08 122.299C257.958 122.299 262.448 124.254 265.551 128.165C268.654 132.05 270.206 137.751 270.206 145.269V145.571H243.944ZM259.913 138.911C259.711 135.607 258.916 133.134 257.529 131.495C256.141 129.83 254.275 128.997 251.928 128.997C249.431 128.997 247.501 129.867 246.139 131.608C244.802 133.349 244.095 135.783 244.02 138.911H259.913ZM317.053 143.377C317.053 150.138 315.69 155.397 312.966 159.156C310.266 162.89 306.394 164.757 301.349 164.757C298.448 164.757 295.937 164.126 293.818 162.865C291.699 161.603 290.072 159.787 288.937 157.416H288.861C288.861 157.996 288.836 158.753 288.785 159.686C288.735 160.62 288.672 161.502 288.596 162.335C288.521 163.142 288.432 163.697 288.331 164H278.001C278.102 162.814 278.177 161.452 278.228 159.913C278.278 158.349 278.304 156.596 278.304 154.653V107.844H288.937V123.51C288.937 124.62 288.912 125.73 288.861 126.84C288.836 127.95 288.811 129.06 288.785 130.17H288.937C290.123 127.547 291.813 125.579 294.008 124.267C296.202 122.955 298.876 122.299 302.03 122.299C306.873 122.299 310.582 124.141 313.155 127.824C315.753 131.482 317.053 136.666 317.053 143.377ZM305.965 143.377C305.965 138.735 305.284 135.291 303.922 133.046C302.56 130.801 300.453 129.678 297.602 129.678C294.726 129.678 292.532 130.889 291.018 133.311C289.53 135.708 288.785 139.176 288.785 143.717C288.785 148.056 289.517 151.437 290.98 153.859C292.469 156.28 294.651 157.491 297.527 157.491C300.352 157.491 302.459 156.318 303.846 153.972C305.259 151.626 305.965 148.094 305.965 143.377ZM334.459 145.571C334.459 149.557 335.191 152.572 336.654 154.615C338.143 156.634 340.249 157.643 342.974 157.643C344.84 157.643 346.367 157.239 347.552 156.432C348.763 155.599 349.608 154.376 350.088 152.761L360.116 153.632C357.214 161.048 351.324 164.757 342.444 164.757C336.288 164.757 331.558 162.94 328.254 159.308C324.949 155.65 323.296 150.327 323.296 143.339C323.296 136.578 324.974 131.381 328.329 127.748C331.684 124.116 336.44 122.299 342.595 122.299C348.473 122.299 352.964 124.254 356.067 128.165C359.17 132.05 360.721 137.751 360.721 145.269V145.571H334.459ZM350.428 138.911C350.226 135.607 349.432 133.134 348.044 131.495C346.657 129.83 344.79 128.997 342.444 128.997C339.946 128.997 338.016 129.867 336.654 131.608C335.317 133.349 334.611 135.783 334.535 138.911H350.428ZM365.965 153.654C367.748 151.484 369.724 150.399 371.894 150.399C374.064 150.399 375.149 151.717 375.149 154.351C375.149 156.676 374.296 158.924 372.591 161.094C370.886 163.186 368.988 164.232 366.895 164.232C364.57 164.232 363.408 162.915 363.408 160.28C363.408 157.955 364.26 155.746 365.965 153.654ZM391.54 110.294C393.09 106.806 395.066 102.699 397.468 97.9715C399.871 93.1667 401.924 89.253 403.629 86.2306L406.07 81.6969C407.775 78.5195 410.798 76.9308 415.138 76.9308C417.23 76.9308 418.276 77.512 418.276 78.6745C418.276 78.907 418.199 79.2557 418.044 79.7207C417.424 81.3482 416.106 83.8281 414.092 87.1605C412.154 90.4155 409.48 94.6779 406.07 99.9478C402.661 105.218 400.026 109.403 398.166 112.502L380.845 140.751C380.07 141.603 378.83 142.029 377.125 142.029C376.195 142.029 375.73 141.681 375.73 140.983C375.73 140.673 375.846 140.286 376.079 139.821C382.821 127.963 387.975 118.121 391.54 110.294Z" fill="#653392"/>
<path d="M233.05 63.8892L233.457 62.7267H253.974L253.509 63.8892H233.05ZM255.021 49.0096C255.408 47.5759 255.563 46.5296 255.486 45.8709C255.447 45.1734 255.117 44.7084 254.497 44.4759C253.877 44.2047 252.909 44.0497 251.591 44.0109L251.882 42.8485C252.928 42.8872 254.284 42.926 255.951 42.9647C257.617 43.0035 259.283 43.0228 260.949 43.0228C262.848 43.0228 264.65 43.0035 266.355 42.9647C268.06 42.926 269.455 42.8872 270.54 42.8485L270.249 44.0109C268.932 44.0497 267.905 44.2047 267.168 44.4759C266.432 44.7084 265.851 45.1734 265.425 45.8709C265.037 46.5296 264.65 47.5759 264.262 49.0096L256.59 77.8389C256.241 79.2339 256.086 80.2801 256.125 80.9776C256.164 81.6751 256.493 82.14 257.113 82.3725C257.733 82.605 258.702 82.76 260.019 82.8375L259.787 84C258.74 83.9225 257.365 83.8838 255.66 83.8838C253.955 83.845 252.153 83.8256 250.254 83.8256C248.588 83.8256 246.903 83.845 245.198 83.8838C243.531 83.8838 242.175 83.9225 241.129 84L241.362 82.8375C242.679 82.76 243.706 82.605 244.442 82.3725C245.178 82.14 245.76 81.6751 246.186 80.9776C246.612 80.2801 247 79.2339 247.348 77.8389L255.021 49.0096ZM232.178 77.8389C231.829 79.2339 231.674 80.2801 231.713 80.9776C231.752 81.6751 232.081 82.14 232.701 82.3725C233.321 82.605 234.29 82.76 235.607 82.8375L235.375 84C234.29 83.9225 232.914 83.8838 231.248 83.8838C229.621 83.845 227.954 83.8256 226.249 83.8256C224.312 83.8256 222.51 83.845 220.844 83.8838C219.178 83.8838 217.821 83.9225 216.775 84L217.066 82.8375C218.345 82.76 219.333 82.605 220.03 82.3725C220.766 82.14 221.348 81.6751 221.774 80.9776C222.2 80.2801 222.588 79.2339 222.936 77.8389L230.609 49.0096C230.996 47.5759 231.151 46.5296 231.074 45.8709C230.996 45.1734 230.647 44.7084 230.027 44.4759C229.446 44.2047 228.497 44.0497 227.179 44.0109L227.47 42.8485C228.439 42.8872 229.776 42.926 231.481 42.9647C233.185 43.0035 235.007 43.0228 236.944 43.0228C238.649 43.0228 240.296 43.0035 241.885 42.9647C243.512 42.926 244.926 42.8872 246.128 42.8485L245.837 44.0109C244.52 44.0497 243.493 44.2047 242.756 44.4759C242.02 44.7084 241.439 45.1734 241.013 45.8709C240.625 46.5296 240.238 47.5759 239.85 49.0096L232.178 77.8389ZM269.759 84.6394V56.8563H277.141V84.6394H269.759ZM269.759 54.8801V46.9171H277.141V54.8801H269.759ZM286.791 88.9405V86.3831V85.2206V84H284.233V76.0371H291.615V81.0357H294.172V86.3831H291.615V88.9405H286.791ZM312.898 84.6394V77.432H318.071V54.2988H312.898V47.0334H330.16V54.2988H324.929V77.432H330.16V84.6394H312.898ZM339.806 59.3556V56.6238L340.678 55.81V54.2988H337.248V47.0334H344.107V52.1482H346.664V56.7981H344.107V59.3556H339.806ZM359.288 84H351.092L358.183 58.8906C358.338 58.3868 358.416 57.9219 358.416 57.4956C358.454 57.0306 358.416 56.6625 358.299 56.3913C358.183 56.12 357.893 55.9844 357.428 55.9844C356.769 55.9844 356.149 56.3331 355.568 57.0306C354.986 57.7281 354.386 58.91 353.766 60.5762L352.661 63.5405H351.557L353.126 59.1231C353.708 57.5731 354.405 56.3719 355.219 55.5194C356.033 54.6669 356.943 54.0663 357.951 53.7176C358.958 53.3301 359.966 53.1363 360.973 53.1363C362.291 53.1363 363.298 53.3882 363.996 53.892C364.693 54.3569 365.158 54.9963 365.391 55.81C365.623 56.6238 365.701 57.515 365.623 58.4837C365.546 59.4137 365.391 60.3437 365.158 61.2737L359.288 84ZM373.354 59.8787C373.547 59.22 373.683 58.6387 373.76 58.135C373.877 57.5925 373.877 57.1663 373.76 56.8563C373.644 56.5463 373.353 56.3913 372.889 56.3913C371.997 56.3913 371.048 56.9338 370.04 58.0187C369.033 59.065 367.987 60.5568 366.902 62.4943C365.856 64.4317 364.809 66.7373 363.763 69.411C362.717 72.0847 361.729 75.0102 360.799 78.1876L361.089 74.1771C362.717 69.0235 364.306 64.9161 365.856 61.8549C367.406 58.755 369.072 56.5269 370.854 55.1707C372.637 53.8145 374.652 53.1363 376.899 53.1363C378.178 53.1363 379.146 53.3688 379.805 53.8338C380.503 54.2988 380.968 54.9382 381.2 55.7519C381.433 56.5656 381.491 57.4956 381.375 58.5418C381.297 59.5881 381.103 60.7118 380.793 61.913L374.574 84H366.262L373.354 59.8787ZM388.873 59.8787C389.221 58.8712 389.376 58.0381 389.338 57.3794C389.338 56.7206 389.066 56.3913 388.524 56.3913C387.788 56.3913 386.935 56.8563 385.966 57.7862C385.036 58.6775 384.029 60.0531 382.944 61.913C381.859 63.7342 380.735 66.0592 379.573 68.8879C378.41 71.6778 377.248 74.9715 376.085 78.7689L376.202 75.6302C377.597 71.2128 378.914 67.551 380.154 64.6448C381.433 61.7386 382.711 59.4524 383.99 57.7862C385.308 56.0813 386.664 54.8801 388.059 54.1826C389.454 53.4851 390.946 53.1363 392.534 53.1363C394.201 53.1363 395.402 53.5432 396.138 54.3569C396.874 55.1319 397.242 56.1782 397.242 57.4956C397.281 58.8131 397.029 60.2856 396.487 61.913L390.791 79.0595C390.403 80.1832 390.306 80.9582 390.5 81.3844C390.732 81.7719 391.081 81.9657 391.546 81.9657C392.05 81.9657 392.612 81.6944 393.232 81.1519C393.852 80.5707 394.511 79.3114 395.208 77.3739L396.254 74.584H397.359L395.905 78.827C395.363 80.4545 394.646 81.6944 393.755 82.5469C392.902 83.3994 391.972 83.9806 390.965 84.2906C389.996 84.6394 389.028 84.8137 388.059 84.8137C386.935 84.8137 385.986 84.62 385.211 84.2325C384.436 83.8838 383.835 83.38 383.409 82.7213C382.905 81.9463 382.673 80.9582 382.711 79.757C382.789 78.5558 383.099 77.1608 383.641 75.5721L388.873 59.8787Z" fill="#653392"/>
<path d="M18.8022 164.177C12.3574 164.177 7.59775 162.995 4.52317 160.63C1.50772 158.265 0 155.397 0 152.027C0 149.425 0.91646 147.563 2.74938 146.439C4.64142 145.257 6.50391 144.666 8.33683 144.666C9.22372 144.666 10.1697 144.991 11.1749 145.641C12.2392 146.292 12.7713 147.326 12.7713 148.745C12.7713 149.869 12.2687 150.903 11.2636 151.85C10.2584 152.736 9.07591 153.18 7.716 153.18C6.94735 153.18 6.20827 153.121 5.49876 153.002C4.78924 152.884 4.13885 152.648 3.54759 152.293V152.736C3.54759 155.338 4.8188 157.496 7.36124 159.211C9.90368 160.866 13.333 161.694 17.6492 161.694C21.4333 161.694 25.04 161.044 28.4694 159.743C31.9578 158.442 35.7715 155.959 39.9103 152.293C44.1083 148.627 49.0454 143.276 54.7215 136.24C60.4568 129.204 67.4928 119.951 75.8296 108.48C72.5186 106.293 70.863 103.691 70.863 100.676C70.863 98.0149 72.016 95.8272 74.3219 94.1126C76.6278 92.3979 79.052 91.5406 81.5945 91.5406C82.7179 91.5406 83.3683 91.6884 83.5456 91.984C83.723 92.2797 83.8117 92.4275 83.8117 92.4275C83.8117 92.7822 83.4569 93.0187 82.7474 93.137C80.0276 93.5509 77.9582 94.6151 76.5392 96.3298C75.1201 98.0445 74.4106 100.055 74.4106 102.361C74.4106 103.721 75.3862 105.051 77.3374 106.352L78.579 104.667C85.0238 95.9751 91.1138 88.3477 96.8491 81.7847C102.643 75.2217 108.379 69.3682 114.055 64.2242C119.79 59.021 125.821 54.2614 132.148 49.9451L135.784 47.5505C132.414 45.4811 128.097 43.9142 122.835 42.85C117.573 41.7857 111.335 41.2535 104.122 41.2535C92.8285 41.2535 82.1266 42.85 72.016 46.0428C61.9645 49.2356 53.0955 53.4336 45.4091 58.6367C37.7227 63.7807 31.7213 69.4273 27.4051 75.5764C23.148 81.6665 21.1081 87.6382 21.2855 93.4917C21.4629 98.3401 22.8819 101.71 25.5426 103.602C28.2033 105.494 30.8049 106.44 33.3473 106.44C37.6044 106.44 41.8911 105.14 46.2073 102.538C50.5235 99.9365 54.6328 96.5959 58.5352 92.5162C62.4966 88.4364 66.0442 84.1202 69.1779 79.5675C72.3116 75.0147 74.8245 70.7281 76.7165 66.7075C78.6677 62.6277 79.7911 59.3758 80.0867 56.9516C80.2641 54.9413 80.678 53.9362 81.3284 53.9362C81.9197 53.9362 82.2153 54.8526 82.2153 56.6855C82.3927 61.8295 81.3875 67.417 79.1998 73.4479C77.0122 79.4197 73.7602 85.0958 69.444 90.4763C65.1869 95.8568 59.9838 100.262 53.8346 103.691C47.6855 107.12 40.7677 108.835 33.0812 108.835C29.7702 108.835 26.5478 107.475 23.4141 104.755C20.2804 102.036 18.6544 98.4584 18.5361 94.0239C18.3588 88.2295 19.8665 82.642 23.0593 77.2615C26.2521 71.881 30.6866 66.8849 36.3627 62.273C42.0389 57.6611 48.5428 53.6405 55.8745 50.2112C63.2653 46.7819 71.07 44.1212 79.2885 42.2291C87.5071 40.278 95.7257 39.3024 103.944 39.3024C111.335 39.3024 117.928 39.8641 123.722 40.9875C129.516 42.1109 134.542 43.7073 138.799 45.7767C142.465 43.7073 145.688 42.1996 148.466 41.2535C151.305 40.3075 153.433 39.8345 154.852 39.8345C155.976 39.8345 156.567 40.1301 156.626 40.7214C156.626 41.0762 156.478 41.3718 156.182 41.6083C155.946 41.8448 155.325 42.0222 154.32 42.1404C150.418 42.9091 146.308 44.6829 141.992 47.4618C146.781 50.2999 150.358 53.6997 152.724 57.6611C155.089 61.6226 156.271 65.9093 156.271 70.5211C156.271 76.0199 154.675 81.3413 151.482 86.4853C148.289 91.6293 143.973 96.2411 138.533 100.321C133.094 104.401 126.944 107.653 120.086 110.077C113.286 112.442 106.25 113.624 98.9776 113.624C94.3066 113.624 89.9904 113.21 86.0289 112.383C76.3322 125.39 67.4632 135.678 59.4221 143.247C51.3809 150.756 43.9901 156.136 37.2496 159.388C30.5684 162.581 24.4192 164.177 18.8022 164.177ZM98.6229 111.318C103.353 111.318 108.438 110.343 113.877 108.392C119.317 106.381 124.432 103.425 129.221 99.5226C134.069 95.6203 138.001 90.7719 141.017 84.9775C144.091 79.124 145.628 72.3836 145.628 64.7563C145.628 58.4889 143.352 53.4632 138.799 49.6791C132.354 54.3501 125.585 60.8835 118.489 69.2795C111.394 77.6754 103.885 87.4313 95.9622 98.5471C94.5431 100.616 93.1537 102.627 91.7938 104.578C90.4339 106.47 89.074 108.332 87.714 110.165C91.3799 110.934 95.0162 111.318 98.6229 111.318Z" fill="#653392"/>
</svg>
