<svg width="431" height="246" viewBox="0 0 431 246" fill="none" xmlns="http://www.w3.org/2000/svg">
<path d="M16.9514 237.363C16.467 237.363 16.1038 237.291 15.8616 237.145C15.6436 237.024 15.4983 236.843 15.4256 236.6C15.353 236.334 15.3167 236.031 15.3167 235.692V213.642C15.3167 213.303 15.353 213.012 15.4256 212.77C15.5225 212.528 15.6799 212.346 15.8979 212.225C16.1401 212.079 16.5034 212.007 16.9877 212.007C17.4721 212.007 17.8232 212.079 18.0412 212.225C18.2834 212.346 18.4287 212.528 18.4771 212.77C18.5498 213.012 18.5861 213.315 18.5861 213.678V235.729C18.5861 236.068 18.5498 236.358 18.4771 236.6C18.4045 236.843 18.2471 237.024 18.0049 237.145C17.7869 237.291 17.4358 237.363 16.9514 237.363ZM36.9603 237.363C36.2096 237.363 35.5194 237.279 34.8897 237.109C34.2842 236.964 33.7514 236.734 33.2913 236.419C32.8554 236.104 32.48 235.704 32.1651 235.22C31.8503 234.736 31.6202 234.179 31.4749 233.549C31.3296 232.919 31.257 232.217 31.257 231.442L31.2206 213.242C31.2206 212.903 31.257 212.612 31.3296 212.37C31.4023 212.128 31.5476 211.934 31.7655 211.789C32.0077 211.644 32.3589 211.571 32.819 211.571C33.3034 211.571 33.6546 211.644 33.8725 211.789C34.1147 211.91 34.2721 212.092 34.3448 212.334C34.4174 212.552 34.4538 212.83 34.4538 213.169V231.551C34.4538 231.987 34.5022 232.362 34.5991 232.677C34.6959 232.992 34.8412 233.27 35.035 233.513C35.253 233.731 35.5194 233.888 35.8342 233.985C36.149 234.082 36.5244 234.13 36.9603 234.13C37.372 234.13 37.699 234.179 37.9412 234.275C38.1834 234.372 38.3529 234.542 38.4498 234.784C38.5709 235.026 38.6314 235.353 38.6314 235.765C38.6314 236.152 38.5709 236.467 38.4498 236.709C38.3287 236.927 38.147 237.085 37.9048 237.182C37.6627 237.303 37.3478 237.363 36.9603 237.363ZM28.3871 237.363C27.6606 237.363 26.9946 237.279 26.3891 237.109C25.8079 236.964 25.2993 236.746 24.8634 236.455C24.4274 236.14 24.0642 235.753 23.7735 235.293C23.4829 234.808 23.265 234.251 23.1196 233.622C22.9986 232.968 22.938 232.241 22.938 231.442V213.242C22.938 212.903 22.9743 212.612 23.047 212.37C23.1196 212.128 23.265 211.934 23.4829 211.789C23.7251 211.644 24.0763 211.571 24.5364 211.571C24.9966 211.571 25.3356 211.644 25.5536 211.789C25.7958 211.91 25.9532 212.092 26.0258 212.334C26.1227 212.552 26.1711 212.83 26.1711 213.169V231.551C26.1711 232.108 26.2559 232.58 26.4254 232.968C26.595 233.355 26.8492 233.646 27.1883 233.84C27.5274 234.033 27.927 234.13 28.3871 234.13C28.7504 234.13 29.041 234.179 29.259 234.275C29.4769 234.372 29.6343 234.542 29.7312 234.784C29.8281 235.026 29.8765 235.353 29.8765 235.765C29.8765 236.152 29.816 236.467 29.6949 236.709C29.598 236.927 29.4406 237.085 29.2226 237.182C29.0289 237.303 28.7504 237.363 28.3871 237.363ZM48.9339 237.4C47.8683 237.4 46.8753 237.206 45.955 236.818C45.059 236.431 44.2719 235.886 43.5938 235.184C42.9156 234.481 42.3828 233.634 41.9954 232.641C41.6321 231.648 41.4504 230.522 41.4504 229.262V221.379C41.4504 221.04 41.4868 220.75 41.5594 220.507C41.6321 220.265 41.7774 220.084 41.9954 219.963C42.2375 219.817 42.5887 219.745 43.0488 219.745C43.509 219.745 43.848 219.817 44.066 219.963C44.3082 220.108 44.4656 220.302 44.5383 220.544C44.6109 220.786 44.6472 221.077 44.6472 221.416V229.299C44.6472 230.292 44.8168 231.176 45.1558 231.951C45.4949 232.701 46.0035 233.283 46.6816 233.694C47.3839 234.106 48.2315 234.312 49.2245 234.312C50.2416 234.312 51.1135 234.106 51.84 233.694C52.5908 233.283 53.1599 232.701 53.5474 231.951C53.9591 231.176 54.165 230.292 54.165 229.299V221.379C54.165 221.04 54.2013 220.75 54.274 220.507C54.3466 220.265 54.4919 220.084 54.7099 219.963C54.9521 219.817 55.3032 219.745 55.7634 219.745C56.2235 219.745 56.5626 219.817 56.7806 219.963C57.0227 220.108 57.1681 220.302 57.2165 220.544C57.2891 220.786 57.3255 221.077 57.3255 221.416V235.838C57.3255 236.128 57.2891 236.395 57.2165 236.637C57.1681 236.855 57.0227 237.024 56.7806 237.145C56.5626 237.266 56.2235 237.327 55.7634 237.327C55.4243 237.327 55.1458 237.291 54.9279 237.218C54.7341 237.145 54.5888 237.048 54.4919 236.927C54.3951 236.806 54.3224 236.673 54.274 236.528C54.2498 236.358 54.2376 236.189 54.2376 236.019L54.383 234.457C54.1408 234.748 53.8502 235.063 53.5111 235.402C53.172 235.741 52.7724 236.068 52.3123 236.382C51.8764 236.673 51.3799 236.915 50.8229 237.109C50.2659 237.303 49.6362 237.4 48.9339 237.4ZM67.5323 237.545C66.9511 237.545 66.3456 237.484 65.7159 237.363C65.0863 237.242 64.4687 237.073 63.8632 236.855C63.282 236.613 62.7613 236.334 62.3012 236.019C61.8652 235.704 61.5383 235.353 61.3203 234.966C61.1992 234.723 61.1266 234.506 61.1024 234.312C61.0782 234.094 61.1145 233.888 61.2114 233.694C61.3082 233.5 61.4535 233.307 61.6473 233.113C61.8895 232.822 62.1316 232.689 62.3738 232.713C62.616 232.713 62.9187 232.871 63.282 233.186C63.5484 233.355 63.8632 233.549 64.2265 233.767C64.5898 233.961 64.9652 234.142 65.3527 234.312C65.7402 234.457 66.1276 234.59 66.5151 234.711C66.9268 234.808 67.3264 234.857 67.7139 234.857C68.828 234.857 69.724 234.651 70.4022 234.239C71.0803 233.803 71.4193 233.234 71.4193 232.532C71.4193 232.12 71.3346 231.769 71.165 231.478C70.9955 231.188 70.7654 230.945 70.4748 230.752C70.1842 230.534 69.8572 230.352 69.494 230.207C69.1307 230.061 68.719 229.928 68.2588 229.807C67.8229 229.662 67.387 229.529 66.9511 229.408C66.2972 229.238 65.6554 229.044 65.0257 228.826C64.396 228.608 63.8269 228.33 63.3183 227.991C62.8098 227.628 62.398 227.18 62.0832 226.647C61.7684 226.09 61.611 225.387 61.611 224.54C61.611 223.547 61.8652 222.687 62.3738 221.961C62.8824 221.234 63.5968 220.677 64.5171 220.289C65.4374 219.878 66.5151 219.672 67.7503 219.672C68.2831 219.672 68.7795 219.708 69.2397 219.781C69.6998 219.854 70.1358 219.975 70.5475 220.144C70.9834 220.289 71.3951 220.471 71.7826 220.689C72.1701 220.883 72.5455 221.125 72.9087 221.416C73.3447 221.706 73.5747 222.021 73.599 222.36C73.6232 222.699 73.49 223.05 73.1994 223.414C72.9814 223.728 72.7392 223.934 72.4728 224.031C72.2064 224.104 71.94 224.031 71.6736 223.813C71.2861 223.523 70.8744 223.268 70.4385 223.05C70.0026 222.832 69.5545 222.651 69.0944 222.505C68.6342 222.36 68.162 222.287 67.6776 222.287C67.0722 222.287 66.5272 222.384 66.0429 222.578C65.5827 222.748 65.2195 223.014 64.9531 223.377C64.7109 223.716 64.5898 224.104 64.5898 224.54C64.5898 224.927 64.6867 225.242 64.8804 225.484C65.0984 225.726 65.3648 225.932 65.6796 226.102C66.0187 226.271 66.4062 226.429 66.8421 226.574C67.3022 226.695 67.7745 226.816 68.2588 226.937C68.9612 227.107 69.6756 227.313 70.4022 227.555C71.1529 227.773 71.8189 228.076 72.4002 228.463C73.0056 228.826 73.49 229.323 73.8532 229.953C74.2407 230.558 74.4345 231.369 74.4345 232.386C74.4345 233.985 73.8048 235.244 72.5455 236.164C71.2861 237.085 69.6151 237.545 67.5323 237.545ZM86.0723 237.363C84.934 237.363 83.9653 237.254 83.1661 237.036C82.3911 236.818 81.7493 236.479 81.2407 236.019C80.7322 235.559 80.3689 234.966 80.1509 234.239C79.9329 233.488 79.824 232.568 79.824 231.478V215.422C79.824 215.083 79.8603 214.792 79.933 214.55C80.0056 214.308 80.1509 214.126 80.3689 214.005C80.5868 213.86 80.9259 213.787 81.386 213.787C81.8462 213.787 82.1974 213.86 82.4395 214.005C82.6817 214.126 82.8391 214.308 82.9118 214.55C82.9844 214.768 83.0208 215.046 83.0208 215.385V231.478C83.0208 232.108 83.0692 232.617 83.1661 233.004C83.2872 233.367 83.4567 233.646 83.6747 233.84C83.9168 234.033 84.2317 234.154 84.6192 234.203C85.0067 234.251 85.4789 234.275 86.0359 234.275C86.4234 234.275 86.7383 234.312 86.9804 234.384C87.2226 234.457 87.4043 234.602 87.5254 234.82C87.6464 235.038 87.707 235.365 87.707 235.801C87.707 236.261 87.6343 236.613 87.489 236.855C87.3679 237.073 87.1742 237.206 86.9078 237.254C86.6656 237.327 86.3871 237.363 86.0723 237.363ZM77.9349 220.18L81.4224 220.217L86.4719 220.144C86.8109 220.144 87.1015 220.18 87.3437 220.253C87.5859 220.302 87.7675 220.447 87.8886 220.689C88.0339 220.907 88.1066 221.246 88.1066 221.706C88.1066 222.166 88.046 222.518 87.925 222.76C87.8039 222.978 87.6222 223.123 87.38 223.196C87.1379 223.268 86.8472 223.305 86.5082 223.305L81.5314 223.232L77.8623 223.268C77.3537 223.268 77.0025 223.147 76.8088 222.905C76.6393 222.663 76.5545 222.263 76.5545 221.706C76.5545 221.173 76.6635 220.786 76.8815 220.544C77.0994 220.302 77.4506 220.18 77.9349 220.18ZM93.0462 237.363C92.5861 237.363 92.2349 237.291 91.9928 237.145C91.7748 237.024 91.6295 236.843 91.5568 236.6C91.5084 236.334 91.4842 236.031 91.4842 235.692V221.379C91.4842 221.016 91.5205 220.713 91.5932 220.471C91.6658 220.229 91.8111 220.059 92.0291 219.963C92.247 219.841 92.5982 219.781 93.0826 219.781C93.5185 219.781 93.8454 219.841 94.0634 219.963C94.3056 220.059 94.463 220.217 94.5357 220.435C94.6325 220.629 94.681 220.859 94.681 221.125L94.5357 222.215C94.7052 221.9 94.8989 221.585 95.1169 221.27C95.3591 220.955 95.6497 220.677 95.9888 220.435C96.352 220.168 96.7758 219.95 97.2602 219.781C97.7688 219.611 98.3864 219.527 99.1129 219.527C99.4762 219.527 99.8152 219.563 100.13 219.636C100.469 219.684 100.784 219.769 101.075 219.89C101.389 220.011 101.656 220.156 101.874 220.326C102.092 220.471 102.261 220.641 102.382 220.834C102.528 221.004 102.6 221.21 102.6 221.452C102.6 221.985 102.431 222.445 102.092 222.832C101.753 223.196 101.402 223.377 101.038 223.377C100.723 223.377 100.493 223.341 100.348 223.268C100.203 223.171 100.057 223.075 99.9121 222.978C99.791 222.881 99.6094 222.796 99.3672 222.723C99.125 222.627 98.7375 222.578 98.2047 222.578C97.8414 222.578 97.454 222.651 97.0422 222.796C96.6548 222.941 96.2794 223.159 95.9161 223.45C95.5528 223.716 95.2501 224.067 95.0079 224.503C94.79 224.939 94.681 225.448 94.681 226.029V235.765C94.681 236.104 94.6446 236.395 94.572 236.637C94.4993 236.879 94.3419 237.061 94.0997 237.182C93.8818 237.303 93.5306 237.363 93.0462 237.363ZM119.541 237.327C119.008 237.327 118.62 237.218 118.378 237C118.16 236.782 118.027 236.443 117.979 235.983L118.124 234.166C117.882 234.554 117.506 235.002 116.998 235.511C116.489 235.995 115.823 236.431 115 236.818C114.176 237.182 113.171 237.363 111.985 237.363C110.822 237.363 109.732 237.133 108.715 236.673C107.722 236.213 106.838 235.571 106.063 234.748C105.313 233.924 104.719 232.98 104.283 231.914C103.872 230.849 103.666 229.71 103.666 228.499C103.666 227.313 103.872 226.199 104.283 225.157C104.719 224.092 105.325 223.159 106.1 222.36C106.875 221.561 107.759 220.931 108.752 220.471C109.769 220.011 110.846 219.781 111.985 219.781C113.05 219.781 113.958 219.926 114.709 220.217C115.46 220.483 116.102 220.846 116.635 221.307C117.192 221.743 117.676 222.239 118.088 222.796L118.015 221.27C117.991 220.737 118.1 220.362 118.342 220.144C118.608 219.902 119.02 219.781 119.577 219.781C120.037 219.781 120.364 219.854 120.558 219.999C120.776 220.144 120.921 220.35 120.994 220.616C121.066 220.883 121.103 221.21 121.103 221.597V235.62C121.103 235.959 121.066 236.261 120.994 236.528C120.921 236.794 120.776 236.988 120.558 237.109C120.34 237.254 120.001 237.327 119.541 237.327ZM112.53 234.312C113.498 234.312 114.382 234.057 115.181 233.549C116.005 233.04 116.647 232.362 117.107 231.515C117.591 230.643 117.833 229.65 117.833 228.536C117.833 227.397 117.579 226.405 117.07 225.557C116.586 224.685 115.932 224.007 115.109 223.523C114.31 223.014 113.426 222.76 112.457 222.76C111.319 222.76 110.326 223.026 109.478 223.559C108.655 224.067 108.001 224.758 107.516 225.63C107.032 226.501 106.79 227.494 106.79 228.608C106.79 229.698 107.032 230.679 107.516 231.551C108.001 232.399 108.667 233.077 109.514 233.585C110.386 234.07 111.391 234.312 112.53 234.312ZM133.716 237.363C132.578 237.363 131.609 237.254 130.81 237.036C130.035 236.818 129.393 236.479 128.885 236.019C128.376 235.559 128.013 234.966 127.795 234.239C127.577 233.488 127.468 232.568 127.468 231.478V215.422C127.468 215.083 127.504 214.792 127.577 214.55C127.65 214.308 127.795 214.126 128.013 214.005C128.231 213.86 128.57 213.787 129.03 213.787C129.49 213.787 129.841 213.86 130.084 214.005C130.326 214.126 130.483 214.308 130.556 214.55C130.629 214.768 130.665 215.046 130.665 215.385V231.478C130.665 232.108 130.713 232.617 130.81 233.004C130.931 233.367 131.101 233.646 131.319 233.84C131.561 234.033 131.876 234.154 132.263 234.203C132.651 234.251 133.123 234.275 133.68 234.275C134.067 234.275 134.382 234.312 134.625 234.384C134.867 234.457 135.048 234.602 135.169 234.82C135.291 235.038 135.351 235.365 135.351 235.801C135.351 236.261 135.278 236.613 135.133 236.855C135.012 237.073 134.818 237.206 134.552 237.254C134.31 237.327 134.031 237.363 133.716 237.363ZM125.579 220.18L129.066 220.217L134.116 220.144C134.455 220.144 134.746 220.18 134.988 220.253C135.23 220.302 135.412 220.447 135.533 220.689C135.678 220.907 135.751 221.246 135.751 221.706C135.751 222.166 135.69 222.518 135.569 222.76C135.448 222.978 135.266 223.123 135.024 223.196C134.782 223.268 134.491 223.305 134.152 223.305L129.175 223.232L125.506 223.268C124.998 223.268 124.647 223.147 124.453 222.905C124.283 222.663 124.199 222.263 124.199 221.706C124.199 221.173 124.308 220.786 124.526 220.544C124.743 220.302 125.095 220.18 125.579 220.18ZM147.048 237.581C145.861 237.581 144.723 237.351 143.633 236.891C142.567 236.431 141.611 235.801 140.763 235.002C139.915 234.179 139.249 233.222 138.765 232.132C138.281 231.042 138.038 229.856 138.038 228.572C138.038 227.313 138.268 226.15 138.729 225.085C139.189 223.995 139.831 223.038 140.654 222.215C141.477 221.391 142.422 220.75 143.488 220.289C144.577 219.805 145.74 219.563 146.975 219.563C148.646 219.563 150.148 219.963 151.48 220.762C152.836 221.537 153.913 222.602 154.713 223.959C155.512 225.315 155.911 226.84 155.911 228.536C155.911 229.868 155.669 231.091 155.185 232.205C154.701 233.295 154.047 234.239 153.223 235.038C152.4 235.838 151.455 236.467 150.39 236.927C149.324 237.363 148.21 237.581 147.048 237.581ZM146.975 234.421C147.992 234.421 148.937 234.166 149.808 233.658C150.68 233.149 151.383 232.447 151.915 231.551C152.448 230.655 152.715 229.638 152.715 228.499C152.715 227.361 152.46 226.356 151.952 225.484C151.467 224.612 150.789 223.934 149.917 223.45C149.046 222.966 148.053 222.723 146.939 222.723C145.873 222.723 144.904 222.978 144.032 223.486C143.185 223.995 142.495 224.685 141.962 225.557C141.453 226.429 141.199 227.422 141.199 228.536C141.199 229.698 141.465 230.727 141.998 231.624C142.531 232.495 143.233 233.186 144.105 233.694C145.001 234.179 145.958 234.421 146.975 234.421ZM161.018 237.363C160.558 237.363 160.207 237.291 159.964 237.145C159.747 237.024 159.601 236.843 159.529 236.6C159.48 236.334 159.456 236.031 159.456 235.692V221.379C159.456 221.016 159.492 220.713 159.565 220.471C159.638 220.229 159.783 220.059 160.001 219.963C160.219 219.841 160.57 219.781 161.054 219.781C161.49 219.781 161.817 219.841 162.035 219.963C162.277 220.059 162.435 220.217 162.507 220.435C162.604 220.629 162.653 220.859 162.653 221.125L162.507 222.215C162.677 221.9 162.871 221.585 163.089 221.27C163.331 220.955 163.621 220.677 163.96 220.435C164.324 220.168 164.748 219.95 165.232 219.781C165.741 219.611 166.358 219.527 167.085 219.527C167.448 219.527 167.787 219.563 168.102 219.636C168.441 219.684 168.756 219.769 169.046 219.89C169.361 220.011 169.628 220.156 169.846 220.326C170.063 220.471 170.233 220.641 170.354 220.834C170.499 221.004 170.572 221.21 170.572 221.452C170.572 221.985 170.403 222.445 170.063 222.832C169.724 223.196 169.373 223.377 169.01 223.377C168.695 223.377 168.465 223.341 168.32 223.268C168.174 223.171 168.029 223.075 167.884 222.978C167.763 222.881 167.581 222.796 167.339 222.723C167.097 222.627 166.709 222.578 166.176 222.578C165.813 222.578 165.426 222.651 165.014 222.796C164.626 222.941 164.251 223.159 163.888 223.45C163.525 223.716 163.222 224.067 162.98 224.503C162.762 224.939 162.653 225.448 162.653 226.029V235.765C162.653 236.104 162.616 236.395 162.544 236.637C162.471 236.879 162.314 237.061 162.071 237.182C161.854 237.303 161.502 237.363 161.018 237.363ZM186.324 237.4C185.888 237.4 185.549 237.327 185.306 237.182C185.088 237.036 184.943 236.843 184.871 236.6C184.798 236.334 184.762 236.031 184.762 235.692V217.456C184.762 216.487 184.871 215.64 185.088 214.913C185.306 214.186 185.67 213.581 186.178 213.097C186.687 212.612 187.329 212.249 188.104 212.007C188.903 211.74 189.884 211.607 191.046 211.607C191.361 211.607 191.64 211.644 191.882 211.716C192.148 211.765 192.342 211.91 192.463 212.152C192.608 212.37 192.681 212.709 192.681 213.169C192.681 213.629 192.608 213.981 192.463 214.223C192.318 214.441 192.124 214.586 191.882 214.659C191.64 214.731 191.349 214.768 191.01 214.768C190.453 214.768 189.968 214.792 189.557 214.84C189.169 214.889 188.867 214.998 188.649 215.167C188.431 215.337 188.261 215.603 188.14 215.967C188.043 216.306 187.995 216.778 187.995 217.383V235.801C187.995 236.116 187.946 236.395 187.849 236.637C187.777 236.879 187.619 237.061 187.377 237.182C187.159 237.327 186.808 237.4 186.324 237.4ZM182.909 220.18L186.396 220.217L191.446 220.144C191.785 220.144 192.075 220.18 192.318 220.253C192.56 220.302 192.741 220.447 192.863 220.689C193.008 220.907 193.08 221.246 193.08 221.706C193.08 222.166 193.02 222.518 192.899 222.76C192.778 222.978 192.596 223.123 192.354 223.196C192.112 223.268 191.821 223.305 191.482 223.305L186.505 223.232L182.836 223.268C182.328 223.268 181.976 223.147 181.783 222.905C181.613 222.663 181.528 222.263 181.528 221.706C181.528 221.173 181.637 220.786 181.855 220.544C182.073 220.302 182.424 220.18 182.909 220.18ZM203.277 237.581C202.09 237.581 200.952 237.351 199.862 236.891C198.796 236.431 197.84 235.801 196.992 235.002C196.145 234.179 195.479 233.222 194.994 232.132C194.51 231.042 194.268 229.856 194.268 228.572C194.268 227.313 194.498 226.15 194.958 225.085C195.418 223.995 196.06 223.038 196.883 222.215C197.707 221.391 198.651 220.75 199.717 220.289C200.807 219.805 201.969 219.563 203.204 219.563C204.875 219.563 206.377 219.963 207.709 220.762C209.065 221.537 210.143 222.602 210.942 223.959C211.741 225.315 212.141 226.84 212.141 228.536C212.141 229.868 211.898 231.091 211.414 232.205C210.93 233.295 210.276 234.239 209.452 235.038C208.629 235.838 207.685 236.467 206.619 236.927C205.553 237.363 204.439 237.581 203.277 237.581ZM203.204 234.421C204.221 234.421 205.166 234.166 206.038 233.658C206.91 233.149 207.612 232.447 208.145 231.551C208.677 230.655 208.944 229.638 208.944 228.499C208.944 227.361 208.69 226.356 208.181 225.484C207.697 224.612 207.019 223.934 206.147 223.45C205.275 222.966 204.282 222.723 203.168 222.723C202.102 222.723 201.134 222.978 200.262 223.486C199.414 223.995 198.724 224.685 198.191 225.557C197.682 226.429 197.428 227.422 197.428 228.536C197.428 229.698 197.695 230.727 198.227 231.624C198.76 232.495 199.462 233.186 200.334 233.694C201.23 234.179 202.187 234.421 203.204 234.421ZM217.247 237.363C216.787 237.363 216.436 237.291 216.194 237.145C215.976 237.024 215.83 236.843 215.758 236.6C215.709 236.334 215.685 236.031 215.685 235.692V221.379C215.685 221.016 215.721 220.713 215.794 220.471C215.867 220.229 216.012 220.059 216.23 219.963C216.448 219.841 216.799 219.781 217.284 219.781C217.719 219.781 218.046 219.841 218.264 219.963C218.507 220.059 218.664 220.217 218.737 220.435C218.834 220.629 218.882 220.859 218.882 221.125L218.737 222.215C218.906 221.9 219.1 221.585 219.318 221.27C219.56 220.955 219.851 220.677 220.19 220.435C220.553 220.168 220.977 219.95 221.461 219.781C221.97 219.611 222.587 219.527 223.314 219.527C223.677 219.527 224.016 219.563 224.331 219.636C224.67 219.684 224.985 219.769 225.276 219.89C225.59 220.011 225.857 220.156 226.075 220.326C226.293 220.471 226.462 220.641 226.583 220.834C226.729 221.004 226.801 221.21 226.801 221.452C226.801 221.985 226.632 222.445 226.293 222.832C225.954 223.196 225.602 223.377 225.239 223.377C224.924 223.377 224.694 223.341 224.549 223.268C224.404 223.171 224.258 223.075 224.113 222.978C223.992 222.881 223.81 222.796 223.568 222.723C223.326 222.627 222.938 222.578 222.406 222.578C222.042 222.578 221.655 222.651 221.243 222.796C220.856 222.941 220.48 223.159 220.117 223.45C219.754 223.716 219.451 224.067 219.209 224.503C218.991 224.939 218.882 225.448 218.882 226.029V235.765C218.882 236.104 218.846 236.395 218.773 236.637C218.7 236.879 218.543 237.061 218.301 237.182C218.083 237.303 217.732 237.363 217.247 237.363ZM261.905 235.038C262.099 235.402 262.196 235.716 262.196 235.983C262.22 236.225 262.147 236.455 261.978 236.673C261.808 236.867 261.542 237.048 261.179 237.218C260.597 237.484 260.137 237.545 259.798 237.4C259.483 237.254 259.193 236.903 258.926 236.346L249.844 217.02L240.835 236.31C240.569 236.867 240.266 237.218 239.927 237.363C239.612 237.509 239.152 237.448 238.547 237.182C238.183 237.036 237.917 236.855 237.747 236.637C237.602 236.419 237.542 236.152 237.566 235.838C237.614 235.523 237.735 235.159 237.929 234.748L248.355 212.988C248.5 212.697 248.706 212.467 248.973 212.297C249.263 212.104 249.566 212.007 249.881 212.007C250.099 212.007 250.305 212.043 250.498 212.116C250.692 212.188 250.862 212.297 251.007 212.443C251.152 212.588 251.273 212.782 251.37 213.024L261.905 235.038ZM243.015 230.134L244.25 227.337H255.511L256.71 230.134H243.015ZM266.559 237.327C266.099 237.327 265.747 237.254 265.505 237.109C265.287 236.988 265.142 236.806 265.069 236.564C265.021 236.322 264.997 236.031 264.997 235.692V221.27C264.997 220.955 265.033 220.689 265.106 220.471C265.178 220.253 265.324 220.084 265.541 219.963C265.784 219.841 266.135 219.781 266.595 219.781C266.958 219.781 267.237 219.829 267.431 219.926C267.648 219.999 267.794 220.108 267.866 220.253C267.963 220.398 268.024 220.556 268.048 220.725C268.072 220.895 268.084 221.052 268.084 221.198L268.012 222.869C268.254 222.457 268.557 222.069 268.92 221.706C269.283 221.319 269.707 220.98 270.191 220.689C270.676 220.374 271.196 220.132 271.753 219.963C272.335 219.793 272.952 219.708 273.606 219.708C274.672 219.708 275.653 219.902 276.549 220.289C277.445 220.653 278.208 221.198 278.837 221.924C279.491 222.627 279.988 223.474 280.327 224.467C280.69 225.46 280.872 226.586 280.872 227.846V235.729C280.872 236.068 280.835 236.358 280.763 236.6C280.714 236.843 280.569 237.024 280.327 237.145C280.109 237.266 279.77 237.327 279.31 237.327C278.825 237.327 278.462 237.254 278.22 237.109C278.002 236.988 277.856 236.806 277.784 236.564C277.711 236.322 277.675 236.031 277.675 235.692V227.809C277.675 226.792 277.505 225.908 277.166 225.157C276.827 224.407 276.319 223.825 275.64 223.414C274.962 222.978 274.103 222.76 273.061 222.76C272.068 222.76 271.196 222.978 270.446 223.414C269.719 223.825 269.15 224.407 268.738 225.157C268.351 225.908 268.157 226.792 268.157 227.809V235.729C268.157 236.068 268.121 236.358 268.048 236.6C267.975 236.843 267.818 237.024 267.576 237.145C267.358 237.266 267.019 237.327 266.559 237.327ZM286.962 237.363C286.501 237.363 286.15 237.291 285.908 237.145C285.69 237.024 285.545 236.843 285.472 236.6C285.399 236.358 285.363 236.068 285.363 235.729V221.379C285.363 221.04 285.399 220.75 285.472 220.507C285.545 220.265 285.69 220.084 285.908 219.963C286.15 219.841 286.513 219.781 286.998 219.781C287.458 219.781 287.797 219.854 288.015 219.999C288.233 220.12 288.378 220.302 288.451 220.544C288.524 220.786 288.56 221.089 288.56 221.452V235.765C288.56 236.104 288.524 236.395 288.451 236.637C288.378 236.879 288.221 237.061 287.979 237.182C287.761 237.303 287.422 237.363 286.962 237.363ZM286.962 215.422C286.429 215.422 286.029 215.349 285.763 215.204C285.496 215.034 285.315 214.804 285.218 214.513C285.145 214.223 285.109 213.884 285.109 213.496C285.109 213.109 285.157 212.782 285.254 212.515C285.351 212.225 285.533 212.019 285.799 211.898C286.065 211.753 286.465 211.68 286.998 211.68C287.506 211.68 287.894 211.753 288.16 211.898C288.427 212.043 288.596 212.261 288.669 212.552C288.766 212.842 288.814 213.181 288.814 213.569C288.814 213.956 288.766 214.295 288.669 214.586C288.596 214.852 288.427 215.058 288.16 215.204C287.894 215.349 287.494 215.422 286.962 215.422ZM294.868 237.363C294.407 237.363 294.068 237.291 293.85 237.145C293.632 237 293.487 236.806 293.414 236.564C293.342 236.322 293.305 236.031 293.305 235.692V221.307C293.305 220.968 293.342 220.689 293.414 220.471C293.487 220.253 293.632 220.084 293.85 219.963C294.093 219.841 294.444 219.781 294.904 219.781C295.437 219.781 295.812 219.89 296.03 220.108C296.272 220.302 296.393 220.653 296.393 221.161L296.248 222.723C296.418 222.36 296.672 221.997 297.011 221.634C297.35 221.27 297.75 220.943 298.21 220.653C298.694 220.362 299.203 220.132 299.735 219.963C300.268 219.793 300.813 219.708 301.37 219.708C302.218 219.708 302.969 219.866 303.622 220.18C304.301 220.471 304.906 220.895 305.439 221.452C305.972 222.009 306.42 222.699 306.783 223.523C307.267 222.723 307.776 222.045 308.309 221.488C308.866 220.907 309.495 220.471 310.198 220.18C310.9 219.866 311.687 219.708 312.559 219.708C313.939 219.708 315.09 220.059 316.01 220.762C316.955 221.44 317.657 222.409 318.117 223.668C318.601 224.903 318.844 226.392 318.844 228.136V235.729C318.844 236.068 318.807 236.358 318.735 236.6C318.686 236.843 318.541 237.024 318.299 237.145C318.081 237.291 317.73 237.363 317.245 237.363C316.785 237.363 316.434 237.291 316.192 237.145C315.974 237 315.828 236.806 315.756 236.564C315.683 236.322 315.647 236.031 315.647 235.692V228.1C315.647 227.01 315.514 226.078 315.247 225.303C315.005 224.503 314.617 223.886 314.085 223.45C313.576 223.014 312.91 222.796 312.087 222.796C311.215 222.796 310.44 223.014 309.762 223.45C309.108 223.862 308.599 224.467 308.236 225.266C307.873 226.065 307.691 227.01 307.691 228.1V235.765C307.691 236.128 307.618 236.443 307.473 236.709C307.328 236.976 307.11 237.157 306.819 237.254C306.529 237.375 306.177 237.4 305.766 237.327C305.378 237.279 305.088 237.182 304.894 237.036C304.7 236.891 304.579 236.709 304.531 236.491C304.482 236.249 304.458 235.983 304.458 235.692V228.1C304.458 227.01 304.325 226.078 304.058 225.303C303.816 224.503 303.429 223.886 302.896 223.45C302.387 223.014 301.721 222.796 300.898 222.796C300.026 222.796 299.251 223.026 298.573 223.486C297.919 223.922 297.41 224.54 297.047 225.339C296.684 226.138 296.502 227.058 296.502 228.1V235.729C296.502 236.068 296.466 236.358 296.393 236.6C296.321 236.843 296.163 237.024 295.921 237.145C295.703 237.291 295.352 237.363 294.868 237.363ZM338.285 237.327C337.752 237.327 337.365 237.218 337.122 237C336.904 236.782 336.771 236.443 336.723 235.983L336.868 234.166C336.626 234.554 336.251 235.002 335.742 235.511C335.233 235.995 334.567 236.431 333.744 236.818C332.921 237.182 331.915 237.363 330.729 237.363C329.566 237.363 328.477 237.133 327.459 236.673C326.466 236.213 325.582 235.571 324.807 234.748C324.057 233.924 323.463 232.98 323.027 231.914C322.616 230.849 322.41 229.71 322.41 228.499C322.41 227.313 322.616 226.199 323.027 225.157C323.463 224.092 324.069 223.159 324.844 222.36C325.619 221.561 326.503 220.931 327.496 220.471C328.513 220.011 329.591 219.781 330.729 219.781C331.794 219.781 332.703 219.926 333.453 220.217C334.204 220.483 334.846 220.846 335.379 221.307C335.936 221.743 336.42 222.239 336.832 222.796L336.759 221.27C336.735 220.737 336.844 220.362 337.086 220.144C337.352 219.902 337.764 219.781 338.321 219.781C338.781 219.781 339.108 219.854 339.302 219.999C339.52 220.144 339.665 220.35 339.738 220.616C339.811 220.883 339.847 221.21 339.847 221.597V235.62C339.847 235.959 339.811 236.261 339.738 236.528C339.665 236.794 339.52 236.988 339.302 237.109C339.084 237.254 338.745 237.327 338.285 237.327ZM331.274 234.312C332.242 234.312 333.126 234.057 333.926 233.549C334.749 233.04 335.391 232.362 335.851 231.515C336.335 230.643 336.577 229.65 336.577 228.536C336.577 227.397 336.323 226.405 335.815 225.557C335.33 224.685 334.676 224.007 333.853 223.523C333.054 223.014 332.17 222.76 331.201 222.76C330.063 222.76 329.07 223.026 328.222 223.559C327.399 224.067 326.745 224.758 326.261 225.63C325.776 226.501 325.534 227.494 325.534 228.608C325.534 229.698 325.776 230.679 326.261 231.551C326.745 232.399 327.411 233.077 328.259 233.585C329.13 234.07 330.135 234.312 331.274 234.312ZM352.46 237.363C351.322 237.363 350.353 237.254 349.554 237.036C348.779 236.818 348.138 236.479 347.629 236.019C347.12 235.559 346.757 234.966 346.539 234.239C346.321 233.488 346.212 232.568 346.212 231.478V215.422C346.212 215.083 346.248 214.792 346.321 214.55C346.394 214.308 346.539 214.126 346.757 214.005C346.975 213.86 347.314 213.787 347.774 213.787C348.234 213.787 348.586 213.86 348.828 214.005C349.07 214.126 349.227 214.308 349.3 214.55C349.373 214.768 349.409 215.046 349.409 215.385V231.478C349.409 232.108 349.457 232.617 349.554 233.004C349.675 233.367 349.845 233.646 350.063 233.84C350.305 234.033 350.62 234.154 351.007 234.203C351.395 234.251 351.867 234.275 352.424 234.275C352.812 234.275 353.126 234.312 353.369 234.384C353.611 234.457 353.792 234.602 353.914 234.82C354.035 235.038 354.095 235.365 354.095 235.801C354.095 236.261 354.023 236.613 353.877 236.855C353.756 237.073 353.562 237.206 353.296 237.254C353.054 237.327 352.775 237.363 352.46 237.363ZM344.323 220.18L347.811 220.217L352.86 220.144C353.199 220.144 353.49 220.18 353.732 220.253C353.974 220.302 354.156 220.447 354.277 220.689C354.422 220.907 354.495 221.246 354.495 221.706C354.495 222.166 354.434 222.518 354.313 222.76C354.192 222.978 354.01 223.123 353.768 223.196C353.526 223.268 353.235 223.305 352.896 223.305L347.92 223.232L344.25 223.268C343.742 223.268 343.391 223.147 343.197 222.905C343.027 222.663 342.943 222.263 342.943 221.706C342.943 221.173 343.052 220.786 343.27 220.544C343.488 220.302 343.839 220.18 344.323 220.18ZM359.616 237.363C359.156 237.363 358.805 237.291 358.563 237.145C358.345 237.024 358.199 236.843 358.127 236.6C358.054 236.358 358.018 236.068 358.018 235.729V221.379C358.018 221.04 358.054 220.75 358.127 220.507C358.199 220.265 358.345 220.084 358.563 219.963C358.805 219.841 359.168 219.781 359.652 219.781C360.113 219.781 360.452 219.854 360.67 219.999C360.888 220.12 361.033 220.302 361.105 220.544C361.178 220.786 361.214 221.089 361.214 221.452V235.765C361.214 236.104 361.178 236.395 361.105 236.637C361.033 236.879 360.875 237.061 360.633 237.182C360.415 237.303 360.076 237.363 359.616 237.363ZM359.616 215.422C359.083 215.422 358.684 215.349 358.417 215.204C358.151 215.034 357.969 214.804 357.872 214.513C357.8 214.223 357.763 213.884 357.763 213.496C357.763 213.109 357.812 212.782 357.909 212.515C358.006 212.225 358.187 212.019 358.454 211.898C358.72 211.753 359.12 211.68 359.652 211.68C360.161 211.68 360.548 211.753 360.815 211.898C361.081 212.043 361.251 212.261 361.323 212.552C361.42 212.842 361.469 213.181 361.469 213.569C361.469 213.956 361.42 214.295 361.323 214.586C361.251 214.852 361.081 215.058 360.815 215.204C360.548 215.349 360.149 215.422 359.616 215.422ZM373.667 237.581C372.481 237.581 371.342 237.351 370.253 236.891C369.187 236.431 368.23 235.801 367.383 235.002C366.535 234.179 365.869 233.222 365.385 232.132C364.9 231.042 364.658 229.856 364.658 228.572C364.658 227.313 364.888 226.15 365.348 225.085C365.809 223.995 366.45 223.038 367.274 222.215C368.097 221.391 369.042 220.75 370.107 220.289C371.197 219.805 372.36 219.563 373.595 219.563C375.266 219.563 376.767 219.963 378.099 220.762C379.456 221.537 380.533 222.602 381.332 223.959C382.132 225.315 382.531 226.84 382.531 228.536C382.531 229.868 382.289 231.091 381.805 232.205C381.32 233.295 380.666 234.239 379.843 235.038C379.02 235.838 378.075 236.467 377.009 236.927C375.944 237.363 374.83 237.581 373.667 237.581ZM373.595 234.421C374.612 234.421 375.556 234.166 376.428 233.658C377.3 233.149 378.002 232.447 378.535 231.551C379.068 230.655 379.334 229.638 379.334 228.499C379.334 227.361 379.08 226.356 378.572 225.484C378.087 224.612 377.409 223.934 376.537 223.45C375.665 222.966 374.672 222.723 373.558 222.723C372.493 222.723 371.524 222.978 370.652 223.486C369.805 223.995 369.114 224.685 368.582 225.557C368.073 226.429 367.819 227.422 367.819 228.536C367.819 229.698 368.085 230.727 368.618 231.624C369.151 232.495 369.853 233.186 370.725 233.694C371.621 234.179 372.578 234.421 373.595 234.421ZM387.638 237.327C387.178 237.327 386.826 237.254 386.584 237.109C386.366 236.988 386.221 236.806 386.148 236.564C386.1 236.322 386.076 236.031 386.076 235.692V221.27C386.076 220.955 386.112 220.689 386.185 220.471C386.257 220.253 386.403 220.084 386.621 219.963C386.863 219.841 387.214 219.781 387.674 219.781C388.037 219.781 388.316 219.829 388.51 219.926C388.728 219.999 388.873 220.108 388.946 220.253C389.042 220.398 389.103 220.556 389.127 220.725C389.151 220.895 389.163 221.052 389.163 221.198L389.091 222.869C389.333 222.457 389.636 222.069 389.999 221.706C390.362 221.319 390.786 220.98 391.27 220.689C391.755 220.374 392.276 220.132 392.833 219.963C393.414 219.793 394.031 219.708 394.685 219.708C395.751 219.708 396.732 219.902 397.628 220.289C398.524 220.653 399.287 221.198 399.916 221.924C400.57 222.627 401.067 223.474 401.406 224.467C401.769 225.46 401.951 226.586 401.951 227.846V235.729C401.951 236.068 401.914 236.358 401.842 236.6C401.793 236.843 401.648 237.024 401.406 237.145C401.188 237.266 400.849 237.327 400.389 237.327C399.904 237.327 399.541 237.254 399.299 237.109C399.081 236.988 398.936 236.806 398.863 236.564C398.79 236.322 398.754 236.031 398.754 235.692V227.809C398.754 226.792 398.584 225.908 398.245 225.157C397.906 224.407 397.398 223.825 396.72 223.414C396.041 222.978 395.182 222.76 394.14 222.76C393.147 222.76 392.276 222.978 391.525 223.414C390.798 223.825 390.229 224.407 389.817 225.157C389.43 225.908 389.236 226.792 389.236 227.809V235.729C389.236 236.068 389.2 236.358 389.127 236.6C389.055 236.843 388.897 237.024 388.655 237.145C388.437 237.266 388.098 237.327 387.638 237.327Z" fill="#653392"/>
<path d="M231.526 42.0347C234.084 42.0347 236.176 42.4222 237.803 43.1972C239.47 43.9334 240.942 44.8053 242.221 45.8128C242.996 46.394 243.577 46.4715 243.965 46.0453C244.391 45.5803 244.681 44.5147 244.836 42.8485H246.173C246.096 44.3597 246.038 46.2003 245.999 48.3702C245.96 50.5014 245.941 53.3495 245.941 56.9144H244.604C244.41 55.1319 244.158 53.6207 243.848 52.3807C243.538 51.102 243.112 49.9783 242.57 49.0096C242.027 48.0408 241.252 47.169 240.245 46.394C239.276 45.4253 238.152 44.7084 236.873 44.2434C235.595 43.7784 234.258 43.5459 232.863 43.5459C230.77 43.5459 228.988 44.1078 227.516 45.2315C226.043 46.3165 224.842 47.8083 223.912 49.7071C223.021 51.6058 222.362 53.7563 221.936 56.1588C221.509 58.5225 221.296 60.983 221.296 63.5405C221.296 66.1367 221.509 68.636 221.936 71.0384C222.401 73.4021 223.098 75.5139 224.028 77.3739C224.997 79.2339 226.237 80.7063 227.748 81.7913C229.259 82.8763 231.042 83.4188 233.095 83.4188C234.374 83.4188 235.653 83.1863 236.932 82.7213C238.249 82.2175 239.373 81.5007 240.303 80.5707C241.814 79.4082 242.841 77.9745 243.383 76.2696C243.926 74.5258 244.333 72.2203 244.604 69.3528H245.941C245.941 73.034 245.96 76.0177 245.999 78.3039C246.038 80.5513 246.096 82.45 246.173 84H244.836C244.681 82.3338 244.41 81.2876 244.023 80.8613C243.674 80.4351 243.073 80.4932 242.221 81.0357C240.787 82.0432 239.257 82.9344 237.629 83.7094C236.04 84.4456 233.987 84.8137 231.468 84.8137C227.361 84.8137 223.757 83.9806 220.657 82.3144C217.596 80.6482 215.213 78.2458 213.508 75.1071C211.803 71.9684 210.95 68.1904 210.95 63.773C210.95 59.4331 211.822 55.6357 213.566 52.3807C215.348 49.1258 217.77 46.5878 220.831 44.7665C223.931 42.9453 227.496 42.0347 231.526 42.0347ZM258.093 84.6394V79.6989H252.978V61.8549H258.093V56.8563H275.763V61.8549H280.936V76.7345H286.109V84.6394H278.669V79.6989H275.763V84.6394H258.093ZM260.36 76.7345H273.496V64.7611H260.36V76.7345ZM291.462 84.6394V46.9171H298.844V84.6394H291.462ZM305.937 84.6394V46.9171H313.318V84.6394H305.937ZM332.047 84.6394V56.8563H349.716V61.8549H352.564V56.8563H365.177V61.8549H370.234V84.6394H362.91V64.7611H354.831V84.6394H347.45V64.7611H339.429V84.6394H332.047ZM388.461 56.388C391.512 56.388 393.904 57.2893 395.637 59.092C397.37 60.8947 398.237 63.8413 398.237 67.932H381.129L381.025 66.944H391.685C391.72 65.2453 391.616 63.6853 391.373 62.264C391.13 60.808 390.749 59.6467 390.229 58.78C389.709 57.9133 389.016 57.48 388.149 57.48C386.936 57.48 385.896 58.2427 385.029 59.768C384.197 61.2933 383.694 63.824 383.521 67.36L383.677 67.672C383.642 68.088 383.608 68.5213 383.573 68.972C383.573 69.4227 383.573 69.8907 383.573 70.376C383.573 72.768 383.902 74.7093 384.561 76.2C385.254 77.6907 386.121 78.7827 387.161 79.476C388.201 80.1347 389.258 80.464 390.333 80.464C391.061 80.464 391.806 80.36 392.569 80.152C393.366 79.9093 394.164 79.4933 394.961 78.904C395.758 78.28 396.504 77.4133 397.197 76.304L398.133 76.616C397.717 77.9333 397.058 79.216 396.157 80.464C395.256 81.712 394.112 82.7347 392.725 83.532C391.338 84.3293 389.674 84.728 387.733 84.728C385.376 84.728 383.296 84.2253 381.493 83.22C379.69 82.2147 378.269 80.6893 377.229 78.644C376.224 76.5987 375.721 73.9987 375.721 70.844C375.721 67.62 376.258 64.9333 377.333 62.784C378.442 60.6347 379.95 59.04 381.857 58C383.798 56.9253 386 56.388 388.461 56.388Z" fill="#653392"/>
<path d="M152.592 121.396V148.056C153.884 145.369 155.615 143.509 157.784 142.476C160.006 141.391 162.486 140.848 165.224 140.848C167.446 140.848 169.228 141.133 170.572 141.701C171.915 142.218 172.974 142.941 173.749 143.871C174.627 144.853 175.247 146.118 175.609 147.668C176.022 149.218 176.229 151.311 176.229 153.946V174.793C176.229 176.963 176.591 178.435 177.314 179.21C178.089 179.985 179.381 180.373 181.189 180.373V182C180.207 181.948 178.709 181.897 176.694 181.845C174.731 181.742 172.819 181.69 170.959 181.69C168.944 181.69 166.981 181.742 165.069 181.845C163.209 181.897 161.814 181.948 160.884 182V180.373C162.434 180.373 163.519 179.985 164.139 179.21C164.759 178.435 165.069 176.963 165.069 174.793V150.691C165.069 149.399 164.94 148.288 164.682 147.358C164.423 146.377 163.933 145.628 163.209 145.111C162.538 144.543 161.556 144.258 160.264 144.258C158.869 144.258 157.578 144.646 156.39 145.421C155.253 146.144 154.323 147.177 153.6 148.521C152.928 149.864 152.592 151.414 152.592 153.171V174.793C152.592 176.963 152.902 178.435 153.522 179.21C154.142 179.985 155.227 180.373 156.777 180.373V182C155.847 181.948 154.478 181.897 152.67 181.845C150.861 181.742 149.027 181.69 147.167 181.69C145.152 181.69 143.111 181.742 141.045 181.845C139.03 181.897 137.506 181.948 136.472 182V180.373C138.281 180.373 139.547 179.985 140.27 179.21C141.045 178.435 141.432 176.963 141.432 174.793V130.696C141.432 128.371 141.071 126.666 140.347 125.581C139.676 124.445 138.384 123.876 136.472 123.876V122.249C138.126 122.404 139.727 122.481 141.277 122.481C143.396 122.481 145.411 122.404 147.322 122.249C149.234 122.042 150.99 121.758 152.592 121.396ZM196.454 183.056V174.896H188.006V145.424H196.454V137.168H225.638V145.424H234.182V174.896H225.638V183.056H196.454ZM200.198 170H221.894V150.224H200.198V170ZM261.848 140.848C266.395 140.848 269.959 142.192 272.543 144.878C275.126 147.565 276.418 151.957 276.418 158.053H250.921L250.766 156.581H266.653C266.705 154.049 266.55 151.724 266.188 149.606C265.826 147.436 265.258 145.705 264.483 144.413C263.708 143.122 262.675 142.476 261.383 142.476C259.575 142.476 258.025 143.613 256.733 145.886C255.493 148.159 254.744 151.931 254.486 157.201L254.718 157.666C254.667 158.286 254.615 158.931 254.563 159.603C254.563 160.275 254.563 160.972 254.563 161.695C254.563 165.26 255.054 168.154 256.036 170.375C257.069 172.597 258.361 174.224 259.911 175.258C261.461 176.239 263.036 176.73 264.638 176.73C265.723 176.73 266.834 176.575 267.97 176.265C269.159 175.903 270.347 175.283 271.535 174.405C272.724 173.475 273.834 172.184 274.868 170.53L276.263 170.995C275.643 172.959 274.661 174.87 273.318 176.73C271.974 178.59 270.269 180.114 268.203 181.303C266.136 182.491 263.656 183.085 260.763 183.085C257.25 183.085 254.15 182.336 251.463 180.838C248.777 179.339 246.658 177.066 245.108 174.018C243.61 170.969 242.861 167.095 242.861 162.393C242.861 157.588 243.662 153.584 245.263 150.381C246.917 147.177 249.164 144.801 252.006 143.251C254.899 141.649 258.18 140.848 261.848 140.848ZM293.349 183.056V174.896H284.901V120.752H297.093V137.168H322.533V145.424H331.077V174.896H322.533V183.056H293.349ZM297.093 170H318.789V150.224H297.093V170ZM358.744 140.848C363.29 140.848 366.855 142.192 369.438 144.878C372.022 147.565 373.313 151.957 373.313 158.053H347.816L347.661 156.581H363.548C363.6 154.049 363.445 151.724 363.083 149.606C362.722 147.436 362.154 145.705 361.379 144.413C360.604 143.122 359.57 142.476 358.279 142.476C356.47 142.476 354.92 143.613 353.629 145.886C352.389 148.159 351.64 151.931 351.381 157.201L351.614 157.666C351.562 158.286 351.51 158.931 351.459 159.603C351.459 160.275 351.459 160.972 351.459 161.695C351.459 165.26 351.95 168.154 352.931 170.375C353.965 172.597 355.256 174.224 356.806 175.258C358.356 176.239 359.932 176.73 361.534 176.73C362.618 176.73 363.729 176.575 364.866 176.265C366.054 175.903 367.243 175.283 368.431 174.405C369.619 173.475 370.73 172.184 371.763 170.53L373.158 170.995C372.538 172.959 371.557 174.87 370.213 176.73C368.87 178.59 367.165 180.114 365.098 181.303C363.032 182.491 360.552 183.085 357.659 183.085C354.145 183.085 351.045 182.336 348.359 180.838C345.672 179.339 343.554 177.066 342.004 174.018C340.506 170.969 339.757 167.095 339.757 162.393C339.757 157.588 340.557 153.584 342.159 150.381C343.812 147.177 346.06 144.801 348.901 143.251C351.795 141.649 355.075 140.848 358.744 140.848ZM378.498 171.654C380.281 169.484 382.257 168.399 384.427 168.399C386.597 168.399 387.682 169.717 387.682 172.351C387.682 174.676 386.829 176.924 385.124 179.094C383.419 181.186 381.521 182.232 379.428 182.232C377.103 182.232 375.941 180.915 375.941 178.28C375.941 175.955 376.793 173.746 378.498 171.654ZM404.073 128.294C405.623 124.806 407.599 120.699 410.001 115.972C412.404 111.167 414.458 107.253 416.162 104.231L418.604 99.6969C420.309 96.5195 423.331 94.9308 427.671 94.9308C429.763 94.9308 430.81 95.512 430.81 96.6745C430.81 96.907 430.732 97.2557 430.577 97.7207C429.957 99.3482 428.64 101.828 426.625 105.161C424.687 108.415 422.014 112.678 418.604 117.948C415.194 123.218 412.559 127.403 410.699 130.502L393.378 158.751C392.603 159.603 391.363 160.029 389.658 160.029C388.728 160.029 388.263 159.681 388.263 158.983C388.263 158.673 388.379 158.286 388.612 157.821C395.354 145.963 400.508 136.121 404.073 128.294Z" fill="#653392"/>
<path d="M18.8022 182.177C12.3574 182.177 7.59775 180.995 4.52317 178.63C1.50772 176.265 0 173.397 0 170.027C0 167.425 0.91646 165.563 2.74938 164.439C4.64142 163.257 6.50391 162.666 8.33683 162.666C9.22372 162.666 10.1697 162.991 11.1749 163.641C12.2392 164.292 12.7713 165.326 12.7713 166.745C12.7713 167.869 12.2687 168.903 11.2636 169.85C10.2584 170.736 9.07591 171.18 7.716 171.18C6.94735 171.18 6.20827 171.121 5.49876 171.002C4.78924 170.884 4.13885 170.648 3.54759 170.293V170.736C3.54759 173.338 4.8188 175.496 7.36124 177.211C9.90368 178.866 13.333 179.694 17.6492 179.694C21.4333 179.694 25.04 179.044 28.4694 177.743C31.9578 176.442 35.7715 173.959 39.9103 170.293C44.1083 166.627 49.0454 161.276 54.7215 154.24C60.4568 147.204 67.4928 137.951 75.8296 126.48C72.5186 124.293 70.863 121.691 70.863 118.676C70.863 116.015 72.016 113.827 74.3219 112.113C76.6278 110.398 79.052 109.541 81.5945 109.541C82.7179 109.541 83.3683 109.688 83.5456 109.984C83.723 110.28 83.8117 110.427 83.8117 110.427C83.8117 110.782 83.4569 111.019 82.7474 111.137C80.0276 111.551 77.9582 112.615 76.5392 114.33C75.1201 116.044 74.4106 118.055 74.4106 120.361C74.4106 121.721 75.3862 123.051 77.3374 124.352L78.579 122.667C85.0238 113.975 91.1138 106.348 96.8491 99.7847C102.643 93.2217 108.379 87.3682 114.055 82.2242C119.79 77.021 125.821 72.2614 132.148 67.9451L135.784 65.5505C132.414 63.4811 128.097 61.9142 122.835 60.85C117.573 59.7857 111.335 59.2535 104.122 59.2535C92.8285 59.2535 82.1266 60.85 72.016 64.0428C61.9645 67.2356 53.0955 71.4336 45.4091 76.6367C37.7227 81.7807 31.7213 87.4273 27.4051 93.5764C23.148 99.6665 21.1081 105.638 21.2855 111.492C21.4629 116.34 22.8819 119.71 25.5426 121.602C28.2033 123.494 30.8049 124.44 33.3473 124.44C37.6044 124.44 41.8911 123.14 46.2073 120.538C50.5235 117.937 54.6328 114.596 58.5352 110.516C62.4966 106.436 66.0442 102.12 69.1779 97.5675C72.3116 93.0147 74.8245 88.7281 76.7165 84.7075C78.6677 80.6277 79.7911 77.3758 80.0867 74.9516C80.2641 72.9413 80.678 71.9362 81.3284 71.9362C81.9197 71.9362 82.2153 72.8526 82.2153 74.6855C82.3927 79.8295 81.3875 85.417 79.1998 91.4479C77.0122 97.4197 73.7602 103.096 69.444 108.476C65.1869 113.857 59.9838 118.262 53.8346 121.691C47.6855 125.12 40.7677 126.835 33.0812 126.835C29.7702 126.835 26.5478 125.475 23.4141 122.755C20.2804 120.036 18.6544 116.458 18.5361 112.024C18.3588 106.229 19.8665 100.642 23.0593 95.2615C26.2521 89.881 30.6866 84.8849 36.3627 80.273C42.0389 75.6611 48.5428 71.6405 55.8745 68.2112C63.2653 64.7819 71.07 62.1212 79.2885 60.2291C87.5071 58.278 95.7257 57.3024 103.944 57.3024C111.335 57.3024 117.928 57.8641 123.722 58.9875C129.516 60.1109 134.542 61.7073 138.799 63.7767C142.465 61.7073 145.688 60.1996 148.466 59.2535C151.305 58.3075 153.433 57.8345 154.852 57.8345C155.976 57.8345 156.567 58.1301 156.626 58.7214C156.626 59.0762 156.478 59.3718 156.182 59.6083C155.946 59.8448 155.325 60.0222 154.32 60.1404C150.418 60.9091 146.308 62.6829 141.992 65.4618C146.781 68.2999 150.358 71.6997 152.724 75.6611C155.089 79.6226 156.271 83.9093 156.271 88.5211C156.271 94.0199 154.675 99.3413 151.482 104.485C148.289 109.629 143.973 114.241 138.533 118.321C133.094 122.401 126.944 125.653 120.086 128.077C113.286 130.442 106.25 131.624 98.9776 131.624C94.3066 131.624 89.9904 131.21 86.0289 130.383C76.3322 143.39 67.4632 153.678 59.4221 161.247C51.3809 168.756 43.9901 174.136 37.2496 177.388C30.5684 180.581 24.4192 182.177 18.8022 182.177ZM98.6229 129.318C103.353 129.318 108.438 128.343 113.877 126.392C119.317 124.381 124.432 121.425 129.221 117.523C134.069 113.62 138.001 108.772 141.017 102.978C144.091 97.124 145.628 90.3836 145.628 82.7563C145.628 76.4889 143.352 71.4632 138.799 67.6791C132.354 72.3501 125.585 78.8835 118.489 87.2795C111.394 95.6754 103.885 105.431 95.9622 116.547C94.5431 118.616 93.1537 120.627 91.7938 122.578C90.4339 124.47 89.074 126.332 87.714 128.165C91.3799 128.934 95.0162 129.318 98.6229 129.318Z" fill="#653392"/>
</svg>
