<svg width="406" height="236" viewBox="0 0 406 236" fill="none" xmlns="http://www.w3.org/2000/svg">
<path d="M38.4675 227.363C37.9831 227.363 37.6199 227.291 37.3777 227.145C37.1597 227.024 37.0144 226.843 36.9417 226.6C36.8691 226.334 36.8328 226.031 36.8328 225.692V203.642C36.8328 203.303 36.8691 203.012 36.9417 202.77C37.0386 202.528 37.196 202.346 37.414 202.225C37.6562 202.079 38.0195 202.007 38.5038 202.007C38.9882 202.007 39.3393 202.079 39.5573 202.225C39.7995 202.346 39.9448 202.528 39.9932 202.77C40.0659 203.012 40.1022 203.315 40.1022 203.678V225.729C40.1022 226.068 40.0659 226.358 39.9932 226.6C39.9206 226.843 39.7632 227.024 39.521 227.145C39.303 227.291 38.9519 227.363 38.4675 227.363ZM58.4764 227.363C57.7257 227.363 57.0355 227.279 56.4058 227.109C55.8003 226.964 55.2675 226.734 54.8074 226.419C54.3715 226.104 53.9961 225.704 53.6812 225.22C53.3664 224.736 53.1363 224.179 52.991 223.549C52.8457 222.919 52.7731 222.217 52.7731 221.442L52.7367 203.242C52.7367 202.903 52.7731 202.612 52.8457 202.37C52.9184 202.128 53.0637 201.934 53.2816 201.789C53.5238 201.644 53.875 201.571 54.3351 201.571C54.8195 201.571 55.1707 201.644 55.3886 201.789C55.6308 201.91 55.7882 202.092 55.8609 202.334C55.9335 202.552 55.9699 202.83 55.9699 203.169V221.551C55.9699 221.987 56.0183 222.362 56.1152 222.677C56.212 222.992 56.3573 223.27 56.5511 223.513C56.7691 223.731 57.0355 223.888 57.3503 223.985C57.6651 224.082 58.0405 224.13 58.4764 224.13C58.8881 224.13 59.2151 224.179 59.4573 224.275C59.6995 224.372 59.869 224.542 59.9659 224.784C60.0869 225.026 60.1475 225.353 60.1475 225.765C60.1475 226.152 60.0869 226.467 59.9659 226.709C59.8448 226.927 59.6631 227.085 59.4209 227.182C59.1788 227.303 58.8639 227.363 58.4764 227.363ZM49.9032 227.363C49.1767 227.363 48.5107 227.279 47.9052 227.109C47.324 226.964 46.8154 226.746 46.3795 226.455C45.9435 226.14 45.5803 225.753 45.2896 225.293C44.999 224.808 44.7811 224.251 44.6357 223.622C44.5147 222.968 44.4541 222.241 44.4541 221.442V203.242C44.4541 202.903 44.4904 202.612 44.5631 202.37C44.6357 202.128 44.7811 201.934 44.999 201.789C45.2412 201.644 45.5924 201.571 46.0525 201.571C46.5127 201.571 46.8517 201.644 47.0697 201.789C47.3119 201.91 47.4693 202.092 47.5419 202.334C47.6388 202.552 47.6872 202.83 47.6872 203.169V221.551C47.6872 222.108 47.772 222.58 47.9415 222.968C48.1111 223.355 48.3653 223.646 48.7044 223.84C49.0435 224.033 49.4431 224.13 49.9032 224.13C50.2665 224.13 50.5571 224.179 50.7751 224.275C50.993 224.372 51.1504 224.542 51.2473 224.784C51.3442 225.026 51.3926 225.353 51.3926 225.765C51.3926 226.152 51.3321 226.467 51.211 226.709C51.1141 226.927 50.9567 227.085 50.7387 227.182C50.545 227.303 50.2665 227.363 49.9032 227.363ZM70.45 227.4C69.3844 227.4 68.3914 227.206 67.4711 226.818C66.5751 226.431 65.788 225.886 65.1099 225.184C64.4317 224.481 63.8989 223.634 63.5115 222.641C63.1482 221.648 62.9665 220.522 62.9665 219.262V211.379C62.9665 211.04 63.0029 210.75 63.0755 210.507C63.1482 210.265 63.2935 210.084 63.5115 209.963C63.7536 209.817 64.1048 209.745 64.5649 209.745C65.0251 209.745 65.3641 209.817 65.5821 209.963C65.8243 210.108 65.9817 210.302 66.0544 210.544C66.127 210.786 66.1633 211.077 66.1633 211.416V219.299C66.1633 220.292 66.3329 221.176 66.6719 221.951C67.011 222.701 67.5196 223.283 68.1977 223.694C68.9 224.106 69.7476 224.312 70.7406 224.312C71.7577 224.312 72.6296 224.106 73.3561 223.694C74.1069 223.283 74.676 222.701 75.0635 221.951C75.4752 221.176 75.6811 220.292 75.6811 219.299V211.379C75.6811 211.04 75.7174 210.75 75.7901 210.507C75.8627 210.265 76.008 210.084 76.226 209.963C76.4682 209.817 76.8193 209.745 77.2795 209.745C77.7396 209.745 78.0787 209.817 78.2967 209.963C78.5388 210.108 78.6841 210.302 78.7326 210.544C78.8052 210.786 78.8416 211.077 78.8416 211.416V225.838C78.8416 226.128 78.8052 226.395 78.7326 226.637C78.6841 226.855 78.5388 227.024 78.2967 227.145C78.0787 227.266 77.7396 227.327 77.2795 227.327C76.9404 227.327 76.6619 227.291 76.444 227.218C76.2502 227.145 76.1049 227.048 76.008 226.927C75.9112 226.806 75.8385 226.673 75.7901 226.528C75.7659 226.358 75.7537 226.189 75.7537 226.019L75.8991 224.457C75.6569 224.748 75.3663 225.063 75.0272 225.402C74.6881 225.741 74.2885 226.068 73.8284 226.382C73.3925 226.673 72.896 226.915 72.339 227.109C71.782 227.303 71.1523 227.4 70.45 227.4ZM89.0484 227.545C88.4672 227.545 87.8617 227.484 87.232 227.363C86.6024 227.242 85.9848 227.073 85.3793 226.855C84.7981 226.613 84.2774 226.334 83.8173 226.019C83.3813 225.704 83.0544 225.353 82.8364 224.966C82.7153 224.723 82.6427 224.506 82.6185 224.312C82.5943 224.094 82.6306 223.888 82.7275 223.694C82.8243 223.5 82.9696 223.307 83.1634 223.113C83.4056 222.822 83.6477 222.689 83.8899 222.713C84.1321 222.713 84.4348 222.871 84.7981 223.186C85.0645 223.355 85.3793 223.549 85.7426 223.767C86.1059 223.961 86.4813 224.142 86.8688 224.312C87.2563 224.457 87.6437 224.59 88.0312 224.711C88.4429 224.808 88.8425 224.857 89.23 224.857C90.3441 224.857 91.2401 224.651 91.9183 224.239C92.5964 223.803 92.9354 223.234 92.9354 222.532C92.9354 222.12 92.8507 221.769 92.6811 221.478C92.5116 221.188 92.2815 220.945 91.9909 220.752C91.7003 220.534 91.3733 220.352 91.0101 220.207C90.6468 220.061 90.2351 219.928 89.7749 219.807C89.339 219.662 88.9031 219.529 88.4672 219.408C87.8133 219.238 87.1715 219.044 86.5418 218.826C85.9121 218.608 85.343 218.33 84.8344 217.991C84.3259 217.628 83.9141 217.18 83.5993 216.647C83.2845 216.09 83.1271 215.387 83.1271 214.54C83.1271 213.547 83.3813 212.687 83.8899 211.961C84.3985 211.234 85.1129 210.677 86.0332 210.289C86.9535 209.878 88.0312 209.672 89.2664 209.672C89.7992 209.672 90.2956 209.708 90.7558 209.781C91.2159 209.854 91.6519 209.975 92.0636 210.144C92.4995 210.289 92.9112 210.471 93.2987 210.689C93.6862 210.883 94.0616 211.125 94.4248 211.416C94.8608 211.706 95.0908 212.021 95.1151 212.36C95.1393 212.699 95.0061 213.05 94.7155 213.414C94.4975 213.728 94.2553 213.934 93.9889 214.031C93.7225 214.104 93.4561 214.031 93.1897 213.813C92.8022 213.523 92.3905 213.268 91.9546 213.05C91.5187 212.832 91.0706 212.651 90.6105 212.505C90.1503 212.36 89.6781 212.287 89.1937 212.287C88.5883 212.287 88.0433 212.384 87.559 212.578C87.0988 212.748 86.7356 213.014 86.4692 213.377C86.227 213.716 86.1059 214.104 86.1059 214.54C86.1059 214.927 86.2028 215.242 86.3965 215.484C86.6145 215.726 86.8809 215.932 87.1957 216.102C87.5348 216.271 87.9223 216.429 88.3582 216.574C88.8183 216.695 89.2906 216.816 89.7749 216.937C90.4773 217.107 91.1917 217.313 91.9183 217.555C92.669 217.773 93.335 218.076 93.9163 218.463C94.5217 218.826 95.0061 219.323 95.3693 219.953C95.7568 220.558 95.9506 221.369 95.9506 222.386C95.9506 223.985 95.3209 225.244 94.0616 226.164C92.8022 227.085 91.1312 227.545 89.0484 227.545ZM107.588 227.363C106.45 227.363 105.481 227.254 104.682 227.036C103.907 226.818 103.265 226.479 102.757 226.019C102.248 225.559 101.885 224.966 101.667 224.239C101.449 223.488 101.34 222.568 101.34 221.478V205.422C101.34 205.083 101.376 204.792 101.449 204.55C101.522 204.308 101.667 204.126 101.885 204.005C102.103 203.86 102.442 203.787 102.902 203.787C103.362 203.787 103.713 203.86 103.956 204.005C104.198 204.126 104.355 204.308 104.428 204.55C104.501 204.768 104.537 205.046 104.537 205.385V221.478C104.537 222.108 104.585 222.617 104.682 223.004C104.803 223.367 104.973 223.646 105.191 223.84C105.433 224.033 105.748 224.154 106.135 224.203C106.523 224.251 106.995 224.275 107.552 224.275C107.94 224.275 108.254 224.312 108.497 224.384C108.739 224.457 108.92 224.602 109.041 224.82C109.163 225.038 109.223 225.365 109.223 225.801C109.223 226.261 109.15 226.613 109.005 226.855C108.884 227.073 108.69 227.206 108.424 227.254C108.182 227.327 107.903 227.363 107.588 227.363ZM99.451 210.18L102.938 210.217L107.988 210.144C108.327 210.144 108.618 210.18 108.86 210.253C109.102 210.302 109.284 210.447 109.405 210.689C109.55 210.907 109.623 211.246 109.623 211.706C109.623 212.166 109.562 212.518 109.441 212.76C109.32 212.978 109.138 213.123 108.896 213.196C108.654 213.268 108.363 213.305 108.024 213.305L103.047 213.232L99.3784 213.268C98.8698 213.268 98.5186 213.147 98.3249 212.905C98.1554 212.663 98.0706 212.263 98.0706 211.706C98.0706 211.173 98.1796 210.786 98.3976 210.544C98.6155 210.302 98.9667 210.18 99.451 210.18ZM114.562 227.363C114.102 227.363 113.751 227.291 113.509 227.145C113.291 227.024 113.146 226.843 113.073 226.6C113.024 226.334 113 226.031 113 225.692V211.379C113 211.016 113.037 210.713 113.109 210.471C113.182 210.229 113.327 210.059 113.545 209.963C113.763 209.841 114.114 209.781 114.599 209.781C115.035 209.781 115.362 209.841 115.58 209.963C115.822 210.059 115.979 210.217 116.052 210.435C116.149 210.629 116.197 210.859 116.197 211.125L116.052 212.215C116.221 211.9 116.415 211.585 116.633 211.27C116.875 210.955 117.166 210.677 117.505 210.435C117.868 210.168 118.292 209.95 118.776 209.781C119.285 209.611 119.902 209.527 120.629 209.527C120.992 209.527 121.331 209.563 121.646 209.636C121.985 209.684 122.3 209.769 122.591 209.89C122.906 210.011 123.172 210.156 123.39 210.326C123.608 210.471 123.777 210.641 123.898 210.834C124.044 211.004 124.116 211.21 124.116 211.452C124.116 211.985 123.947 212.445 123.608 212.832C123.269 213.196 122.918 213.377 122.554 213.377C122.24 213.377 122.009 213.341 121.864 213.268C121.719 213.171 121.574 213.075 121.428 212.978C121.307 212.881 121.125 212.796 120.883 212.723C120.641 212.627 120.254 212.578 119.721 212.578C119.358 212.578 118.97 212.651 118.558 212.796C118.171 212.941 117.795 213.159 117.432 213.45C117.069 213.716 116.766 214.067 116.524 214.503C116.306 214.939 116.197 215.448 116.197 216.029V225.765C116.197 226.104 116.161 226.395 116.088 226.637C116.015 226.879 115.858 227.061 115.616 227.182C115.398 227.303 115.047 227.363 114.562 227.363ZM141.057 227.327C140.524 227.327 140.137 227.218 139.894 227C139.676 226.782 139.543 226.443 139.495 225.983L139.64 224.166C139.398 224.554 139.023 225.002 138.514 225.511C138.005 225.995 137.339 226.431 136.516 226.818C135.693 227.182 134.687 227.363 133.501 227.363C132.338 227.363 131.248 227.133 130.231 226.673C129.238 226.213 128.354 225.571 127.579 224.748C126.829 223.924 126.235 222.98 125.799 221.914C125.388 220.849 125.182 219.71 125.182 218.499C125.182 217.313 125.388 216.199 125.799 215.157C126.235 214.092 126.841 213.159 127.616 212.36C128.391 211.561 129.275 210.931 130.268 210.471C131.285 210.011 132.363 209.781 133.501 209.781C134.566 209.781 135.475 209.926 136.225 210.217C136.976 210.483 137.618 210.846 138.151 211.307C138.708 211.743 139.192 212.239 139.604 212.796L139.531 211.27C139.507 210.737 139.616 210.362 139.858 210.144C140.124 209.902 140.536 209.781 141.093 209.781C141.553 209.781 141.88 209.854 142.074 209.999C142.292 210.144 142.437 210.35 142.51 210.616C142.583 210.883 142.619 211.21 142.619 211.597V225.62C142.619 225.959 142.583 226.261 142.51 226.528C142.437 226.794 142.292 226.988 142.074 227.109C141.856 227.254 141.517 227.327 141.057 227.327ZM134.046 224.312C135.014 224.312 135.898 224.057 136.698 223.549C137.521 223.04 138.163 222.362 138.623 221.515C139.107 220.643 139.349 219.65 139.349 218.536C139.349 217.397 139.095 216.405 138.587 215.557C138.102 214.685 137.448 214.007 136.625 213.523C135.826 213.014 134.942 212.76 133.973 212.76C132.835 212.76 131.842 213.026 130.994 213.559C130.171 214.067 129.517 214.758 129.033 215.63C128.548 216.501 128.306 217.494 128.306 218.608C128.306 219.698 128.548 220.679 129.033 221.551C129.517 222.399 130.183 223.077 131.031 223.585C131.902 224.07 132.907 224.312 134.046 224.312ZM155.232 227.363C154.094 227.363 153.125 227.254 152.326 227.036C151.551 226.818 150.909 226.479 150.401 226.019C149.892 225.559 149.529 224.966 149.311 224.239C149.093 223.488 148.984 222.568 148.984 221.478V205.422C148.984 205.083 149.02 204.792 149.093 204.55C149.166 204.308 149.311 204.126 149.529 204.005C149.747 203.86 150.086 203.787 150.546 203.787C151.006 203.787 151.358 203.86 151.6 204.005C151.842 204.126 151.999 204.308 152.072 204.55C152.145 204.768 152.181 205.046 152.181 205.385V221.478C152.181 222.108 152.229 222.617 152.326 223.004C152.447 223.367 152.617 223.646 152.835 223.84C153.077 224.033 153.392 224.154 153.779 224.203C154.167 224.251 154.639 224.275 155.196 224.275C155.584 224.275 155.898 224.312 156.141 224.384C156.383 224.457 156.564 224.602 156.686 224.82C156.807 225.038 156.867 225.365 156.867 225.801C156.867 226.261 156.795 226.613 156.649 226.855C156.528 227.073 156.334 227.206 156.068 227.254C155.826 227.327 155.547 227.363 155.232 227.363ZM147.095 210.18L150.583 210.217L155.632 210.144C155.971 210.144 156.262 210.18 156.504 210.253C156.746 210.302 156.928 210.447 157.049 210.689C157.194 210.907 157.267 211.246 157.267 211.706C157.267 212.166 157.206 212.518 157.085 212.76C156.964 212.978 156.782 213.123 156.54 213.196C156.298 213.268 156.007 213.305 155.668 213.305L150.692 213.232L147.022 213.268C146.514 213.268 146.163 213.147 145.969 212.905C145.799 212.663 145.715 212.263 145.715 211.706C145.715 211.173 145.824 210.786 146.042 210.544C146.26 210.302 146.611 210.18 147.095 210.18ZM168.564 227.581C167.377 227.581 166.239 227.351 165.149 226.891C164.083 226.431 163.127 225.801 162.279 225.002C161.431 224.179 160.765 223.222 160.281 222.132C159.797 221.042 159.555 219.856 159.555 218.572C159.555 217.313 159.785 216.15 160.245 215.085C160.705 213.995 161.347 213.038 162.17 212.215C162.994 211.391 163.938 210.75 165.004 210.289C166.093 209.805 167.256 209.563 168.491 209.563C170.162 209.563 171.664 209.963 172.996 210.762C174.352 211.537 175.43 212.602 176.229 213.959C177.028 215.315 177.428 216.84 177.428 218.536C177.428 219.868 177.185 221.091 176.701 222.205C176.217 223.295 175.563 224.239 174.739 225.038C173.916 225.838 172.971 226.467 171.906 226.927C170.84 227.363 169.726 227.581 168.564 227.581ZM168.491 224.421C169.508 224.421 170.453 224.166 171.325 223.658C172.196 223.149 172.899 222.447 173.432 221.551C173.964 220.655 174.231 219.638 174.231 218.499C174.231 217.361 173.976 216.356 173.468 215.484C172.984 214.612 172.305 213.934 171.434 213.45C170.562 212.966 169.569 212.723 168.455 212.723C167.389 212.723 166.42 212.978 165.549 213.486C164.701 213.995 164.011 214.685 163.478 215.557C162.969 216.429 162.715 217.422 162.715 218.536C162.715 219.698 162.981 220.727 163.514 221.624C164.047 222.495 164.749 223.186 165.621 223.694C166.517 224.179 167.474 224.421 168.491 224.421ZM182.534 227.363C182.074 227.363 181.723 227.291 181.481 227.145C181.263 227.024 181.117 226.843 181.045 226.6C180.996 226.334 180.972 226.031 180.972 225.692V211.379C180.972 211.016 181.008 210.713 181.081 210.471C181.154 210.229 181.299 210.059 181.517 209.963C181.735 209.841 182.086 209.781 182.57 209.781C183.006 209.781 183.333 209.841 183.551 209.963C183.793 210.059 183.951 210.217 184.024 210.435C184.12 210.629 184.169 210.859 184.169 211.125L184.024 212.215C184.193 211.9 184.387 211.585 184.605 211.27C184.847 210.955 185.138 210.677 185.477 210.435C185.84 210.168 186.264 209.95 186.748 209.781C187.257 209.611 187.874 209.527 188.601 209.527C188.964 209.527 189.303 209.563 189.618 209.636C189.957 209.684 190.272 209.769 190.562 209.89C190.877 210.011 191.144 210.156 191.362 210.326C191.58 210.471 191.749 210.641 191.87 210.834C192.016 211.004 192.088 211.21 192.088 211.452C192.088 211.985 191.919 212.445 191.58 212.832C191.241 213.196 190.889 213.377 190.526 213.377C190.211 213.377 189.981 213.341 189.836 213.268C189.691 213.171 189.545 213.075 189.4 212.978C189.279 212.881 189.097 212.796 188.855 212.723C188.613 212.627 188.225 212.578 187.693 212.578C187.329 212.578 186.942 212.651 186.53 212.796C186.143 212.941 185.767 213.159 185.404 213.45C185.041 213.716 184.738 214.067 184.496 214.503C184.278 214.939 184.169 215.448 184.169 216.029V225.765C184.169 226.104 184.132 226.395 184.06 226.637C183.987 226.879 183.83 227.061 183.588 227.182C183.37 227.303 183.018 227.363 182.534 227.363ZM211.638 227.436C209.991 227.436 208.586 227.182 207.424 226.673C206.261 226.14 205.365 225.365 204.736 224.348C204.13 223.331 203.828 222.108 203.828 220.679C203.828 219.904 204.009 219.129 204.372 218.354C204.736 217.555 205.256 216.756 205.935 215.957C206.637 215.133 207.472 214.334 208.441 213.559C208.102 212.857 207.787 212.154 207.497 211.452C207.23 210.725 207.024 210.023 206.879 209.345C206.734 208.643 206.661 207.977 206.661 207.347C206.661 206.112 206.94 205.046 207.497 204.15C208.054 203.254 208.841 202.564 209.858 202.079C210.875 201.595 212.086 201.353 213.491 201.353C214.702 201.353 215.743 201.583 216.615 202.043C217.511 202.479 218.201 203.097 218.685 203.896C219.17 204.695 219.412 205.652 219.412 206.766C219.412 207.299 219.242 207.868 218.903 208.473C218.564 209.054 218.08 209.672 217.45 210.326C216.821 210.955 216.094 211.621 215.271 212.324C214.447 213.002 213.551 213.716 212.582 214.467C213.236 215.436 213.902 216.356 214.58 217.228C215.283 218.076 215.997 218.851 216.724 219.553C217.474 220.231 218.189 220.812 218.867 221.297C219.812 220.522 220.465 219.807 220.829 219.153C221.192 218.475 221.446 217.797 221.592 217.119C221.664 216.828 221.834 216.586 222.1 216.392C222.367 216.174 222.815 216.065 223.444 216.065C223.856 216.065 224.159 216.138 224.352 216.283C224.57 216.405 224.716 216.574 224.788 216.792C224.885 216.986 224.922 217.18 224.897 217.373C224.849 218.294 224.522 219.214 223.917 220.134C223.335 221.054 222.524 221.987 221.483 222.931C221.87 223.052 222.209 223.161 222.5 223.258C222.815 223.355 223.166 223.428 223.553 223.476C223.941 223.5 224.437 223.513 225.043 223.513C225.6 223.513 225.987 223.634 226.205 223.876C226.447 224.094 226.568 224.493 226.568 225.075C226.568 225.777 226.459 226.249 226.241 226.491C226.024 226.734 225.612 226.855 225.006 226.855C224.328 226.855 223.626 226.806 222.899 226.709C222.197 226.613 221.495 226.443 220.792 226.201C220.09 225.959 219.364 225.632 218.613 225.22C217.959 225.68 217.244 226.08 216.469 226.419C215.694 226.758 214.895 227.012 214.072 227.182C213.273 227.351 212.461 227.436 211.638 227.436ZM211.638 224.348C212.461 224.348 213.248 224.239 213.999 224.021C214.75 223.803 215.38 223.525 215.888 223.186C215.476 222.798 215.016 222.362 214.508 221.878C213.999 221.369 213.491 220.824 212.982 220.243C212.473 219.662 211.965 219.044 211.456 218.39C210.948 217.737 210.463 217.071 210.003 216.392C209.495 216.877 209.059 217.313 208.695 217.7C208.332 218.063 208.042 218.403 207.824 218.717C207.606 219.008 207.448 219.323 207.351 219.662C207.254 219.977 207.206 220.316 207.206 220.679C207.206 221.43 207.388 222.084 207.751 222.641C208.114 223.198 208.623 223.622 209.277 223.912C209.955 224.203 210.742 224.348 211.638 224.348ZM211.093 211.888C211.892 211.282 212.607 210.737 213.236 210.253C213.89 209.745 214.435 209.272 214.871 208.836C215.307 208.4 215.646 208.001 215.888 207.638C216.13 207.274 216.251 206.959 216.251 206.693C216.251 205.894 215.997 205.252 215.489 204.768C214.98 204.259 214.302 204.005 213.454 204.005C212.704 204.005 212.05 204.138 211.493 204.404C210.936 204.647 210.5 204.998 210.185 205.458C209.894 205.918 209.749 206.475 209.749 207.129C209.749 207.541 209.797 207.977 209.894 208.437C209.991 208.873 210.136 209.369 210.33 209.926C210.524 210.483 210.778 211.137 211.093 211.888ZM241.71 227.363C241.298 227.363 240.971 227.291 240.729 227.145C240.511 227 240.353 226.806 240.256 226.564C240.16 226.298 240.111 226.007 240.111 225.692V203.605C240.111 203.29 240.147 203.012 240.22 202.77C240.317 202.528 240.486 202.334 240.729 202.188C240.971 202.043 241.31 201.971 241.746 201.971L248.902 202.007C250.694 202.007 252.317 202.31 253.77 202.915C255.247 203.496 256.507 204.332 257.548 205.422C258.59 206.511 259.389 207.831 259.946 209.381C260.503 210.931 260.781 212.651 260.781 214.54C260.781 216.501 260.503 218.269 259.946 219.844C259.389 221.418 258.577 222.762 257.512 223.876C256.47 224.99 255.211 225.85 253.734 226.455C252.257 227.061 250.61 227.363 248.793 227.363H241.71ZM243.381 224.057H248.902C250.67 224.057 252.196 223.682 253.48 222.931C254.763 222.156 255.756 221.079 256.458 219.698C257.161 218.294 257.512 216.635 257.512 214.721C257.512 212.784 257.161 211.113 256.458 209.708C255.756 208.304 254.751 207.226 253.443 206.475C252.16 205.7 250.634 205.313 248.866 205.313H243.381V224.057ZM273.473 227.545C272.02 227.545 270.725 227.303 269.586 226.818C268.448 226.334 267.479 225.68 266.68 224.857C265.905 224.009 265.312 223.04 264.9 221.951C264.489 220.861 264.283 219.686 264.283 218.427C264.283 216.756 264.67 215.266 265.445 213.959C266.22 212.651 267.286 211.621 268.642 210.871C270.022 210.096 271.597 209.708 273.364 209.708C274.575 209.708 275.653 209.902 276.598 210.289C277.566 210.653 278.39 211.149 279.068 211.779C279.746 212.409 280.267 213.111 280.63 213.886C280.993 214.661 281.175 215.436 281.175 216.211C281.175 217.446 280.884 218.318 280.303 218.826C279.722 219.311 279.007 219.553 278.16 219.553H267.661C267.637 220.619 267.915 221.539 268.497 222.314C269.102 223.065 269.853 223.646 270.749 224.057C271.669 224.469 272.589 224.675 273.51 224.675C274.188 224.675 274.769 224.639 275.253 224.566C275.738 224.493 276.162 224.397 276.525 224.275C276.888 224.154 277.203 224.033 277.469 223.912C277.736 223.791 277.966 223.67 278.16 223.549C278.378 223.428 278.583 223.343 278.777 223.295C278.995 223.246 279.201 223.27 279.395 223.367C279.613 223.44 279.782 223.597 279.903 223.84C280.049 224.033 280.146 224.215 280.194 224.384C280.242 224.554 280.267 224.736 280.267 224.929C280.267 225.268 279.976 225.644 279.395 226.055C278.814 226.467 278.002 226.818 276.961 227.109C275.944 227.4 274.781 227.545 273.473 227.545ZM267.661 217.41H276.779C277.239 217.41 277.578 217.349 277.796 217.228C278.039 217.107 278.16 216.78 278.16 216.247C278.16 215.569 277.954 214.964 277.542 214.431C277.13 213.874 276.561 213.426 275.835 213.087C275.132 212.748 274.321 212.578 273.401 212.578C272.335 212.578 271.354 212.796 270.458 213.232C269.586 213.644 268.896 214.213 268.388 214.939C267.879 215.666 267.637 216.489 267.661 217.41ZM290.658 227.545C290.076 227.545 289.471 227.484 288.841 227.363C288.212 227.242 287.594 227.073 286.989 226.855C286.407 226.613 285.887 226.334 285.427 226.019C284.991 225.704 284.664 225.353 284.446 224.966C284.325 224.723 284.252 224.506 284.228 224.312C284.204 224.094 284.24 223.888 284.337 223.694C284.434 223.5 284.579 223.307 284.773 223.113C285.015 222.822 285.257 222.689 285.499 222.713C285.741 222.713 286.044 222.871 286.407 223.186C286.674 223.355 286.989 223.549 287.352 223.767C287.715 223.961 288.091 224.142 288.478 224.312C288.866 224.457 289.253 224.59 289.641 224.711C290.052 224.808 290.452 224.857 290.839 224.857C291.953 224.857 292.849 224.651 293.528 224.239C294.206 223.803 294.545 223.234 294.545 222.532C294.545 222.12 294.46 221.769 294.29 221.478C294.121 221.188 293.891 220.945 293.6 220.752C293.31 220.534 292.983 220.352 292.619 220.207C292.256 220.061 291.844 219.928 291.384 219.807C290.948 219.662 290.512 219.529 290.076 219.408C289.423 219.238 288.781 219.044 288.151 218.826C287.521 218.608 286.952 218.33 286.444 217.991C285.935 217.628 285.523 217.18 285.209 216.647C284.894 216.09 284.736 215.387 284.736 214.54C284.736 213.547 284.991 212.687 285.499 211.961C286.008 211.234 286.722 210.677 287.643 210.289C288.563 209.878 289.641 209.672 290.876 209.672C291.408 209.672 291.905 209.708 292.365 209.781C292.825 209.854 293.261 209.975 293.673 210.144C294.109 210.289 294.52 210.471 294.908 210.689C295.295 210.883 295.671 211.125 296.034 211.416C296.47 211.706 296.7 212.021 296.724 212.36C296.749 212.699 296.615 213.05 296.325 213.414C296.107 213.728 295.865 213.934 295.598 214.031C295.332 214.104 295.065 214.031 294.799 213.813C294.412 213.523 294 213.268 293.564 213.05C293.128 212.832 292.68 212.651 292.22 212.505C291.76 212.36 291.287 212.287 290.803 212.287C290.198 212.287 289.653 212.384 289.168 212.578C288.708 212.748 288.345 213.014 288.078 213.377C287.836 213.716 287.715 214.104 287.715 214.54C287.715 214.927 287.812 215.242 288.006 215.484C288.224 215.726 288.49 215.932 288.805 216.102C289.144 216.271 289.532 216.429 289.967 216.574C290.428 216.695 290.9 216.816 291.384 216.937C292.087 217.107 292.801 217.313 293.528 217.555C294.278 217.773 294.944 218.076 295.526 218.463C296.131 218.826 296.615 219.323 296.979 219.953C297.366 220.558 297.56 221.369 297.56 222.386C297.56 223.985 296.93 225.244 295.671 226.164C294.412 227.085 292.74 227.545 290.658 227.545ZM303.263 227.363C302.803 227.363 302.451 227.291 302.209 227.145C301.991 227.024 301.846 226.843 301.773 226.6C301.701 226.358 301.664 226.068 301.664 225.729V211.379C301.664 211.04 301.701 210.75 301.773 210.507C301.846 210.265 301.991 210.084 302.209 209.963C302.451 209.841 302.815 209.781 303.299 209.781C303.759 209.781 304.098 209.854 304.316 209.999C304.534 210.12 304.679 210.302 304.752 210.544C304.825 210.786 304.861 211.089 304.861 211.452V225.765C304.861 226.104 304.825 226.395 304.752 226.637C304.679 226.879 304.522 227.061 304.28 227.182C304.062 227.303 303.723 227.363 303.263 227.363ZM303.263 205.422C302.73 205.422 302.33 205.349 302.064 205.204C301.797 205.034 301.616 204.804 301.519 204.513C301.446 204.223 301.41 203.884 301.41 203.496C301.41 203.109 301.458 202.782 301.555 202.515C301.652 202.225 301.834 202.019 302.1 201.898C302.367 201.753 302.766 201.68 303.299 201.68C303.808 201.68 304.195 201.753 304.461 201.898C304.728 202.043 304.897 202.261 304.97 202.552C305.067 202.842 305.115 203.181 305.115 203.569C305.115 203.956 305.067 204.295 304.97 204.586C304.897 204.852 304.728 205.058 304.461 205.204C304.195 205.349 303.795 205.422 303.263 205.422ZM317.017 234.483C316.17 234.483 315.358 234.387 314.583 234.193C313.808 233.999 313.13 233.745 312.549 233.43C311.968 233.115 311.508 232.776 311.169 232.413C310.83 232.049 310.66 231.71 310.66 231.396C310.66 231.153 310.696 230.948 310.769 230.778C310.842 230.633 310.951 230.475 311.096 230.306C311.338 230.064 311.532 229.894 311.677 229.797C311.823 229.7 312.016 229.652 312.259 229.652C312.501 229.652 312.743 229.749 312.985 229.943C313.227 230.16 313.518 230.391 313.857 230.633C314.22 230.899 314.656 231.129 315.165 231.323C315.697 231.541 316.351 231.65 317.126 231.65C317.926 231.65 318.64 231.529 319.27 231.287C319.899 231.044 320.444 230.681 320.904 230.197C321.365 229.712 321.716 229.119 321.958 228.417C322.2 227.739 322.321 226.964 322.321 226.092L322.249 210.98C322.273 210.52 322.406 210.193 322.648 209.999C322.915 209.805 323.326 209.708 323.883 209.708C324.343 209.708 324.67 209.781 324.864 209.926C325.082 210.047 325.215 210.229 325.264 210.471C325.336 210.689 325.373 210.968 325.373 211.307V226.346C325.373 227.63 325.167 228.768 324.755 229.761C324.343 230.778 323.762 231.638 323.011 232.34C322.261 233.042 321.377 233.575 320.359 233.939C319.342 234.302 318.228 234.483 317.017 234.483ZM316.908 226.964C315.746 226.964 314.668 226.758 313.675 226.346C312.707 225.91 311.847 225.305 311.096 224.53C310.369 223.755 309.8 222.847 309.389 221.805C309.001 220.764 308.807 219.626 308.807 218.39C308.807 217.155 309.001 216.017 309.389 214.976C309.8 213.934 310.369 213.026 311.096 212.251C311.823 211.476 312.67 210.883 313.639 210.471C314.632 210.035 315.71 209.817 316.872 209.817C317.938 209.817 318.906 210.023 319.778 210.435C320.65 210.846 321.389 211.44 321.994 212.215C322.624 212.966 323.096 213.862 323.411 214.903C323.726 215.944 323.883 217.107 323.883 218.39C323.883 220.134 323.605 221.648 323.048 222.931C322.491 224.215 321.691 225.208 320.65 225.91C319.609 226.613 318.361 226.964 316.908 226.964ZM317.09 223.985C318.059 223.985 318.931 223.743 319.706 223.258C320.481 222.774 321.098 222.108 321.558 221.26C322.018 220.413 322.249 219.432 322.249 218.318C322.249 217.228 322.018 216.271 321.558 215.448C321.098 214.6 320.468 213.946 319.669 213.486C318.894 213.026 318.01 212.796 317.017 212.796C316.024 212.796 315.14 213.026 314.365 213.486C313.591 213.946 312.985 214.6 312.549 215.448C312.137 216.271 311.932 217.24 311.932 218.354C311.932 219.468 312.15 220.449 312.585 221.297C313.021 222.12 313.627 222.774 314.402 223.258C315.177 223.743 316.073 223.985 317.09 223.985ZM331.746 227.327C331.285 227.327 330.934 227.254 330.692 227.109C330.474 226.988 330.329 226.806 330.256 226.564C330.208 226.322 330.183 226.031 330.183 225.692V211.27C330.183 210.955 330.22 210.689 330.292 210.471C330.365 210.253 330.51 210.084 330.728 209.963C330.971 209.841 331.322 209.781 331.782 209.781C332.145 209.781 332.424 209.829 332.617 209.926C332.835 209.999 332.981 210.108 333.053 210.253C333.15 210.398 333.211 210.556 333.235 210.725C333.259 210.895 333.271 211.052 333.271 211.198L333.199 212.869C333.441 212.457 333.744 212.069 334.107 211.706C334.47 211.319 334.894 210.98 335.378 210.689C335.863 210.374 336.383 210.132 336.94 209.963C337.522 209.793 338.139 209.708 338.793 209.708C339.859 209.708 340.839 209.902 341.736 210.289C342.632 210.653 343.394 211.198 344.024 211.924C344.678 212.627 345.175 213.474 345.514 214.467C345.877 215.46 346.058 216.586 346.058 217.846V225.729C346.058 226.068 346.022 226.358 345.95 226.6C345.901 226.843 345.756 227.024 345.514 227.145C345.296 227.266 344.957 227.327 344.496 227.327C344.012 227.327 343.649 227.254 343.407 227.109C343.189 226.988 343.043 226.806 342.971 226.564C342.898 226.322 342.862 226.031 342.862 225.692V217.809C342.862 216.792 342.692 215.908 342.353 215.157C342.014 214.407 341.505 213.825 340.827 213.414C340.149 212.978 339.29 212.76 338.248 212.76C337.255 212.76 336.383 212.978 335.633 213.414C334.906 213.825 334.337 214.407 333.925 215.157C333.538 215.908 333.344 216.792 333.344 217.809V225.729C333.344 226.068 333.308 226.358 333.235 226.6C333.162 226.843 333.005 227.024 332.763 227.145C332.545 227.266 332.206 227.327 331.746 227.327ZM358.651 227.545C357.198 227.545 355.902 227.303 354.764 226.818C353.626 226.334 352.657 225.68 351.858 224.857C351.083 224.009 350.489 223.04 350.078 221.951C349.666 220.861 349.46 219.686 349.46 218.427C349.46 216.756 349.848 215.266 350.623 213.959C351.398 212.651 352.463 211.621 353.819 210.871C355.2 210.096 356.774 209.708 358.542 209.708C359.753 209.708 360.831 209.902 361.775 210.289C362.744 210.653 363.567 211.149 364.245 211.779C364.923 212.409 365.444 213.111 365.807 213.886C366.171 214.661 366.352 215.436 366.352 216.211C366.352 217.446 366.062 218.318 365.48 218.826C364.899 219.311 364.185 219.553 363.337 219.553H352.839C352.814 220.619 353.093 221.539 353.674 222.314C354.28 223.065 355.03 223.646 355.926 224.057C356.847 224.469 357.767 224.675 358.687 224.675C359.365 224.675 359.947 224.639 360.431 224.566C360.915 224.493 361.339 224.397 361.702 224.275C362.066 224.154 362.381 224.033 362.647 223.912C362.913 223.791 363.143 223.67 363.337 223.549C363.555 223.428 363.761 223.343 363.955 223.295C364.173 223.246 364.379 223.27 364.572 223.367C364.79 223.44 364.96 223.597 365.081 223.84C365.226 224.033 365.323 224.215 365.371 224.384C365.42 224.554 365.444 224.736 365.444 224.929C365.444 225.268 365.154 225.644 364.572 226.055C363.991 226.467 363.18 226.818 362.138 227.109C361.121 227.4 359.959 227.545 358.651 227.545ZM352.839 217.41H361.957C362.417 217.41 362.756 217.349 362.974 217.228C363.216 217.107 363.337 216.78 363.337 216.247C363.337 215.569 363.131 214.964 362.72 214.431C362.308 213.874 361.739 213.426 361.012 213.087C360.31 212.748 359.499 212.578 358.578 212.578C357.513 212.578 356.532 212.796 355.636 213.232C354.764 213.644 354.074 214.213 353.565 214.939C353.057 215.666 352.814 216.489 352.839 217.41ZM371.585 227.363C371.125 227.363 370.774 227.291 370.531 227.145C370.313 227.024 370.168 226.843 370.095 226.6C370.047 226.334 370.023 226.031 370.023 225.692V211.379C370.023 211.016 370.059 210.713 370.132 210.471C370.204 210.229 370.35 210.059 370.568 209.963C370.786 209.841 371.137 209.781 371.621 209.781C372.057 209.781 372.384 209.841 372.602 209.963C372.844 210.059 373.002 210.217 373.074 210.435C373.171 210.629 373.22 210.859 373.22 211.125L373.074 212.215C373.244 211.9 373.438 211.585 373.656 211.27C373.898 210.955 374.188 210.677 374.527 210.435C374.891 210.168 375.314 209.95 375.799 209.781C376.307 209.611 376.925 209.527 377.652 209.527C378.015 209.527 378.354 209.563 378.669 209.636C379.008 209.684 379.323 209.769 379.613 209.89C379.928 210.011 380.194 210.156 380.412 210.326C380.63 210.471 380.8 210.641 380.921 210.834C381.066 211.004 381.139 211.21 381.139 211.452C381.139 211.985 380.969 212.445 380.63 212.832C380.291 213.196 379.94 213.377 379.577 213.377C379.262 213.377 379.032 213.341 378.887 213.268C378.741 213.171 378.596 213.075 378.451 212.978C378.33 212.881 378.148 212.796 377.906 212.723C377.664 212.627 377.276 212.578 376.743 212.578C376.38 212.578 375.993 212.651 375.581 212.796C375.193 212.941 374.818 213.159 374.455 213.45C374.091 213.716 373.789 214.067 373.547 214.503C373.329 214.939 373.22 215.448 373.22 216.029V225.765C373.22 226.104 373.183 226.395 373.111 226.637C373.038 226.879 372.881 227.061 372.638 227.182C372.42 227.303 372.069 227.363 371.585 227.363Z" fill="#653392"/>
<path d="M214.073 38.4745C216.421 38.4745 218.342 38.8302 219.836 39.5417C221.366 40.2176 222.717 41.018 223.891 41.9429C224.603 42.4765 225.136 42.5476 225.492 42.1563C225.883 41.7294 226.15 40.7512 226.293 39.2215H227.52C227.449 40.6089 227.395 42.2986 227.36 44.2907C227.324 46.2472 227.306 48.8618 227.306 52.1345H226.079C225.901 50.4982 225.67 49.1108 225.385 47.9725C225.101 46.7986 224.71 45.767 224.212 44.8776C223.713 43.9883 223.002 43.1879 222.077 42.4765C221.188 41.5871 220.156 40.929 218.982 40.5022C217.808 40.0753 216.581 39.8618 215.3 39.8618C213.38 39.8618 211.743 40.3777 210.391 41.4093C209.04 42.4053 207.937 43.7749 207.083 45.5179C206.265 47.261 205.66 49.2353 205.269 51.4408C204.878 53.6108 204.682 55.8697 204.682 58.2175C204.682 60.6009 204.878 62.8953 205.269 65.1009C205.696 67.2708 206.336 69.2095 207.19 70.917C208.079 72.6245 209.218 73.9763 210.605 74.9723C211.992 75.9684 213.629 76.4664 215.514 76.4664C216.688 76.4664 217.862 76.253 219.036 75.8261C220.245 75.3636 221.277 74.7055 222.13 73.8518C223.518 72.7846 224.461 71.4684 224.959 69.9032C225.457 68.3024 225.83 66.1858 226.079 63.5534H227.306C227.306 66.9329 227.324 69.672 227.36 71.7708C227.395 73.834 227.449 75.5771 227.52 77H226.293C226.15 75.4704 225.901 74.5099 225.546 74.1186C225.225 73.7273 224.674 73.7806 223.891 74.2787C222.575 75.2036 221.17 76.0217 219.676 76.7332C218.217 77.4091 216.332 77.747 214.02 77.747C210.249 77.747 206.941 76.9822 204.095 75.4526C201.285 73.9229 199.097 71.7174 197.532 68.836C195.967 65.9546 195.184 62.4862 195.184 58.4309C195.184 54.4468 195.984 50.9606 197.585 47.9725C199.222 44.9844 201.445 42.6543 204.255 40.9824C207.101 39.3105 210.374 38.4745 214.073 38.4745ZM238.463 77.587V73.0514H233.767V56.6701H238.463V52.0812H254.684V56.6701H259.433V70.3301H264.182V77.587H257.352V73.0514H254.684V77.587H238.463ZM240.544 70.3301H252.603V59.338H240.544V70.3301ZM269.097 77.587V42.9567H275.873V77.587H269.097ZM282.385 77.587V42.9567H289.161V77.587H282.385ZM306.355 77.587V52.0812H322.576V56.6701H325.19V52.0812H336.769V56.6701H341.412V77.587H334.688V59.338H327.271V77.587H320.495V59.338H313.131V77.587H306.355ZM358.144 51.6513C360.945 51.6513 363.141 52.4787 364.732 54.1336C366.324 55.7885 367.119 58.4937 367.119 62.249H351.413L351.318 61.342H361.104C361.136 59.7826 361.041 58.3505 360.818 57.0456C360.595 55.709 360.245 54.6428 359.768 53.8472C359.29 53.0516 358.654 52.6538 357.858 52.6538C356.744 52.6538 355.789 53.3539 354.994 54.7542C354.23 56.1545 353.769 58.4778 353.609 61.7239L353.753 62.0104C353.721 62.3923 353.689 62.7901 353.657 63.2038C353.657 63.6175 353.657 64.0472 353.657 64.4927C353.657 66.6887 353.959 68.4709 354.564 69.8393C355.201 71.2078 355.996 72.2103 356.951 72.8468C357.906 73.4515 358.876 73.7538 359.863 73.7538C360.531 73.7538 361.216 73.6584 361.916 73.4674C362.648 73.2446 363.38 72.8627 364.112 72.3217C364.844 71.7489 365.528 70.9532 366.164 69.9348L367.024 70.2212C366.642 71.4306 366.037 72.6081 365.21 73.7538C364.382 74.8995 363.332 75.8384 362.059 76.5704C360.786 77.3023 359.258 77.6683 357.476 77.6683C355.312 77.6683 353.403 77.2069 351.748 76.2839C350.093 75.361 348.788 73.9607 347.833 72.083C346.91 70.2053 346.449 67.8184 346.449 64.9224C346.449 61.9626 346.942 59.4962 347.929 57.523C348.947 55.5499 350.331 54.0859 352.082 53.1311C353.864 52.1446 355.885 51.6513 358.144 51.6513Z" fill="#653392"/>
<path d="M152.592 110.396V137.056C153.884 134.369 155.615 132.509 157.784 131.476C160.006 130.391 162.486 129.848 165.224 129.848C167.446 129.848 169.228 130.133 170.572 130.701C171.915 131.218 172.974 131.941 173.749 132.871C174.627 133.853 175.247 135.118 175.609 136.668C176.022 138.218 176.229 140.311 176.229 142.946V163.793C176.229 165.963 176.591 167.435 177.314 168.21C178.089 168.985 179.381 169.373 181.189 169.373V171C180.207 170.948 178.709 170.897 176.694 170.845C174.731 170.742 172.819 170.69 170.959 170.69C168.944 170.69 166.981 170.742 165.069 170.845C163.209 170.897 161.814 170.948 160.884 171V169.373C162.434 169.373 163.519 168.985 164.139 168.21C164.759 167.435 165.069 165.963 165.069 163.793V139.691C165.069 138.399 164.94 137.288 164.682 136.358C164.423 135.377 163.933 134.628 163.209 134.111C162.538 133.543 161.556 133.258 160.264 133.258C158.869 133.258 157.578 133.646 156.39 134.421C155.253 135.144 154.323 136.177 153.6 137.521C152.928 138.864 152.592 140.414 152.592 142.171V163.793C152.592 165.963 152.902 167.435 153.522 168.21C154.142 168.985 155.227 169.373 156.777 169.373V171C155.847 170.948 154.478 170.897 152.67 170.845C150.861 170.742 149.027 170.69 147.167 170.69C145.152 170.69 143.111 170.742 141.045 170.845C139.03 170.897 137.506 170.948 136.472 171V169.373C138.281 169.373 139.547 168.985 140.27 168.21C141.045 167.435 141.432 165.963 141.432 163.793V119.696C141.432 117.371 141.071 115.666 140.347 114.581C139.676 113.445 138.384 112.876 136.472 112.876V111.249C138.126 111.404 139.727 111.481 141.277 111.481C143.396 111.481 145.411 111.404 147.322 111.249C149.234 111.042 150.99 110.758 152.592 110.396ZM196.454 172.056V163.896H188.006V134.424H196.454V126.168H225.638V134.424H234.182V163.896H225.638V172.056H196.454ZM200.198 159H221.894V139.224H200.198V159ZM261.848 129.848C266.395 129.848 269.959 131.192 272.543 133.878C275.126 136.565 276.418 140.957 276.418 147.053H250.921L250.766 145.581H266.653C266.705 143.049 266.55 140.724 266.188 138.606C265.826 136.436 265.258 134.705 264.483 133.413C263.708 132.122 262.675 131.476 261.383 131.476C259.575 131.476 258.025 132.613 256.733 134.886C255.493 137.159 254.744 140.931 254.486 146.201L254.718 146.666C254.667 147.286 254.615 147.931 254.563 148.603C254.563 149.275 254.563 149.972 254.563 150.695C254.563 154.26 255.054 157.154 256.036 159.375C257.069 161.597 258.361 163.224 259.911 164.258C261.461 165.239 263.036 165.73 264.638 165.73C265.723 165.73 266.834 165.575 267.97 165.265C269.159 164.903 270.347 164.283 271.535 163.405C272.724 162.475 273.834 161.184 274.868 159.53L276.263 159.995C275.643 161.959 274.661 163.87 273.318 165.73C271.974 167.59 270.269 169.114 268.203 170.303C266.136 171.491 263.656 172.085 260.763 172.085C257.25 172.085 254.15 171.336 251.463 169.838C248.777 168.339 246.658 166.066 245.108 163.018C243.61 159.969 242.861 156.095 242.861 151.393C242.861 146.588 243.662 142.584 245.263 139.381C246.917 136.177 249.164 133.801 252.006 132.251C254.899 130.649 258.18 129.848 261.848 129.848ZM293.349 172.056V163.896H284.901V109.752H297.093V126.168H322.533V134.424H331.077V163.896H322.533V172.056H293.349ZM297.093 159H318.789V139.224H297.093V159ZM358.744 129.848C363.29 129.848 366.855 131.192 369.438 133.878C372.022 136.565 373.313 140.957 373.313 147.053H347.816L347.661 145.581H363.548C363.6 143.049 363.445 140.724 363.083 138.606C362.722 136.436 362.154 134.705 361.379 133.413C360.604 132.122 359.57 131.476 358.279 131.476C356.47 131.476 354.92 132.613 353.629 134.886C352.389 137.159 351.64 140.931 351.381 146.201L351.614 146.666C351.562 147.286 351.51 147.931 351.459 148.603C351.459 149.275 351.459 149.972 351.459 150.695C351.459 154.26 351.95 157.154 352.931 159.375C353.965 161.597 355.256 163.224 356.806 164.258C358.356 165.239 359.932 165.73 361.534 165.73C362.618 165.73 363.729 165.575 364.866 165.265C366.054 164.903 367.243 164.283 368.431 163.405C369.619 162.475 370.73 161.184 371.763 159.53L373.158 159.995C372.538 161.959 371.557 163.87 370.213 165.73C368.87 167.59 367.165 169.114 365.098 170.303C363.032 171.491 360.552 172.085 357.659 172.085C354.145 172.085 351.045 171.336 348.359 169.838C345.672 168.339 343.554 166.066 342.004 163.018C340.506 159.969 339.757 156.095 339.757 151.393C339.757 146.588 340.557 142.584 342.159 139.381C343.812 136.177 346.06 133.801 348.901 132.251C351.795 130.649 355.075 129.848 358.744 129.848Z" fill="#653392"/>
<path d="M18.8022 172.177C12.3574 172.177 7.59775 170.995 4.52317 168.63C1.50772 166.265 0 163.397 0 160.027C0 157.425 0.91646 155.563 2.74938 154.439C4.64142 153.257 6.50391 152.666 8.33683 152.666C9.22372 152.666 10.1697 152.991 11.1749 153.641C12.2392 154.292 12.7713 155.326 12.7713 156.745C12.7713 157.869 12.2687 158.903 11.2636 159.85C10.2584 160.736 9.07591 161.18 7.716 161.18C6.94735 161.18 6.20827 161.121 5.49876 161.002C4.78924 160.884 4.13885 160.648 3.54759 160.293V160.736C3.54759 163.338 4.8188 165.496 7.36124 167.211C9.90368 168.866 13.333 169.694 17.6492 169.694C21.4333 169.694 25.04 169.044 28.4694 167.743C31.9578 166.442 35.7715 163.959 39.9103 160.293C44.1083 156.627 49.0454 151.276 54.7215 144.24C60.4568 137.204 67.4928 127.951 75.8296 116.48C72.5186 114.293 70.863 111.691 70.863 108.676C70.863 106.015 72.016 103.827 74.3219 102.113C76.6278 100.398 79.052 99.5406 81.5945 99.5406C82.7179 99.5406 83.3683 99.6884 83.5456 99.984C83.723 100.28 83.8117 100.427 83.8117 100.427C83.8117 100.782 83.4569 101.019 82.7474 101.137C80.0276 101.551 77.9582 102.615 76.5392 104.33C75.1201 106.044 74.4106 108.055 74.4106 110.361C74.4106 111.721 75.3862 113.051 77.3374 114.352L78.579 112.667C85.0238 103.975 91.1138 96.3477 96.8491 89.7847C102.643 83.2217 108.379 77.3682 114.055 72.2242C119.79 67.021 125.821 62.2614 132.148 57.9451L135.784 55.5505C132.414 53.4811 128.097 51.9142 122.835 50.85C117.573 49.7857 111.335 49.2535 104.122 49.2535C92.8285 49.2535 82.1266 50.85 72.016 54.0428C61.9645 57.2356 53.0955 61.4336 45.4091 66.6367C37.7227 71.7807 31.7213 77.4273 27.4051 83.5764C23.148 89.6665 21.1081 95.6382 21.2855 101.492C21.4629 106.34 22.8819 109.71 25.5426 111.602C28.2033 113.494 30.8049 114.44 33.3473 114.44C37.6044 114.44 41.8911 113.14 46.2073 110.538C50.5235 107.937 54.6328 104.596 58.5352 100.516C62.4966 96.4364 66.0442 92.1202 69.1779 87.5675C72.3116 83.0147 74.8245 78.7281 76.7165 74.7075C78.6677 70.6277 79.7911 67.3758 80.0867 64.9516C80.2641 62.9413 80.678 61.9362 81.3284 61.9362C81.9197 61.9362 82.2153 62.8526 82.2153 64.6855C82.3927 69.8295 81.3875 75.417 79.1998 81.4479C77.0122 87.4197 73.7602 93.0958 69.444 98.4763C65.1869 103.857 59.9838 108.262 53.8346 111.691C47.6855 115.12 40.7677 116.835 33.0812 116.835C29.7702 116.835 26.5478 115.475 23.4141 112.755C20.2804 110.036 18.6544 106.458 18.5361 102.024C18.3588 96.2295 19.8665 90.642 23.0593 85.2615C26.2521 79.881 30.6866 74.8849 36.3627 70.273C42.0389 65.6611 48.5428 61.6405 55.8745 58.2112C63.2653 54.7819 71.07 52.1212 79.2885 50.2291C87.5071 48.278 95.7257 47.3024 103.944 47.3024C111.335 47.3024 117.928 47.8641 123.722 48.9875C129.516 50.1109 134.542 51.7073 138.799 53.7767C142.465 51.7073 145.688 50.1996 148.466 49.2535C151.305 48.3075 153.433 47.8345 154.852 47.8345C155.976 47.8345 156.567 48.1301 156.626 48.7214C156.626 49.0762 156.478 49.3718 156.182 49.6083C155.946 49.8448 155.325 50.0222 154.32 50.1404C150.418 50.9091 146.308 52.6829 141.992 55.4618C146.781 58.2999 150.358 61.6997 152.724 65.6611C155.089 69.6226 156.271 73.9093 156.271 78.5211C156.271 84.0199 154.675 89.3413 151.482 94.4853C148.289 99.6293 143.973 104.241 138.533 108.321C133.094 112.401 126.944 115.653 120.086 118.077C113.286 120.442 106.25 121.624 98.9776 121.624C94.3066 121.624 89.9904 121.21 86.0289 120.383C76.3322 133.39 67.4632 143.678 59.4221 151.247C51.3809 158.756 43.9901 164.136 37.2496 167.388C30.5684 170.581 24.4192 172.177 18.8022 172.177ZM98.6229 119.318C103.353 119.318 108.438 118.343 113.877 116.392C119.317 114.381 124.432 111.425 129.221 107.523C134.069 103.62 138.001 98.7719 141.017 92.9775C144.091 87.124 145.628 80.3836 145.628 72.7563C145.628 66.4889 143.352 61.4632 138.799 57.6791C132.354 62.3501 125.585 68.8835 118.489 77.2795C111.394 85.6754 103.885 95.4313 95.9622 106.547C94.5431 108.616 93.1537 110.627 91.7938 112.578C90.4339 114.47 89.074 116.332 87.714 118.165C91.3799 118.934 95.0162 119.318 98.6229 119.318Z" fill="#653392"/>
</svg>
