<svg width="406" height="236" viewBox="0 0 406 236" fill="none" xmlns="http://www.w3.org/2000/svg">
<path d="M108.67 227.363C107.532 227.363 106.563 227.254 105.764 227.036C104.989 226.818 104.347 226.479 103.839 226.019C103.33 225.559 102.967 224.966 102.749 224.239C102.531 223.488 102.422 222.568 102.422 221.478V205.422C102.422 205.083 102.458 204.792 102.531 204.55C102.604 204.308 102.749 204.126 102.967 204.005C103.185 203.86 103.524 203.787 103.984 203.787C104.444 203.787 104.795 203.86 105.038 204.005C105.28 204.126 105.437 204.308 105.51 204.55C105.583 204.768 105.619 205.046 105.619 205.385V221.478C105.619 222.108 105.667 222.617 105.764 223.004C105.885 223.367 106.055 223.646 106.273 223.84C106.515 224.033 106.83 224.154 107.217 224.203C107.605 224.251 108.077 224.275 108.634 224.275C109.022 224.275 109.336 224.312 109.579 224.384C109.821 224.457 110.002 224.602 110.123 224.82C110.245 225.038 110.305 225.365 110.305 225.801C110.305 226.261 110.232 226.613 110.087 226.855C109.966 227.073 109.772 227.206 109.506 227.254C109.264 227.327 108.985 227.363 108.67 227.363ZM100.533 210.18L104.02 210.217L109.07 210.144C109.409 210.144 109.7 210.18 109.942 210.253C110.184 210.302 110.366 210.447 110.487 210.689C110.632 210.907 110.705 211.246 110.705 211.706C110.705 212.166 110.644 212.518 110.523 212.76C110.402 212.978 110.22 213.123 109.978 213.196C109.736 213.268 109.445 213.305 109.106 213.305L104.129 213.232L100.46 213.268C99.9518 213.268 99.6007 213.147 99.4069 212.905C99.2374 212.663 99.1526 212.263 99.1526 211.706C99.1526 211.173 99.2616 210.786 99.4796 210.544C99.6975 210.302 100.049 210.18 100.533 210.18ZM115.39 227.363C114.93 227.363 114.579 227.291 114.337 227.145C114.094 227.024 113.937 226.843 113.864 226.6C113.816 226.334 113.792 226.031 113.792 225.692V203.315C113.792 202.976 113.828 202.685 113.901 202.443C113.973 202.201 114.131 202.019 114.373 201.898C114.615 201.753 114.966 201.68 115.426 201.68C115.911 201.68 116.262 201.753 116.48 201.898C116.722 202.019 116.867 202.201 116.916 202.443C116.988 202.685 117.025 202.988 117.025 203.351V212.324C117.606 211.646 118.308 211.04 119.132 210.507C119.979 209.975 121.009 209.708 122.22 209.708C123.648 209.708 124.92 210.047 126.034 210.725C127.172 211.379 128.068 212.312 128.722 213.523C129.4 214.733 129.739 216.174 129.739 217.846V225.729C129.739 226.068 129.703 226.358 129.63 226.6C129.558 226.843 129.412 227.024 129.194 227.145C128.976 227.291 128.625 227.363 128.141 227.363C127.681 227.363 127.33 227.291 127.087 227.145C126.845 227.024 126.688 226.843 126.615 226.6C126.543 226.334 126.506 226.031 126.506 225.692V217.809C126.506 216.792 126.337 215.908 125.998 215.157C125.659 214.407 125.15 213.825 124.472 213.414C123.818 213.002 122.982 212.796 121.965 212.796C120.585 212.796 119.447 213.196 118.551 213.995C117.679 214.77 117.17 215.811 117.025 217.119V225.729C117.025 226.068 116.988 226.358 116.916 226.6C116.843 226.843 116.686 227.024 116.444 227.145C116.226 227.291 115.874 227.363 115.39 227.363ZM141.769 227.545C140.316 227.545 139.021 227.303 137.882 226.818C136.744 226.334 135.775 225.68 134.976 224.857C134.201 224.009 133.608 223.04 133.196 221.951C132.784 220.861 132.579 219.686 132.579 218.427C132.579 216.756 132.966 215.266 133.741 213.959C134.516 212.651 135.582 211.621 136.938 210.871C138.318 210.096 139.892 209.708 141.66 209.708C142.871 209.708 143.949 209.902 144.894 210.289C145.862 210.653 146.686 211.149 147.364 211.779C148.042 212.409 148.563 213.111 148.926 213.886C149.289 214.661 149.471 215.436 149.471 216.211C149.471 217.446 149.18 218.318 148.599 218.826C148.018 219.311 147.303 219.553 146.456 219.553H135.957C135.933 220.619 136.211 221.539 136.793 222.314C137.398 223.065 138.149 223.646 139.045 224.057C139.965 224.469 140.885 224.675 141.806 224.675C142.484 224.675 143.065 224.639 143.549 224.566C144.034 224.493 144.458 224.397 144.821 224.275C145.184 224.154 145.499 224.033 145.765 223.912C146.032 223.791 146.262 223.67 146.456 223.549C146.674 223.428 146.879 223.343 147.073 223.295C147.291 223.246 147.497 223.27 147.691 223.367C147.909 223.44 148.078 223.597 148.199 223.84C148.345 224.033 148.441 224.215 148.49 224.384C148.538 224.554 148.563 224.736 148.563 224.929C148.563 225.268 148.272 225.644 147.691 226.055C147.109 226.467 146.298 226.818 145.257 227.109C144.24 227.4 143.077 227.545 141.769 227.545ZM135.957 217.41H145.075C145.535 217.41 145.874 217.349 146.092 217.228C146.334 217.107 146.456 216.78 146.456 216.247C146.456 215.569 146.25 214.964 145.838 214.431C145.426 213.874 144.857 213.426 144.131 213.087C143.428 212.748 142.617 212.578 141.697 212.578C140.631 212.578 139.65 212.796 138.754 213.232C137.882 213.644 137.192 214.213 136.684 214.939C136.175 215.666 135.933 216.489 135.957 217.41ZM163.963 227.363C163.479 227.363 163.116 227.291 162.874 227.145C162.656 227.024 162.51 226.843 162.438 226.6C162.365 226.334 162.329 226.031 162.329 225.692V203.642C162.329 203.303 162.365 203.012 162.438 202.77C162.534 202.528 162.692 202.346 162.91 202.225C163.152 202.079 163.515 202.007 164 202.007C164.484 202.007 164.835 202.079 165.053 202.225C165.295 202.346 165.441 202.528 165.489 202.77C165.562 203.012 165.598 203.315 165.598 203.678V225.729C165.598 226.068 165.562 226.358 165.489 226.6C165.416 226.843 165.259 227.024 165.017 227.145C164.799 227.291 164.448 227.363 163.963 227.363ZM183.972 227.363C183.222 227.363 182.531 227.279 181.902 227.109C181.296 226.964 180.763 226.734 180.303 226.419C179.867 226.104 179.492 225.704 179.177 225.22C178.862 224.736 178.632 224.179 178.487 223.549C178.342 222.919 178.269 222.217 178.269 221.442L178.233 203.242C178.233 202.903 178.269 202.612 178.342 202.37C178.414 202.128 178.56 201.934 178.777 201.789C179.02 201.644 179.371 201.571 179.831 201.571C180.315 201.571 180.666 201.644 180.884 201.789C181.127 201.91 181.284 202.092 181.357 202.334C181.429 202.552 181.466 202.83 181.466 203.169V221.551C181.466 221.987 181.514 222.362 181.611 222.677C181.708 222.992 181.853 223.27 182.047 223.513C182.265 223.731 182.531 223.888 182.846 223.985C183.161 224.082 183.536 224.13 183.972 224.13C184.384 224.13 184.711 224.179 184.953 224.275C185.195 224.372 185.365 224.542 185.462 224.784C185.583 225.026 185.643 225.353 185.643 225.765C185.643 226.152 185.583 226.467 185.462 226.709C185.341 226.927 185.159 227.085 184.917 227.182C184.675 227.303 184.36 227.363 183.972 227.363ZM175.399 227.363C174.672 227.363 174.006 227.279 173.401 227.109C172.82 226.964 172.311 226.746 171.875 226.455C171.439 226.14 171.076 225.753 170.785 225.293C170.495 224.808 170.277 224.251 170.132 223.622C170.01 222.968 169.95 222.241 169.95 221.442V203.242C169.95 202.903 169.986 202.612 170.059 202.37C170.132 202.128 170.277 201.934 170.495 201.789C170.737 201.644 171.088 201.571 171.548 201.571C172.008 201.571 172.348 201.644 172.566 201.789C172.808 201.91 172.965 202.092 173.038 202.334C173.135 202.552 173.183 202.83 173.183 203.169V221.551C173.183 222.108 173.268 222.58 173.437 222.968C173.607 223.355 173.861 223.646 174.2 223.84C174.539 224.033 174.939 224.13 175.399 224.13C175.762 224.13 176.053 224.179 176.271 224.275C176.489 224.372 176.646 224.542 176.743 224.784C176.84 225.026 176.888 225.353 176.888 225.765C176.888 226.152 176.828 226.467 176.707 226.709C176.61 226.927 176.453 227.085 176.235 227.182C176.041 227.303 175.762 227.363 175.399 227.363ZM195.946 227.4C194.88 227.4 193.887 227.206 192.967 226.818C192.071 226.431 191.284 225.886 190.606 225.184C189.928 224.481 189.395 223.634 189.007 222.641C188.644 221.648 188.462 220.522 188.462 219.262V211.379C188.462 211.04 188.499 210.75 188.571 210.507C188.644 210.265 188.789 210.084 189.007 209.963C189.249 209.817 189.601 209.745 190.061 209.745C190.521 209.745 190.86 209.817 191.078 209.963C191.32 210.108 191.478 210.302 191.55 210.544C191.623 210.786 191.659 211.077 191.659 211.416V219.299C191.659 220.292 191.829 221.176 192.168 221.951C192.507 222.701 193.015 223.283 193.694 223.694C194.396 224.106 195.243 224.312 196.236 224.312C197.254 224.312 198.125 224.106 198.852 223.694C199.603 223.283 200.172 222.701 200.559 221.951C200.971 221.176 201.177 220.292 201.177 219.299V211.379C201.177 211.04 201.213 210.75 201.286 210.507C201.359 210.265 201.504 210.084 201.722 209.963C201.964 209.817 202.315 209.745 202.775 209.745C203.235 209.745 203.575 209.817 203.792 209.963C204.035 210.108 204.18 210.302 204.228 210.544C204.301 210.786 204.337 211.077 204.337 211.416V225.838C204.337 226.128 204.301 226.395 204.228 226.637C204.18 226.855 204.035 227.024 203.792 227.145C203.575 227.266 203.235 227.327 202.775 227.327C202.436 227.327 202.158 227.291 201.94 227.218C201.746 227.145 201.601 227.048 201.504 226.927C201.407 226.806 201.334 226.673 201.286 226.528C201.262 226.358 201.25 226.189 201.25 226.019L201.395 224.457C201.153 224.748 200.862 225.063 200.523 225.402C200.184 225.741 199.784 226.068 199.324 226.382C198.888 226.673 198.392 226.915 197.835 227.109C197.278 227.303 196.648 227.4 195.946 227.4ZM214.544 227.545C213.963 227.545 213.358 227.484 212.728 227.363C212.098 227.242 211.481 227.073 210.875 226.855C210.294 226.613 209.773 226.334 209.313 226.019C208.877 225.704 208.55 225.353 208.332 224.966C208.211 224.723 208.139 224.506 208.114 224.312C208.09 224.094 208.126 223.888 208.223 223.694C208.32 223.5 208.465 223.307 208.659 223.113C208.901 222.822 209.144 222.689 209.386 222.713C209.628 222.713 209.931 222.871 210.294 223.186C210.56 223.355 210.875 223.549 211.238 223.767C211.602 223.961 211.977 224.142 212.365 224.312C212.752 224.457 213.14 224.59 213.527 224.711C213.939 224.808 214.338 224.857 214.726 224.857C215.84 224.857 216.736 224.651 217.414 224.239C218.092 223.803 218.431 223.234 218.431 222.532C218.431 222.12 218.346 221.769 218.177 221.478C218.007 221.188 217.777 220.945 217.487 220.752C217.196 220.534 216.869 220.352 216.506 220.207C216.143 220.061 215.731 219.928 215.271 219.807C214.835 219.662 214.399 219.529 213.963 219.408C213.309 219.238 212.667 219.044 212.038 218.826C211.408 218.608 210.839 218.33 210.33 217.991C209.822 217.628 209.41 217.18 209.095 216.647C208.78 216.09 208.623 215.387 208.623 214.54C208.623 213.547 208.877 212.687 209.386 211.961C209.894 211.234 210.609 210.677 211.529 210.289C212.449 209.878 213.527 209.672 214.762 209.672C215.295 209.672 215.791 209.708 216.252 209.781C216.712 209.854 217.148 209.975 217.559 210.144C217.995 210.289 218.407 210.471 218.795 210.689C219.182 210.883 219.557 211.125 219.921 211.416C220.357 211.706 220.587 212.021 220.611 212.36C220.635 212.699 220.502 213.05 220.211 213.414C219.993 213.728 219.751 213.934 219.485 214.031C219.218 214.104 218.952 214.031 218.686 213.813C218.298 213.523 217.886 213.268 217.45 213.05C217.014 212.832 216.566 212.651 216.106 212.505C215.646 212.36 215.174 212.287 214.69 212.287C214.084 212.287 213.539 212.384 213.055 212.578C212.595 212.748 212.231 213.014 211.965 213.377C211.723 213.716 211.602 214.104 211.602 214.54C211.602 214.927 211.699 215.242 211.892 215.484C212.11 215.726 212.377 215.932 212.692 216.102C213.031 216.271 213.418 216.429 213.854 216.574C214.314 216.695 214.786 216.816 215.271 216.937C215.973 217.107 216.688 217.313 217.414 217.555C218.165 217.773 218.831 218.076 219.412 218.463C220.018 218.826 220.502 219.323 220.865 219.953C221.253 220.558 221.446 221.369 221.446 222.386C221.446 223.985 220.817 225.244 219.557 226.164C218.298 227.085 216.627 227.545 214.544 227.545ZM233.084 227.363C231.946 227.363 230.977 227.254 230.178 227.036C229.403 226.818 228.761 226.479 228.253 226.019C227.744 225.559 227.381 224.966 227.163 224.239C226.945 223.488 226.836 222.568 226.836 221.478V205.422C226.836 205.083 226.872 204.792 226.945 204.55C227.018 204.308 227.163 204.126 227.381 204.005C227.599 203.86 227.938 203.787 228.398 203.787C228.858 203.787 229.209 203.86 229.451 204.005C229.694 204.126 229.851 204.308 229.924 204.55C229.996 204.768 230.033 205.046 230.033 205.385V221.478C230.033 222.108 230.081 222.617 230.178 223.004C230.299 223.367 230.469 223.646 230.687 223.84C230.929 224.033 231.244 224.154 231.631 224.203C232.019 224.251 232.491 224.275 233.048 224.275C233.435 224.275 233.75 224.312 233.992 224.384C234.235 224.457 234.416 224.602 234.537 224.82C234.658 225.038 234.719 225.365 234.719 225.801C234.719 226.261 234.646 226.613 234.501 226.855C234.38 227.073 234.186 227.206 233.92 227.254C233.678 227.327 233.399 227.363 233.084 227.363ZM224.947 210.18L228.434 210.217L233.484 210.144C233.823 210.144 234.113 210.18 234.356 210.253C234.598 210.302 234.779 210.447 234.901 210.689C235.046 210.907 235.119 211.246 235.119 211.706C235.119 212.166 235.058 212.518 234.937 212.76C234.816 212.978 234.634 213.123 234.392 213.196C234.15 213.268 233.859 213.305 233.52 213.305L228.543 213.232L224.874 213.268C224.366 213.268 224.014 213.147 223.821 212.905C223.651 212.663 223.566 212.263 223.566 211.706C223.566 211.173 223.675 210.786 223.893 210.544C224.111 210.302 224.463 210.18 224.947 210.18ZM240.058 227.363C239.598 227.363 239.247 227.291 239.005 227.145C238.787 227.024 238.641 226.843 238.569 226.6C238.52 226.334 238.496 226.031 238.496 225.692V211.379C238.496 211.016 238.532 210.713 238.605 210.471C238.678 210.229 238.823 210.059 239.041 209.963C239.259 209.841 239.61 209.781 240.095 209.781C240.53 209.781 240.857 209.841 241.075 209.963C241.318 210.059 241.475 210.217 241.548 210.435C241.644 210.629 241.693 210.859 241.693 211.125L241.548 212.215C241.717 211.9 241.911 211.585 242.129 211.27C242.371 210.955 242.662 210.677 243.001 210.435C243.364 210.168 243.788 209.95 244.272 209.781C244.781 209.611 245.398 209.527 246.125 209.527C246.488 209.527 246.827 209.563 247.142 209.636C247.481 209.684 247.796 209.769 248.087 209.89C248.401 210.011 248.668 210.156 248.886 210.326C249.104 210.471 249.273 210.641 249.394 210.834C249.54 211.004 249.612 211.21 249.612 211.452C249.612 211.985 249.443 212.445 249.104 212.832C248.765 213.196 248.413 213.377 248.05 213.377C247.735 213.377 247.505 213.341 247.36 213.268C247.215 213.171 247.069 213.075 246.924 212.978C246.803 212.881 246.621 212.796 246.379 212.723C246.137 212.627 245.749 212.578 245.217 212.578C244.853 212.578 244.466 212.651 244.054 212.796C243.667 212.941 243.291 213.159 242.928 213.45C242.565 213.716 242.262 214.067 242.02 214.503C241.802 214.939 241.693 215.448 241.693 216.029V225.765C241.693 226.104 241.657 226.395 241.584 226.637C241.511 226.879 241.354 227.061 241.112 227.182C240.894 227.303 240.543 227.363 240.058 227.363ZM266.553 227.327C266.02 227.327 265.632 227.218 265.39 227C265.172 226.782 265.039 226.443 264.991 225.983L265.136 224.166C264.894 224.554 264.518 225.002 264.01 225.511C263.501 225.995 262.835 226.431 262.012 226.818C261.188 227.182 260.183 227.363 258.997 227.363C257.834 227.363 256.744 227.133 255.727 226.673C254.734 226.213 253.85 225.571 253.075 224.748C252.325 223.924 251.731 222.98 251.295 221.914C250.884 220.849 250.678 219.71 250.678 218.499C250.678 217.313 250.884 216.199 251.295 215.157C251.731 214.092 252.337 213.159 253.112 212.36C253.887 211.561 254.771 210.931 255.763 210.471C256.781 210.011 257.858 209.781 258.997 209.781C260.062 209.781 260.97 209.926 261.721 210.217C262.472 210.483 263.114 210.846 263.647 211.307C264.204 211.743 264.688 212.239 265.1 212.796L265.027 211.27C265.003 210.737 265.112 210.362 265.354 210.144C265.62 209.902 266.032 209.781 266.589 209.781C267.049 209.781 267.376 209.854 267.57 209.999C267.788 210.144 267.933 210.35 268.006 210.616C268.078 210.883 268.115 211.21 268.115 211.597V225.62C268.115 225.959 268.078 226.261 268.006 226.528C267.933 226.794 267.788 226.988 267.57 227.109C267.352 227.254 267.013 227.327 266.553 227.327ZM259.542 224.312C260.51 224.312 261.394 224.057 262.193 223.549C263.017 223.04 263.659 222.362 264.119 221.515C264.603 220.643 264.845 219.65 264.845 218.536C264.845 217.397 264.591 216.405 264.082 215.557C263.598 214.685 262.944 214.007 262.121 213.523C261.322 213.014 260.438 212.76 259.469 212.76C258.331 212.76 257.338 213.026 256.49 213.559C255.667 214.067 255.013 214.758 254.528 215.63C254.044 216.501 253.802 217.494 253.802 218.608C253.802 219.698 254.044 220.679 254.528 221.551C255.013 222.399 255.679 223.077 256.526 223.585C257.398 224.07 258.403 224.312 259.542 224.312ZM280.728 227.363C279.59 227.363 278.621 227.254 277.822 227.036C277.047 226.818 276.405 226.479 275.897 226.019C275.388 225.559 275.025 224.966 274.807 224.239C274.589 223.488 274.48 222.568 274.48 221.478V205.422C274.48 205.083 274.516 204.792 274.589 204.55C274.662 204.308 274.807 204.126 275.025 204.005C275.243 203.86 275.582 203.787 276.042 203.787C276.502 203.787 276.853 203.86 277.096 204.005C277.338 204.126 277.495 204.308 277.568 204.55C277.64 204.768 277.677 205.046 277.677 205.385V221.478C277.677 222.108 277.725 222.617 277.822 223.004C277.943 223.367 278.113 223.646 278.331 223.84C278.573 224.033 278.888 224.154 279.275 224.203C279.663 224.251 280.135 224.275 280.692 224.275C281.079 224.275 281.394 224.312 281.636 224.384C281.879 224.457 282.06 224.602 282.181 224.82C282.302 225.038 282.363 225.365 282.363 225.801C282.363 226.261 282.29 226.613 282.145 226.855C282.024 227.073 281.83 227.206 281.564 227.254C281.322 227.327 281.043 227.363 280.728 227.363ZM272.591 210.18L276.078 210.217L281.128 210.144C281.467 210.144 281.758 210.18 282 210.253C282.242 210.302 282.424 210.447 282.545 210.689C282.69 210.907 282.763 211.246 282.763 211.706C282.763 212.166 282.702 212.518 282.581 212.76C282.46 212.978 282.278 213.123 282.036 213.196C281.794 213.268 281.503 213.305 281.164 213.305L276.187 213.232L272.518 213.268C272.01 213.268 271.659 213.147 271.465 212.905C271.295 212.663 271.211 212.263 271.211 211.706C271.211 211.173 271.32 210.786 271.537 210.544C271.755 210.302 272.107 210.18 272.591 210.18ZM294.06 227.581C292.873 227.581 291.735 227.351 290.645 226.891C289.579 226.431 288.623 225.801 287.775 225.002C286.927 224.179 286.261 223.222 285.777 222.132C285.293 221.042 285.05 219.856 285.05 218.572C285.05 217.313 285.28 216.15 285.741 215.085C286.201 213.995 286.843 213.038 287.666 212.215C288.489 211.391 289.434 210.75 290.499 210.289C291.589 209.805 292.752 209.563 293.987 209.563C295.658 209.563 297.159 209.963 298.491 210.762C299.848 211.537 300.925 212.602 301.725 213.959C302.524 215.315 302.923 216.84 302.923 218.536C302.923 219.868 302.681 221.091 302.197 222.205C301.712 223.295 301.059 224.239 300.235 225.038C299.412 225.838 298.467 226.467 297.402 226.927C296.336 227.363 295.222 227.581 294.06 227.581ZM293.987 224.421C295.004 224.421 295.949 224.166 296.82 223.658C297.692 223.149 298.395 222.447 298.927 221.551C299.46 220.655 299.727 219.638 299.727 218.499C299.727 217.361 299.472 216.356 298.964 215.484C298.479 214.612 297.801 213.934 296.929 213.45C296.058 212.966 295.065 212.723 293.951 212.723C292.885 212.723 291.916 212.978 291.044 213.486C290.197 213.995 289.507 214.685 288.974 215.557C288.465 216.429 288.211 217.422 288.211 218.536C288.211 219.698 288.477 220.727 289.01 221.624C289.543 222.495 290.245 223.186 291.117 223.694C292.013 224.179 292.97 224.421 293.987 224.421ZM308.03 227.363C307.57 227.363 307.219 227.291 306.976 227.145C306.758 227.024 306.613 226.843 306.541 226.6C306.492 226.334 306.468 226.031 306.468 225.692V211.379C306.468 211.016 306.504 210.713 306.577 210.471C306.649 210.229 306.795 210.059 307.013 209.963C307.231 209.841 307.582 209.781 308.066 209.781C308.502 209.781 308.829 209.841 309.047 209.963C309.289 210.059 309.447 210.217 309.519 210.435C309.616 210.629 309.665 210.859 309.665 211.125L309.519 212.215C309.689 211.9 309.883 211.585 310.101 211.27C310.343 210.955 310.633 210.677 310.972 210.435C311.336 210.168 311.76 209.95 312.244 209.781C312.752 209.611 313.37 209.527 314.097 209.527C314.46 209.527 314.799 209.563 315.114 209.636C315.453 209.684 315.768 209.769 316.058 209.89C316.373 210.011 316.639 210.156 316.857 210.326C317.075 210.471 317.245 210.641 317.366 210.834C317.511 211.004 317.584 211.21 317.584 211.452C317.584 211.985 317.414 212.445 317.075 212.832C316.736 213.196 316.385 213.377 316.022 213.377C315.707 213.377 315.477 213.341 315.332 213.268C315.186 213.171 315.041 213.075 314.896 212.978C314.775 212.881 314.593 212.796 314.351 212.723C314.109 212.627 313.721 212.578 313.188 212.578C312.825 212.578 312.438 212.651 312.026 212.796C311.638 212.941 311.263 213.159 310.9 213.45C310.537 213.716 310.234 214.067 309.992 214.503C309.774 214.939 309.665 215.448 309.665 216.029V225.765C309.665 226.104 309.628 226.395 309.556 226.637C309.483 226.879 309.326 227.061 309.083 227.182C308.865 227.303 308.514 227.363 308.03 227.363Z" fill="#653392"/>
<path d="M214.073 38.4745C216.421 38.4745 218.342 38.8302 219.836 39.5417C221.366 40.2176 222.717 41.018 223.891 41.9429C224.603 42.4765 225.136 42.5476 225.492 42.1563C225.883 41.7294 226.15 40.7512 226.293 39.2215H227.52C227.449 40.6089 227.395 42.2986 227.36 44.2907C227.324 46.2472 227.306 48.8618 227.306 52.1345H226.079C225.901 50.4982 225.67 49.1108 225.385 47.9725C225.101 46.7986 224.71 45.767 224.212 44.8776C223.713 43.9883 223.002 43.1879 222.077 42.4765C221.188 41.5871 220.156 40.929 218.982 40.5022C217.808 40.0753 216.581 39.8618 215.3 39.8618C213.38 39.8618 211.743 40.3777 210.391 41.4093C209.04 42.4053 207.937 43.7749 207.083 45.5179C206.265 47.261 205.66 49.2353 205.269 51.4408C204.878 53.6108 204.682 55.8697 204.682 58.2175C204.682 60.6009 204.878 62.8953 205.269 65.1009C205.696 67.2708 206.336 69.2095 207.19 70.917C208.079 72.6245 209.218 73.9763 210.605 74.9723C211.992 75.9684 213.629 76.4664 215.514 76.4664C216.688 76.4664 217.862 76.253 219.036 75.8261C220.245 75.3636 221.277 74.7055 222.13 73.8518C223.518 72.7846 224.461 71.4684 224.959 69.9032C225.457 68.3024 225.83 66.1858 226.079 63.5534H227.306C227.306 66.9329 227.324 69.672 227.36 71.7708C227.395 73.834 227.449 75.5771 227.52 77H226.293C226.15 75.4704 225.901 74.5099 225.546 74.1186C225.225 73.7273 224.674 73.7806 223.891 74.2787C222.575 75.2036 221.17 76.0217 219.676 76.7332C218.217 77.4091 216.332 77.747 214.02 77.747C210.249 77.747 206.941 76.9822 204.095 75.4526C201.285 73.9229 199.097 71.7174 197.532 68.836C195.967 65.9546 195.184 62.4862 195.184 58.4309C195.184 54.4468 195.984 50.9606 197.585 47.9725C199.222 44.9844 201.445 42.6543 204.255 40.9824C207.101 39.3105 210.374 38.4745 214.073 38.4745ZM238.463 77.587V73.0514H233.767V56.6701H238.463V52.0812H254.684V56.6701H259.433V70.3301H264.182V77.587H257.352V73.0514H254.684V77.587H238.463ZM240.544 70.3301H252.603V59.338H240.544V70.3301ZM269.097 77.587V42.9567H275.873V77.587H269.097ZM282.385 77.587V42.9567H289.161V77.587H282.385ZM306.355 77.587V52.0812H322.576V56.6701H325.19V52.0812H336.769V56.6701H341.412V77.587H334.688V59.338H327.271V77.587H320.495V59.338H313.131V77.587H306.355ZM358.144 51.6513C360.945 51.6513 363.141 52.4787 364.732 54.1336C366.324 55.7885 367.119 58.4937 367.119 62.249H351.413L351.318 61.342H361.104C361.136 59.7826 361.041 58.3505 360.818 57.0456C360.595 55.709 360.245 54.6428 359.768 53.8472C359.29 53.0516 358.654 52.6538 357.858 52.6538C356.744 52.6538 355.789 53.3539 354.994 54.7542C354.23 56.1545 353.769 58.4778 353.609 61.7239L353.753 62.0104C353.721 62.3923 353.689 62.7901 353.657 63.2038C353.657 63.6175 353.657 64.0472 353.657 64.4927C353.657 66.6887 353.959 68.4709 354.564 69.8393C355.201 71.2078 355.996 72.2103 356.951 72.8468C357.906 73.4515 358.876 73.7538 359.863 73.7538C360.531 73.7538 361.216 73.6584 361.916 73.4674C362.648 73.2446 363.38 72.8627 364.112 72.3217C364.844 71.7489 365.528 70.9532 366.164 69.9348L367.024 70.2212C366.642 71.4306 366.037 72.6081 365.21 73.7538C364.382 74.8995 363.332 75.8384 362.059 76.5704C360.786 77.3023 359.258 77.6683 357.476 77.6683C355.312 77.6683 353.403 77.2069 351.748 76.2839C350.093 75.361 348.788 73.9607 347.833 72.083C346.91 70.2053 346.449 67.8184 346.449 64.9224C346.449 61.9626 346.942 59.4962 347.929 57.523C348.947 55.5499 350.331 54.0859 352.082 53.1311C353.864 52.1446 355.885 51.6513 358.144 51.6513Z" fill="#653392"/>
<path d="M152.592 110.396V137.056C153.884 134.369 155.615 132.509 157.784 131.476C160.006 130.391 162.486 129.848 165.224 129.848C167.446 129.848 169.228 130.133 170.572 130.701C171.915 131.218 172.974 131.941 173.749 132.871C174.627 133.853 175.247 135.118 175.609 136.668C176.022 138.218 176.229 140.311 176.229 142.946V163.793C176.229 165.963 176.591 167.435 177.314 168.21C178.089 168.985 179.381 169.373 181.189 169.373V171C180.207 170.948 178.709 170.897 176.694 170.845C174.731 170.742 172.819 170.69 170.959 170.69C168.944 170.69 166.981 170.742 165.069 170.845C163.209 170.897 161.814 170.948 160.884 171V169.373C162.434 169.373 163.519 168.985 164.139 168.21C164.759 167.435 165.069 165.963 165.069 163.793V139.691C165.069 138.399 164.94 137.288 164.682 136.358C164.423 135.377 163.933 134.628 163.209 134.111C162.538 133.543 161.556 133.258 160.264 133.258C158.869 133.258 157.578 133.646 156.39 134.421C155.253 135.144 154.323 136.177 153.6 137.521C152.928 138.864 152.592 140.414 152.592 142.171V163.793C152.592 165.963 152.902 167.435 153.522 168.21C154.142 168.985 155.227 169.373 156.777 169.373V171C155.847 170.948 154.478 170.897 152.67 170.845C150.861 170.742 149.027 170.69 147.167 170.69C145.152 170.69 143.111 170.742 141.045 170.845C139.03 170.897 137.506 170.948 136.472 171V169.373C138.281 169.373 139.547 168.985 140.27 168.21C141.045 167.435 141.432 165.963 141.432 163.793V119.696C141.432 117.371 141.071 115.666 140.347 114.581C139.676 113.445 138.384 112.876 136.472 112.876V111.249C138.126 111.404 139.727 111.481 141.277 111.481C143.396 111.481 145.411 111.404 147.322 111.249C149.234 111.042 150.99 110.758 152.592 110.396ZM196.454 172.056V163.896H188.006V134.424H196.454V126.168H225.638V134.424H234.182V163.896H225.638V172.056H196.454ZM200.198 159H221.894V139.224H200.198V159ZM261.848 129.848C266.395 129.848 269.959 131.192 272.543 133.878C275.126 136.565 276.418 140.957 276.418 147.053H250.921L250.766 145.581H266.653C266.705 143.049 266.55 140.724 266.188 138.606C265.826 136.436 265.258 134.705 264.483 133.413C263.708 132.122 262.675 131.476 261.383 131.476C259.575 131.476 258.025 132.613 256.733 134.886C255.493 137.159 254.744 140.931 254.486 146.201L254.718 146.666C254.667 147.286 254.615 147.931 254.563 148.603C254.563 149.275 254.563 149.972 254.563 150.695C254.563 154.26 255.054 157.154 256.036 159.375C257.069 161.597 258.361 163.224 259.911 164.258C261.461 165.239 263.036 165.73 264.638 165.73C265.723 165.73 266.834 165.575 267.97 165.265C269.159 164.903 270.347 164.283 271.535 163.405C272.724 162.475 273.834 161.184 274.868 159.53L276.263 159.995C275.643 161.959 274.661 163.87 273.318 165.73C271.974 167.59 270.269 169.114 268.203 170.303C266.136 171.491 263.656 172.085 260.763 172.085C257.25 172.085 254.15 171.336 251.463 169.838C248.777 168.339 246.658 166.066 245.108 163.018C243.61 159.969 242.861 156.095 242.861 151.393C242.861 146.588 243.662 142.584 245.263 139.381C246.917 136.177 249.164 133.801 252.006 132.251C254.899 130.649 258.18 129.848 261.848 129.848ZM293.349 172.056V163.896H284.901V109.752H297.093V126.168H322.533V134.424H331.077V163.896H322.533V172.056H293.349ZM297.093 159H318.789V139.224H297.093V159ZM358.744 129.848C363.29 129.848 366.855 131.192 369.438 133.878C372.022 136.565 373.313 140.957 373.313 147.053H347.816L347.661 145.581H363.548C363.6 143.049 363.445 140.724 363.083 138.606C362.722 136.436 362.154 134.705 361.379 133.413C360.604 132.122 359.57 131.476 358.279 131.476C356.47 131.476 354.92 132.613 353.629 134.886C352.389 137.159 351.64 140.931 351.381 146.201L351.614 146.666C351.562 147.286 351.51 147.931 351.459 148.603C351.459 149.275 351.459 149.972 351.459 150.695C351.459 154.26 351.95 157.154 352.931 159.375C353.965 161.597 355.256 163.224 356.806 164.258C358.356 165.239 359.932 165.73 361.534 165.73C362.618 165.73 363.729 165.575 364.866 165.265C366.054 164.903 367.243 164.283 368.431 163.405C369.619 162.475 370.73 161.184 371.763 159.53L373.158 159.995C372.538 161.959 371.557 163.87 370.213 165.73C368.87 167.59 367.165 169.114 365.098 170.303C363.032 171.491 360.552 172.085 357.659 172.085C354.145 172.085 351.045 171.336 348.359 169.838C345.672 168.339 343.554 166.066 342.004 163.018C340.506 159.969 339.757 156.095 339.757 151.393C339.757 146.588 340.557 142.584 342.159 139.381C343.812 136.177 346.06 133.801 348.901 132.251C351.795 130.649 355.075 129.848 358.744 129.848Z" fill="#653392"/>
<path d="M18.8022 172.177C12.3574 172.177 7.59775 170.995 4.52317 168.63C1.50772 166.265 0 163.397 0 160.027C0 157.425 0.91646 155.563 2.74938 154.439C4.64142 153.257 6.50391 152.666 8.33683 152.666C9.22372 152.666 10.1697 152.991 11.1749 153.641C12.2392 154.292 12.7713 155.326 12.7713 156.745C12.7713 157.869 12.2687 158.903 11.2636 159.85C10.2584 160.736 9.07591 161.18 7.716 161.18C6.94735 161.18 6.20827 161.121 5.49876 161.002C4.78924 160.884 4.13885 160.648 3.54759 160.293V160.736C3.54759 163.338 4.8188 165.496 7.36124 167.211C9.90368 168.866 13.333 169.694 17.6492 169.694C21.4333 169.694 25.04 169.044 28.4694 167.743C31.9578 166.442 35.7715 163.959 39.9103 160.293C44.1083 156.627 49.0454 151.276 54.7215 144.24C60.4568 137.204 67.4928 127.951 75.8296 116.48C72.5186 114.293 70.863 111.691 70.863 108.676C70.863 106.015 72.016 103.827 74.3219 102.113C76.6278 100.398 79.052 99.5406 81.5945 99.5406C82.7179 99.5406 83.3683 99.6884 83.5456 99.984C83.723 100.28 83.8117 100.427 83.8117 100.427C83.8117 100.782 83.4569 101.019 82.7474 101.137C80.0276 101.551 77.9582 102.615 76.5392 104.33C75.1201 106.044 74.4106 108.055 74.4106 110.361C74.4106 111.721 75.3862 113.051 77.3374 114.352L78.579 112.667C85.0238 103.975 91.1138 96.3477 96.8491 89.7847C102.643 83.2217 108.379 77.3682 114.055 72.2242C119.79 67.021 125.821 62.2614 132.148 57.9451L135.784 55.5505C132.414 53.4811 128.097 51.9142 122.835 50.85C117.573 49.7857 111.335 49.2535 104.122 49.2535C92.8285 49.2535 82.1266 50.85 72.016 54.0428C61.9645 57.2356 53.0955 61.4336 45.4091 66.6367C37.7227 71.7807 31.7213 77.4273 27.4051 83.5764C23.148 89.6665 21.1081 95.6382 21.2855 101.492C21.4629 106.34 22.8819 109.71 25.5426 111.602C28.2033 113.494 30.8049 114.44 33.3473 114.44C37.6044 114.44 41.8911 113.14 46.2073 110.538C50.5235 107.937 54.6328 104.596 58.5352 100.516C62.4966 96.4364 66.0442 92.1202 69.1779 87.5675C72.3116 83.0147 74.8245 78.7281 76.7165 74.7075C78.6677 70.6277 79.7911 67.3758 80.0867 64.9516C80.2641 62.9413 80.678 61.9362 81.3284 61.9362C81.9197 61.9362 82.2153 62.8526 82.2153 64.6855C82.3927 69.8295 81.3875 75.417 79.1998 81.4479C77.0122 87.4197 73.7602 93.0958 69.444 98.4763C65.1869 103.857 59.9838 108.262 53.8346 111.691C47.6855 115.12 40.7677 116.835 33.0812 116.835C29.7702 116.835 26.5478 115.475 23.4141 112.755C20.2804 110.036 18.6544 106.458 18.5361 102.024C18.3588 96.2295 19.8665 90.642 23.0593 85.2615C26.2521 79.881 30.6866 74.8849 36.3627 70.273C42.0389 65.6611 48.5428 61.6405 55.8745 58.2112C63.2653 54.7819 71.07 52.1212 79.2885 50.2291C87.5071 48.278 95.7257 47.3024 103.944 47.3024C111.335 47.3024 117.928 47.8641 123.722 48.9875C129.516 50.1109 134.542 51.7073 138.799 53.7767C142.465 51.7073 145.688 50.1996 148.466 49.2535C151.305 48.3075 153.433 47.8345 154.852 47.8345C155.976 47.8345 156.567 48.1301 156.626 48.7214C156.626 49.0762 156.478 49.3718 156.182 49.6083C155.946 49.8448 155.325 50.0222 154.32 50.1404C150.418 50.9091 146.308 52.6829 141.992 55.4618C146.781 58.2999 150.358 61.6997 152.724 65.6611C155.089 69.6226 156.271 73.9093 156.271 78.5211C156.271 84.0199 154.675 89.3413 151.482 94.4853C148.289 99.6293 143.973 104.241 138.533 108.321C133.094 112.401 126.944 115.653 120.086 118.077C113.286 120.442 106.25 121.624 98.9776 121.624C94.3066 121.624 89.9904 121.21 86.0289 120.383C76.3322 133.39 67.4632 143.678 59.4221 151.247C51.3809 158.756 43.9901 164.136 37.2496 167.388C30.5684 170.581 24.4192 172.177 18.8022 172.177ZM98.6229 119.318C103.353 119.318 108.438 118.343 113.877 116.392C119.317 114.381 124.432 111.425 129.221 107.523C134.069 103.62 138.001 98.7719 141.017 92.9775C144.091 87.124 145.628 80.3836 145.628 72.7563C145.628 66.4889 143.352 61.4632 138.799 57.6791C132.354 62.3501 125.585 68.8835 118.489 77.2795C111.394 85.6754 103.885 95.4313 95.9622 106.547C94.5431 108.616 93.1537 110.627 91.7938 112.578C90.4339 114.47 89.074 116.332 87.714 118.165C91.3799 118.934 95.0162 119.318 98.6229 119.318Z" fill="#653392"/>
</svg>
