<svg width="431" height="290" viewBox="0 0 431 290" fill="none" xmlns="http://www.w3.org/2000/svg">
<path d="M33.7067 237.363C33.295 237.363 32.968 237.291 32.7258 237.145C32.5079 237 32.3504 236.806 32.2536 236.564C32.1567 236.298 32.1083 236.007 32.1083 235.692V213.605C32.1083 213.29 32.1446 213.012 32.2172 212.77C32.3141 212.528 32.4836 212.334 32.7258 212.188C32.968 212.043 33.3071 211.971 33.743 211.971L40.8995 212.007C42.6916 212.007 44.3142 212.31 45.7673 212.915C47.2446 213.496 48.504 214.332 49.5454 215.422C50.5867 216.511 51.3859 217.831 51.943 219.381C52.5 220.931 52.7785 222.651 52.7785 224.54C52.7785 226.501 52.5 228.269 51.943 229.844C51.3859 231.418 50.5746 232.762 49.509 233.876C48.4677 234.99 47.2083 235.85 45.731 236.455C44.2537 237.061 42.6068 237.363 40.7905 237.363H33.7067ZM35.3777 234.057H40.8995C42.6674 234.057 44.1931 233.682 45.4767 232.931C46.7603 232.156 47.7532 231.079 48.4555 229.698C49.1579 228.294 49.509 226.635 49.509 224.721C49.509 222.784 49.1579 221.113 48.4555 219.708C47.7532 218.304 46.7482 217.226 45.4404 216.475C44.1568 215.7 42.6311 215.313 40.8631 215.313H35.3777V234.057ZM65.4706 237.545C64.0175 237.545 62.7218 237.303 61.5836 236.818C60.4453 236.334 59.4766 235.68 58.6774 234.857C57.9024 234.009 57.3091 233.04 56.8974 231.951C56.4857 230.861 56.2798 229.686 56.2798 228.427C56.2798 226.756 56.6673 225.266 57.4423 223.959C58.2173 222.651 59.2829 221.621 60.6391 220.871C62.0195 220.096 63.5937 219.708 65.3616 219.708C66.5725 219.708 67.6502 219.902 68.5948 220.289C69.5635 220.653 70.3869 221.149 71.065 221.779C71.7431 222.409 72.2638 223.111 72.6271 223.886C72.9904 224.661 73.172 225.436 73.172 226.211C73.172 227.446 72.8814 228.318 72.3001 228.826C71.7189 229.311 71.0045 229.553 70.1568 229.553H59.6582C59.634 230.619 59.9125 231.539 60.4938 232.314C61.0992 233.065 61.85 233.646 62.7461 234.057C63.6664 234.469 64.5866 234.675 65.5069 234.675C66.185 234.675 66.7663 234.639 67.2506 234.566C67.735 234.493 68.1588 234.397 68.5221 234.275C68.8854 234.154 69.2002 234.033 69.4666 233.912C69.733 233.791 69.9631 233.67 70.1568 233.549C70.3748 233.428 70.5806 233.343 70.7744 233.295C70.9924 233.246 71.1982 233.27 71.392 233.367C71.6099 233.44 71.7794 233.597 71.9005 233.84C72.0458 234.033 72.1427 234.215 72.1912 234.384C72.2396 234.554 72.2638 234.736 72.2638 234.929C72.2638 235.268 71.9732 235.644 71.392 236.055C70.8107 236.467 69.9994 236.818 68.958 237.109C67.9409 237.4 66.7784 237.545 65.4706 237.545ZM59.6582 227.41H68.7764C69.2365 227.41 69.5756 227.349 69.7936 227.228C70.0357 227.107 70.1568 226.78 70.1568 226.247C70.1568 225.569 69.951 224.964 69.5393 224.431C69.1276 223.874 68.5584 223.426 67.8319 223.087C67.1296 222.748 66.3182 222.578 65.398 222.578C64.3324 222.578 63.3515 222.796 62.4554 223.232C61.5836 223.644 60.8934 224.213 60.3848 224.939C59.8762 225.666 59.634 226.489 59.6582 227.41ZM84.3985 237.363C83.3087 237.363 82.2673 237.145 81.2744 236.709C80.2814 236.273 79.4096 235.656 78.6588 234.857C77.9323 234.057 77.351 233.125 76.9151 232.059C76.5034 230.97 76.2976 229.783 76.2976 228.499C76.2976 227.24 76.5034 226.078 76.9151 225.012C77.351 223.946 77.9323 223.026 78.6588 222.251C79.4096 221.452 80.2814 220.834 81.2744 220.398C82.2673 219.963 83.3087 219.745 84.3985 219.745C85.5852 219.745 86.6508 219.963 87.5953 220.398C88.5641 220.834 89.3875 221.452 90.0656 222.251C90.7679 223.026 91.3007 223.959 91.664 225.048C92.0273 226.114 92.2089 227.276 92.2089 228.536C92.2331 229.819 92.0515 230.994 91.664 232.059C91.3007 233.125 90.78 234.057 90.1019 234.857C89.4238 235.656 88.6004 236.273 87.6317 236.709C86.6872 237.145 85.6094 237.363 84.3985 237.363ZM84.8708 234.275C85.888 234.275 86.7961 234.033 87.5953 233.549C88.4188 233.065 89.0605 232.399 89.5207 231.551C90.005 230.679 90.2472 229.686 90.2472 228.572C90.2472 227.434 90.005 226.441 89.5207 225.593C89.0605 224.721 88.4188 224.043 87.5953 223.559C86.7961 223.075 85.888 222.832 84.8708 222.832C83.8536 222.832 82.9333 223.075 82.1099 223.559C81.2865 224.043 80.6326 224.721 80.1482 225.593C79.6881 226.441 79.458 227.434 79.458 228.572C79.458 229.686 79.6881 230.679 80.1482 231.551C80.6326 232.399 81.2865 233.065 82.1099 233.549C82.9576 234.033 83.8778 234.275 84.8708 234.275ZM91.9909 237.363C91.4581 237.363 91.0706 237.266 90.8285 237.073C90.5863 236.879 90.441 236.552 90.3925 236.092V213.351C90.3925 212.988 90.4168 212.685 90.4652 212.443C90.5378 212.201 90.6832 212.019 90.9011 211.898C91.1433 211.753 91.4945 211.68 91.9546 211.68C92.4148 211.68 92.7538 211.753 92.9718 211.898C93.214 212.019 93.3714 212.201 93.444 212.443C93.5167 212.685 93.553 212.976 93.553 213.315V235.692C93.553 236.031 93.5167 236.334 93.444 236.6C93.3714 236.843 93.2261 237.024 93.0081 237.145C92.7901 237.291 92.4511 237.363 91.9909 237.363ZM99.8717 237.363C99.4115 237.363 99.0604 237.291 98.8182 237.145C98.6002 237.024 98.4549 236.843 98.3823 236.6C98.3096 236.358 98.2733 236.068 98.2733 235.729V221.379C98.2733 221.04 98.3096 220.75 98.3823 220.507C98.4549 220.265 98.6002 220.084 98.8182 219.963C99.0604 219.841 99.4237 219.781 99.908 219.781C100.368 219.781 100.707 219.854 100.925 219.999C101.143 220.12 101.288 220.302 101.361 220.544C101.434 220.786 101.47 221.089 101.47 221.452V235.765C101.47 236.104 101.434 236.395 101.361 236.637C101.288 236.879 101.131 237.061 100.889 237.182C100.671 237.303 100.332 237.363 99.8717 237.363ZM99.8717 215.422C99.3389 215.422 98.9393 215.349 98.6729 215.204C98.4065 215.034 98.2249 214.804 98.128 214.513C98.0553 214.223 98.019 213.884 98.019 213.496C98.019 213.109 98.0674 212.782 98.1643 212.515C98.2612 212.225 98.4428 212.019 98.7092 211.898C98.9756 211.753 99.3752 211.68 99.908 211.68C100.417 211.68 100.804 211.753 101.07 211.898C101.337 212.043 101.506 212.261 101.579 212.552C101.676 212.842 101.724 213.181 101.724 213.569C101.724 213.956 101.676 214.295 101.579 214.586C101.506 214.852 101.337 215.058 101.07 215.204C100.804 215.349 100.404 215.422 99.8717 215.422ZM113.576 237.436C112.317 237.436 111.13 237.23 110.016 236.818C108.926 236.407 107.957 235.813 107.11 235.038C106.286 234.263 105.632 233.343 105.148 232.277C104.688 231.188 104.458 229.953 104.458 228.572C104.458 227.192 104.688 225.969 105.148 224.903C105.632 223.813 106.286 222.881 107.11 222.106C107.933 221.331 108.89 220.737 109.979 220.326C111.094 219.914 112.268 219.708 113.503 219.708C114.327 219.708 115.138 219.841 115.937 220.108C116.736 220.35 117.439 220.677 118.044 221.089C118.674 221.476 119.122 221.888 119.388 222.324C119.63 222.639 119.8 222.905 119.897 223.123C120.018 223.317 120.03 223.547 119.933 223.813C119.836 224.007 119.703 224.189 119.534 224.358C119.364 224.503 119.194 224.625 119.025 224.721C118.589 225.06 118.153 225.109 117.717 224.867C117.451 224.6 117.148 224.358 116.809 224.14C116.494 223.898 116.155 223.68 115.792 223.486C115.429 223.293 115.053 223.147 114.666 223.05C114.302 222.929 113.915 222.869 113.503 222.869C112.365 222.869 111.36 223.111 110.488 223.595C109.616 224.055 108.938 224.721 108.454 225.593C107.994 226.441 107.764 227.434 107.764 228.572C107.764 229.71 107.994 230.703 108.454 231.551C108.938 232.399 109.604 233.065 110.452 233.549C111.324 234.033 112.317 234.275 113.431 234.275C113.939 234.275 114.424 234.215 114.884 234.094C115.368 233.949 115.816 233.767 116.228 233.549C116.639 233.307 116.979 233.052 117.245 232.786C117.487 232.617 117.693 232.471 117.862 232.35C118.032 232.229 118.238 232.168 118.48 232.168C118.674 232.168 118.88 232.253 119.098 232.423C119.316 232.568 119.546 232.798 119.788 233.113C119.982 233.331 120.091 233.561 120.115 233.803C120.163 234.045 120.127 234.275 120.006 234.493C119.885 234.711 119.691 234.929 119.425 235.147C119.037 235.535 118.516 235.91 117.862 236.273C117.233 236.613 116.543 236.891 115.792 237.109C115.041 237.327 114.302 237.436 113.576 237.436ZM138.708 237.327C138.175 237.327 137.787 237.218 137.545 237C137.327 236.782 137.194 236.443 137.145 235.983L137.291 234.166C137.049 234.554 136.673 235.002 136.165 235.511C135.656 235.995 134.99 236.431 134.167 236.818C133.343 237.182 132.338 237.363 131.151 237.363C129.989 237.363 128.899 237.133 127.882 236.673C126.889 236.213 126.005 235.571 125.23 234.748C124.479 233.924 123.886 232.98 123.45 231.914C123.038 230.849 122.833 229.71 122.833 228.499C122.833 227.313 123.038 226.199 123.45 225.157C123.886 224.092 124.491 223.159 125.266 222.36C126.041 221.561 126.925 220.931 127.918 220.471C128.935 220.011 130.013 219.781 131.151 219.781C132.217 219.781 133.125 219.926 133.876 220.217C134.627 220.483 135.269 220.846 135.801 221.307C136.358 221.743 136.843 222.239 137.254 222.796L137.182 221.27C137.158 220.737 137.267 220.362 137.509 220.144C137.775 219.902 138.187 219.781 138.744 219.781C139.204 219.781 139.531 219.854 139.725 219.999C139.943 220.144 140.088 220.35 140.161 220.616C140.233 220.883 140.27 221.21 140.27 221.597V235.62C140.27 235.959 140.233 236.261 140.161 236.528C140.088 236.794 139.943 236.988 139.725 237.109C139.507 237.254 139.168 237.327 138.708 237.327ZM131.696 234.312C132.665 234.312 133.549 234.057 134.348 233.549C135.172 233.04 135.813 232.362 136.274 231.515C136.758 230.643 137 229.65 137 228.536C137 227.397 136.746 226.405 136.237 225.557C135.753 224.685 135.099 224.007 134.276 223.523C133.476 223.014 132.592 222.76 131.624 222.76C130.485 222.76 129.493 223.026 128.645 223.559C127.821 224.067 127.168 224.758 126.683 225.63C126.199 226.501 125.957 227.494 125.957 228.608C125.957 229.698 126.199 230.679 126.683 231.551C127.168 232.399 127.834 233.077 128.681 233.585C129.553 234.07 130.558 234.312 131.696 234.312ZM152.883 237.363C151.745 237.363 150.776 237.254 149.977 237.036C149.202 236.818 148.56 236.479 148.052 236.019C147.543 235.559 147.18 234.966 146.962 234.239C146.744 233.488 146.635 232.568 146.635 231.478V215.422C146.635 215.083 146.671 214.792 146.744 214.55C146.816 214.308 146.962 214.126 147.18 214.005C147.398 213.86 147.737 213.787 148.197 213.787C148.657 213.787 149.008 213.86 149.25 214.005C149.493 214.126 149.65 214.308 149.723 214.55C149.795 214.768 149.832 215.046 149.832 215.385V231.478C149.832 232.108 149.88 232.617 149.977 233.004C150.098 233.367 150.268 233.646 150.486 233.84C150.728 234.033 151.043 234.154 151.43 234.203C151.818 234.251 152.29 234.275 152.847 234.275C153.234 234.275 153.549 234.312 153.791 234.384C154.033 234.457 154.215 234.602 154.336 234.82C154.457 235.038 154.518 235.365 154.518 235.801C154.518 236.261 154.445 236.613 154.3 236.855C154.179 237.073 153.985 237.206 153.719 237.254C153.476 237.327 153.198 237.363 152.883 237.363ZM144.746 220.18L148.233 220.217L153.283 220.144C153.622 220.144 153.912 220.18 154.155 220.253C154.397 220.302 154.578 220.447 154.699 220.689C154.845 220.907 154.917 221.246 154.917 221.706C154.917 222.166 154.857 222.518 154.736 222.76C154.615 222.978 154.433 223.123 154.191 223.196C153.949 223.268 153.658 223.305 153.319 223.305L148.342 223.232L144.673 223.268C144.165 223.268 143.813 223.147 143.62 222.905C143.45 222.663 143.365 222.263 143.365 221.706C143.365 221.173 143.474 220.786 143.692 220.544C143.91 220.302 144.261 220.18 144.746 220.18ZM166.541 237.545C165.088 237.545 163.793 237.303 162.654 236.818C161.516 236.334 160.547 235.68 159.748 234.857C158.973 234.009 158.38 233.04 157.968 231.951C157.556 230.861 157.351 229.686 157.351 228.427C157.351 226.756 157.738 225.266 158.513 223.959C159.288 222.651 160.354 221.621 161.71 220.871C163.09 220.096 164.664 219.708 166.432 219.708C167.643 219.708 168.721 219.902 169.665 220.289C170.634 220.653 171.458 221.149 172.136 221.779C172.814 222.409 173.335 223.111 173.698 223.886C174.061 224.661 174.243 225.436 174.243 226.211C174.243 227.446 173.952 228.318 173.371 228.826C172.79 229.311 172.075 229.553 171.228 229.553H160.729C160.705 230.619 160.983 231.539 161.564 232.314C162.17 233.065 162.921 233.646 163.817 234.057C164.737 234.469 165.657 234.675 166.578 234.675C167.256 234.675 167.837 234.639 168.321 234.566C168.806 234.493 169.23 234.397 169.593 234.275C169.956 234.154 170.271 234.033 170.537 233.912C170.804 233.791 171.034 233.67 171.228 233.549C171.446 233.428 171.651 233.343 171.845 233.295C172.063 233.246 172.269 233.27 172.463 233.367C172.681 233.44 172.85 233.597 172.971 233.84C173.117 234.033 173.213 234.215 173.262 234.384C173.31 234.554 173.335 234.736 173.335 234.929C173.335 235.268 173.044 235.644 172.463 236.055C171.881 236.467 171.07 236.818 170.029 237.109C169.012 237.4 167.849 237.545 166.541 237.545ZM160.729 227.41H169.847C170.307 227.41 170.646 227.349 170.864 227.228C171.106 227.107 171.228 226.78 171.228 226.247C171.228 225.569 171.022 224.964 170.61 224.431C170.198 223.874 169.629 223.426 168.903 223.087C168.2 222.748 167.389 222.578 166.469 222.578C165.403 222.578 164.422 222.796 163.526 223.232C162.654 223.644 161.964 224.213 161.456 224.939C160.947 225.666 160.705 226.489 160.729 227.41ZM185.469 237.363C184.379 237.363 183.338 237.145 182.345 236.709C181.352 236.273 180.48 235.656 179.73 234.857C179.003 234.057 178.422 233.125 177.986 232.059C177.574 230.97 177.368 229.783 177.368 228.499C177.368 227.24 177.574 226.078 177.986 225.012C178.422 223.946 179.003 223.026 179.73 222.251C180.48 221.452 181.352 220.834 182.345 220.398C183.338 219.963 184.379 219.745 185.469 219.745C186.656 219.745 187.722 219.963 188.666 220.398C189.635 220.834 190.458 221.452 191.136 222.251C191.839 223.026 192.371 223.959 192.735 225.048C193.098 226.114 193.28 227.276 193.28 228.536C193.304 229.819 193.122 230.994 192.735 232.059C192.371 233.125 191.851 234.057 191.173 234.857C190.495 235.656 189.671 236.273 188.702 236.709C187.758 237.145 186.68 237.363 185.469 237.363ZM185.942 234.275C186.959 234.275 187.867 234.033 188.666 233.549C189.489 233.065 190.131 232.399 190.591 231.551C191.076 230.679 191.318 229.686 191.318 228.572C191.318 227.434 191.076 226.441 190.591 225.593C190.131 224.721 189.489 224.043 188.666 223.559C187.867 223.075 186.959 222.832 185.942 222.832C184.924 222.832 184.004 223.075 183.181 223.559C182.357 224.043 181.703 224.721 181.219 225.593C180.759 226.441 180.529 227.434 180.529 228.572C180.529 229.686 180.759 230.679 181.219 231.551C181.703 232.399 182.357 233.065 183.181 233.549C184.028 234.033 184.949 234.275 185.942 234.275ZM193.062 237.363C192.529 237.363 192.141 237.266 191.899 237.073C191.657 236.879 191.512 236.552 191.463 236.092V213.351C191.463 212.988 191.487 212.685 191.536 212.443C191.609 212.201 191.754 212.019 191.972 211.898C192.214 211.753 192.565 211.68 193.025 211.68C193.485 211.68 193.825 211.753 194.042 211.898C194.285 212.019 194.442 212.201 194.515 212.443C194.587 212.685 194.624 212.976 194.624 213.315V235.692C194.624 236.031 194.587 236.334 194.515 236.6C194.442 236.843 194.297 237.024 194.079 237.145C193.861 237.291 193.522 237.363 193.062 237.363ZM215.959 237.363C214.821 237.363 213.852 237.254 213.053 237.036C212.278 236.818 211.636 236.479 211.128 236.019C210.619 235.559 210.256 234.966 210.038 234.239C209.82 233.488 209.711 232.568 209.711 231.478V215.422C209.711 215.083 209.747 214.792 209.82 214.55C209.893 214.308 210.038 214.126 210.256 214.005C210.474 213.86 210.813 213.787 211.273 213.787C211.733 213.787 212.084 213.86 212.326 214.005C212.569 214.126 212.726 214.308 212.799 214.55C212.871 214.768 212.908 215.046 212.908 215.385V231.478C212.908 232.108 212.956 232.617 213.053 233.004C213.174 233.367 213.344 233.646 213.562 233.84C213.804 234.033 214.119 234.154 214.506 234.203C214.894 234.251 215.366 234.275 215.923 234.275C216.31 234.275 216.625 234.312 216.867 234.384C217.11 234.457 217.291 234.602 217.412 234.82C217.533 235.038 217.594 235.365 217.594 235.801C217.594 236.261 217.521 236.613 217.376 236.855C217.255 237.073 217.061 237.206 216.795 237.254C216.553 237.327 216.274 237.363 215.959 237.363ZM207.822 220.18L211.309 220.217L216.359 220.144C216.698 220.144 216.988 220.18 217.231 220.253C217.473 220.302 217.654 220.447 217.776 220.689C217.921 220.907 217.994 221.246 217.994 221.706C217.994 222.166 217.933 222.518 217.812 222.76C217.691 222.978 217.509 223.123 217.267 223.196C217.025 223.268 216.734 223.305 216.395 223.305L211.418 223.232L207.749 223.268C207.241 223.268 206.889 223.147 206.696 222.905C206.526 222.663 206.441 222.263 206.441 221.706C206.441 221.173 206.55 220.786 206.768 220.544C206.986 220.302 207.338 220.18 207.822 220.18ZM229.29 237.581C228.104 237.581 226.966 237.351 225.876 236.891C224.81 236.431 223.853 235.801 223.006 235.002C222.158 234.179 221.492 233.222 221.008 232.132C220.523 231.042 220.281 229.856 220.281 228.572C220.281 227.313 220.511 226.15 220.972 225.085C221.432 223.995 222.073 223.038 222.897 222.215C223.72 221.391 224.665 220.75 225.73 220.289C226.82 219.805 227.983 219.563 229.218 219.563C230.889 219.563 232.39 219.963 233.722 220.762C235.079 221.537 236.156 222.602 236.956 223.959C237.755 225.315 238.154 226.84 238.154 228.536C238.154 229.868 237.912 231.091 237.428 232.205C236.943 233.295 236.29 234.239 235.466 235.038C234.643 235.838 233.698 236.467 232.633 236.927C231.567 237.363 230.453 237.581 229.29 237.581ZM229.218 234.421C230.235 234.421 231.179 234.166 232.051 233.658C232.923 233.149 233.626 232.447 234.158 231.551C234.691 230.655 234.958 229.638 234.958 228.499C234.958 227.361 234.703 226.356 234.195 225.484C233.71 224.612 233.032 223.934 232.16 223.45C231.288 222.966 230.296 222.723 229.181 222.723C228.116 222.723 227.147 222.978 226.275 223.486C225.428 223.995 224.737 224.685 224.205 225.557C223.696 226.429 223.442 227.422 223.442 228.536C223.442 229.698 223.708 230.727 224.241 231.624C224.774 232.495 225.476 233.186 226.348 233.694C227.244 234.179 228.201 234.421 229.218 234.421ZM264.4 234.53C264.86 234.893 265.102 235.244 265.126 235.583C265.175 235.922 265.005 236.322 264.618 236.782C264.327 237.121 264.061 237.339 263.819 237.436C263.601 237.557 263.371 237.569 263.128 237.472C262.886 237.4 262.608 237.23 262.293 236.964L254.083 230.279V235.729C254.083 236.068 254.035 236.358 253.938 236.6C253.865 236.843 253.72 237.024 253.502 237.145C253.284 237.291 252.933 237.363 252.448 237.363C252.012 237.363 251.673 237.291 251.431 237.145C251.189 237.024 251.031 236.843 250.959 236.6C250.91 236.334 250.886 236.031 250.886 235.692V213.278C250.886 212.939 250.922 212.649 250.995 212.406C251.068 212.164 251.225 211.983 251.467 211.862C251.71 211.716 252.049 211.644 252.485 211.644C252.969 211.644 253.32 211.716 253.538 211.862C253.756 211.983 253.901 212.176 253.974 212.443C254.047 212.685 254.083 212.976 254.083 213.315V226.174L260.077 220.435C260.343 220.168 260.598 219.987 260.84 219.89C261.106 219.769 261.361 219.745 261.603 219.817C261.869 219.89 262.135 220.084 262.402 220.398C262.838 220.883 263.044 221.295 263.019 221.634C263.019 221.948 262.801 222.312 262.366 222.723L256.481 228.281L264.4 234.53ZM275.842 237.545C274.389 237.545 273.094 237.303 271.955 236.818C270.817 236.334 269.848 235.68 269.049 234.857C268.274 234.009 267.681 233.04 267.269 231.951C266.857 230.861 266.652 229.686 266.652 228.427C266.652 226.756 267.039 225.266 267.814 223.959C268.589 222.651 269.655 221.621 271.011 220.871C272.391 220.096 273.966 219.708 275.733 219.708C276.944 219.708 278.022 219.902 278.967 220.289C279.935 220.653 280.759 221.149 281.437 221.779C282.115 222.409 282.636 223.111 282.999 223.886C283.362 224.661 283.544 225.436 283.544 226.211C283.544 227.446 283.253 228.318 282.672 228.826C282.091 229.311 281.376 229.553 280.529 229.553H270.03C270.006 230.619 270.284 231.539 270.866 232.314C271.471 233.065 272.222 233.646 273.118 234.057C274.038 234.469 274.958 234.675 275.879 234.675C276.557 234.675 277.138 234.639 277.622 234.566C278.107 234.493 278.531 234.397 278.894 234.275C279.257 234.154 279.572 234.033 279.838 233.912C280.105 233.791 280.335 233.67 280.529 233.549C280.747 233.428 280.952 233.343 281.146 233.295C281.364 233.246 281.57 233.27 281.764 233.367C281.982 233.44 282.151 233.597 282.272 233.84C282.418 234.033 282.515 234.215 282.563 234.384C282.611 234.554 282.636 234.736 282.636 234.929C282.636 235.268 282.345 235.644 281.764 236.055C281.183 236.467 280.371 236.818 279.33 237.109C278.313 237.4 277.15 237.545 275.842 237.545ZM270.03 227.41H279.148C279.608 227.41 279.947 227.349 280.165 227.228C280.408 227.107 280.529 226.78 280.529 226.247C280.529 225.569 280.323 224.964 279.911 224.431C279.499 223.874 278.93 223.426 278.204 223.087C277.501 222.748 276.69 222.578 275.77 222.578C274.704 222.578 273.723 222.796 272.827 223.232C271.955 223.644 271.265 224.213 270.757 224.939C270.248 225.666 270.006 226.489 270.03 227.41ZM295.461 237.545C294.007 237.545 292.712 237.303 291.574 236.818C290.435 236.334 289.467 235.68 288.667 234.857C287.892 234.009 287.299 233.04 286.887 231.951C286.476 230.861 286.27 229.686 286.27 228.427C286.27 226.756 286.657 225.266 287.432 223.959C288.207 222.651 289.273 221.621 290.629 220.871C292.009 220.096 293.584 219.708 295.352 219.708C296.563 219.708 297.64 219.902 298.585 220.289C299.553 220.653 300.377 221.149 301.055 221.779C301.733 222.409 302.254 223.111 302.617 223.886C302.98 224.661 303.162 225.436 303.162 226.211C303.162 227.446 302.871 228.318 302.29 228.826C301.709 229.311 300.994 229.553 300.147 229.553H289.648C289.624 230.619 289.903 231.539 290.484 232.314C291.089 233.065 291.84 233.646 292.736 234.057C293.656 234.469 294.577 234.675 295.497 234.675C296.175 234.675 296.756 234.639 297.241 234.566C297.725 234.493 298.149 234.397 298.512 234.275C298.875 234.154 299.19 234.033 299.457 233.912C299.723 233.791 299.953 233.67 300.147 233.549C300.365 233.428 300.571 233.343 300.764 233.295C300.982 233.246 301.188 233.27 301.382 233.367C301.6 233.44 301.769 233.597 301.891 233.84C302.036 234.033 302.133 234.215 302.181 234.384C302.23 234.554 302.254 234.736 302.254 234.929C302.254 235.268 301.963 235.644 301.382 236.055C300.801 236.467 299.989 236.818 298.948 237.109C297.931 237.4 296.768 237.545 295.461 237.545ZM289.648 227.41H298.766C299.227 227.41 299.566 227.349 299.784 227.228C300.026 227.107 300.147 226.78 300.147 226.247C300.147 225.569 299.941 224.964 299.529 224.431C299.118 223.874 298.548 223.426 297.822 223.087C297.12 222.748 296.308 222.578 295.388 222.578C294.322 222.578 293.341 222.796 292.445 223.232C291.574 223.644 290.883 224.213 290.375 224.939C289.866 225.666 289.624 226.489 289.648 227.41ZM315.696 237.218C314.51 237.218 313.432 237 312.463 236.564C311.494 236.128 310.671 235.523 309.993 234.748C309.315 233.949 308.782 233.016 308.395 231.951C308.031 230.885 307.862 229.71 307.886 228.427C307.886 227.167 308.068 226.005 308.431 224.939C308.794 223.874 309.315 222.953 309.993 222.178C310.695 221.379 311.519 220.774 312.463 220.362C313.432 219.926 314.51 219.708 315.696 219.708C316.81 219.708 317.852 219.926 318.82 220.362C319.813 220.798 320.673 221.416 321.4 222.215C322.15 222.99 322.732 223.922 323.143 225.012C323.579 226.102 323.797 227.276 323.797 228.536C323.797 229.795 323.579 230.958 323.143 232.023C322.732 233.089 322.15 234.009 321.4 234.784C320.673 235.559 319.813 236.164 318.82 236.6C317.852 237.012 316.81 237.218 315.696 237.218ZM308.14 244.52C307.68 244.52 307.329 244.447 307.087 244.302C306.869 244.181 306.711 243.999 306.614 243.757C306.542 243.515 306.506 243.224 306.506 242.885V221.416C306.506 221.077 306.542 220.786 306.614 220.544C306.687 220.302 306.832 220.12 307.05 219.999C307.293 219.854 307.644 219.781 308.104 219.781C308.637 219.781 309.024 219.866 309.266 220.035C309.533 220.205 309.69 220.507 309.739 220.943V242.849C309.763 243.188 309.739 243.478 309.666 243.721C309.593 243.987 309.436 244.181 309.194 244.302C308.976 244.447 308.625 244.52 308.14 244.52ZM315.224 234.239C316.241 234.239 317.162 233.997 317.985 233.513C318.808 233.004 319.45 232.314 319.91 231.442C320.395 230.57 320.637 229.577 320.637 228.463C320.637 227.325 320.395 226.332 319.91 225.484C319.45 224.637 318.808 223.983 317.985 223.523C317.186 223.038 316.265 222.796 315.224 222.796C314.207 222.796 313.287 223.038 312.463 223.523C311.664 224.007 311.022 224.673 310.538 225.521C310.078 226.368 309.848 227.349 309.848 228.463C309.848 229.577 310.078 230.57 310.538 231.442C311.022 232.314 311.664 233.004 312.463 233.513C313.287 233.997 314.207 234.239 315.224 234.239ZM329.436 237.363C328.976 237.363 328.625 237.291 328.382 237.145C328.165 237.024 328.019 236.843 327.947 236.6C327.874 236.358 327.838 236.068 327.838 235.729V221.379C327.838 221.04 327.874 220.75 327.947 220.507C328.019 220.265 328.165 220.084 328.382 219.963C328.625 219.841 328.988 219.781 329.472 219.781C329.932 219.781 330.271 219.854 330.489 219.999C330.707 220.12 330.853 220.302 330.925 220.544C330.998 220.786 331.034 221.089 331.034 221.452V235.765C331.034 236.104 330.998 236.395 330.925 236.637C330.853 236.879 330.695 237.061 330.453 237.182C330.235 237.303 329.896 237.363 329.436 237.363ZM329.436 215.422C328.903 215.422 328.504 215.349 328.237 215.204C327.971 215.034 327.789 214.804 327.692 214.513C327.62 214.223 327.583 213.884 327.583 213.496C327.583 213.109 327.632 212.782 327.729 212.515C327.825 212.225 328.007 212.019 328.273 211.898C328.54 211.753 328.939 211.68 329.472 211.68C329.981 211.68 330.368 211.753 330.635 211.898C330.901 212.043 331.071 212.261 331.143 212.552C331.24 212.842 331.289 213.181 331.289 213.569C331.289 213.956 331.24 214.295 331.143 214.586C331.071 214.852 330.901 215.058 330.635 215.204C330.368 215.349 329.969 215.422 329.436 215.422ZM337.378 237.327C336.918 237.327 336.567 237.254 336.325 237.109C336.107 236.988 335.962 236.806 335.889 236.564C335.84 236.322 335.816 236.031 335.816 235.692V221.27C335.816 220.955 335.853 220.689 335.925 220.471C335.998 220.253 336.143 220.084 336.361 219.963C336.603 219.841 336.954 219.781 337.415 219.781C337.778 219.781 338.056 219.829 338.25 219.926C338.468 219.999 338.613 220.108 338.686 220.253C338.783 220.398 338.843 220.556 338.868 220.725C338.892 220.895 338.904 221.052 338.904 221.198L338.831 222.869C339.074 222.457 339.376 222.069 339.74 221.706C340.103 221.319 340.527 220.98 341.011 220.689C341.495 220.374 342.016 220.132 342.573 219.963C343.154 219.793 343.772 219.708 344.426 219.708C345.491 219.708 346.472 219.902 347.368 220.289C348.264 220.653 349.027 221.198 349.657 221.924C350.311 222.627 350.807 223.474 351.146 224.467C351.51 225.46 351.691 226.586 351.691 227.846V235.729C351.691 236.068 351.655 236.358 351.582 236.6C351.534 236.843 351.389 237.024 351.146 237.145C350.928 237.266 350.589 237.327 350.129 237.327C349.645 237.327 349.282 237.254 349.039 237.109C348.821 236.988 348.676 236.806 348.603 236.564C348.531 236.322 348.494 236.031 348.494 235.692V227.809C348.494 226.792 348.325 225.908 347.986 225.157C347.647 224.407 347.138 223.825 346.46 223.414C345.782 222.978 344.922 222.76 343.881 222.76C342.888 222.76 342.016 222.978 341.265 223.414C340.539 223.825 339.97 224.407 339.558 225.157C339.17 225.908 338.977 226.792 338.977 227.809V235.729C338.977 236.068 338.94 236.358 338.868 236.6C338.795 236.843 338.638 237.024 338.395 237.145C338.177 237.266 337.838 237.327 337.378 237.327ZM363.412 244.483C362.564 244.483 361.753 244.387 360.978 244.193C360.203 243.999 359.525 243.745 358.944 243.43C358.362 243.115 357.902 242.776 357.563 242.413C357.224 242.049 357.055 241.71 357.055 241.396C357.055 241.153 357.091 240.948 357.164 240.778C357.236 240.633 357.345 240.475 357.49 240.306C357.733 240.064 357.926 239.894 358.072 239.797C358.217 239.7 358.411 239.652 358.653 239.652C358.895 239.652 359.137 239.749 359.38 239.943C359.622 240.16 359.912 240.391 360.251 240.633C360.615 240.899 361.051 241.129 361.559 241.323C362.092 241.541 362.746 241.65 363.521 241.65C364.32 241.65 365.034 241.529 365.664 241.287C366.294 241.044 366.839 240.681 367.299 240.197C367.759 239.712 368.11 239.119 368.352 238.417C368.595 237.739 368.716 236.964 368.716 236.092L368.643 220.98C368.667 220.52 368.8 220.193 369.043 219.999C369.309 219.805 369.721 219.708 370.278 219.708C370.738 219.708 371.065 219.781 371.259 219.926C371.477 220.047 371.61 220.229 371.658 220.471C371.731 220.689 371.767 220.968 371.767 221.307V236.346C371.767 237.63 371.561 238.768 371.15 239.761C370.738 240.778 370.157 241.638 369.406 242.34C368.655 243.042 367.771 243.575 366.754 243.939C365.737 244.302 364.623 244.483 363.412 244.483ZM363.303 236.964C362.14 236.964 361.063 236.758 360.07 236.346C359.101 235.91 358.241 235.305 357.49 234.53C356.764 233.755 356.195 232.847 355.783 231.805C355.396 230.764 355.202 229.626 355.202 228.39C355.202 227.155 355.396 226.017 355.783 224.976C356.195 223.934 356.764 223.026 357.49 222.251C358.217 221.476 359.065 220.883 360.033 220.471C361.026 220.035 362.104 219.817 363.267 219.817C364.332 219.817 365.301 220.023 366.173 220.435C367.045 220.846 367.783 221.44 368.389 222.215C369.018 222.966 369.491 223.862 369.805 224.903C370.12 225.944 370.278 227.107 370.278 228.39C370.278 230.134 369.999 231.648 369.442 232.931C368.885 234.215 368.086 235.208 367.045 235.91C366.003 236.613 364.756 236.964 363.303 236.964ZM363.485 233.985C364.453 233.985 365.325 233.743 366.1 233.258C366.875 232.774 367.493 232.108 367.953 231.26C368.413 230.413 368.643 229.432 368.643 228.318C368.643 227.228 368.413 226.271 367.953 225.448C367.493 224.6 366.863 223.946 366.064 223.486C365.289 223.026 364.405 222.796 363.412 222.796C362.419 222.796 361.535 223.026 360.76 223.486C359.985 223.946 359.38 224.6 358.944 225.448C358.532 226.271 358.326 227.24 358.326 228.354C358.326 229.468 358.544 230.449 358.98 231.297C359.416 232.12 360.021 232.774 360.796 233.258C361.571 233.743 362.467 233.985 363.485 233.985ZM33.7197 281.436C32.4604 281.436 31.2737 281.23 30.1596 280.818C29.0698 280.407 28.1011 279.813 27.2535 279.038C26.43 278.263 25.7762 277.343 25.2918 276.277C24.8316 275.188 24.6016 273.953 24.6016 272.572C24.6016 271.192 24.8316 269.969 25.2918 268.903C25.7762 267.813 26.43 266.881 27.2535 266.106C28.0769 265.331 29.0335 264.737 30.1233 264.326C31.2374 263.914 32.4119 263.708 33.6471 263.708C34.4705 263.708 35.2818 263.841 36.081 264.108C36.8802 264.35 37.5825 264.677 38.188 265.089C38.8176 265.476 39.2657 265.888 39.5321 266.324C39.7743 266.639 39.9438 266.905 40.0407 267.123C40.1618 267.317 40.1739 267.547 40.077 267.813C39.9801 268.007 39.8469 268.189 39.6774 268.358C39.5079 268.503 39.3383 268.625 39.1688 268.721C38.7329 269.06 38.297 269.109 37.861 268.867C37.5946 268.6 37.2919 268.358 36.9528 268.14C36.638 267.898 36.299 267.68 35.9357 267.486C35.5724 267.293 35.197 267.147 34.8095 267.05C34.4463 266.929 34.0588 266.869 33.6471 266.869C32.5088 266.869 31.5038 267.111 30.6319 267.595C29.76 268.055 29.0819 268.721 28.5976 269.593C28.1374 270.441 27.9074 271.434 27.9074 272.572C27.9074 273.71 28.1374 274.703 28.5976 275.551C29.0819 276.399 29.7479 277.065 30.5956 277.549C31.4674 278.033 32.4604 278.275 33.5744 278.275C34.083 278.275 34.5674 278.215 35.0275 278.094C35.5119 277.949 35.9599 277.767 36.3716 277.549C36.7833 277.307 37.1224 277.052 37.3888 276.786C37.631 276.617 37.8368 276.471 38.0063 276.35C38.1759 276.229 38.3817 276.168 38.6239 276.168C38.8176 276.168 39.0235 276.253 39.2415 276.423C39.4594 276.568 39.6895 276.798 39.9317 277.113C40.1254 277.331 40.2344 277.561 40.2586 277.803C40.3071 278.045 40.2707 278.275 40.1496 278.493C40.0286 278.711 39.8348 278.929 39.5684 279.147C39.1809 279.535 38.6602 279.91 38.0063 280.273C37.3767 280.613 36.6864 280.891 35.9357 281.109C35.1849 281.327 34.4463 281.436 33.7197 281.436ZM45.0158 281.363C44.5557 281.363 44.2045 281.291 43.9623 281.145C43.7201 281.024 43.5627 280.843 43.4901 280.6C43.4416 280.334 43.4174 280.031 43.4174 279.692V257.315C43.4174 256.976 43.4537 256.685 43.5264 256.443C43.599 256.201 43.7565 256.019 43.9986 255.898C44.2408 255.753 44.592 255.68 45.0521 255.68C45.5365 255.68 45.8877 255.753 46.1056 255.898C46.3478 256.019 46.4931 256.201 46.5415 256.443C46.6142 256.685 46.6505 256.988 46.6505 257.351V266.324C47.2318 265.646 47.9341 265.04 48.7575 264.507C49.6051 263.975 50.6344 263.708 51.8453 263.708C53.2742 263.708 54.5457 264.047 55.6597 264.725C56.7979 265.379 57.694 266.312 58.3479 267.523C59.026 268.733 59.3651 270.174 59.3651 271.846V279.729C59.3651 280.068 59.3287 280.358 59.2561 280.6C59.1834 280.843 59.0381 281.024 58.8202 281.145C58.6022 281.291 58.251 281.363 57.7667 281.363C57.3065 281.363 56.9554 281.291 56.7132 281.145C56.471 281.024 56.3136 280.843 56.2409 280.6C56.1683 280.334 56.1319 280.031 56.1319 279.692V271.809C56.1319 270.792 55.9624 269.908 55.6234 269.157C55.2843 268.407 54.7757 267.825 54.0976 267.414C53.4437 267.002 52.6082 266.796 51.591 266.796C50.2106 266.796 49.0723 267.196 48.1763 267.995C47.3044 268.77 46.7958 269.811 46.6505 271.119V279.729C46.6505 280.068 46.6142 280.358 46.5415 280.6C46.4689 280.843 46.3115 281.024 46.0693 281.145C45.8513 281.291 45.5002 281.363 45.0158 281.363ZM64.8925 281.363C64.4323 281.363 64.0812 281.291 63.839 281.145C63.621 281.024 63.4757 280.843 63.4031 280.6C63.3304 280.358 63.2941 280.068 63.2941 279.729V265.379C63.2941 265.04 63.3304 264.75 63.4031 264.507C63.4757 264.265 63.621 264.084 63.839 263.963C64.0812 263.841 64.4445 263.781 64.9288 263.781C65.389 263.781 65.728 263.854 65.946 263.999C66.1639 264.12 66.3093 264.302 66.3819 264.544C66.4546 264.786 66.4909 265.089 66.4909 265.452V279.765C66.4909 280.104 66.4546 280.395 66.3819 280.637C66.3093 280.879 66.1518 281.061 65.9097 281.182C65.6917 281.303 65.3526 281.363 64.8925 281.363ZM64.8925 259.422C64.3597 259.422 63.9601 259.349 63.6937 259.204C63.4273 259.034 63.2457 258.804 63.1488 258.513C63.0761 258.223 63.0398 257.884 63.0398 257.496C63.0398 257.109 63.0882 256.782 63.1851 256.515C63.282 256.225 63.4636 256.019 63.73 255.898C63.9964 255.753 64.396 255.68 64.9288 255.68C65.4374 255.68 65.8249 255.753 66.0913 255.898C66.3577 256.043 66.5272 256.261 66.5999 256.552C66.6967 256.842 66.7452 257.181 66.7452 257.569C66.7452 257.956 66.6967 258.295 66.5999 258.586C66.5272 258.852 66.3577 259.058 66.0913 259.204C65.8249 259.349 65.4253 259.422 64.8925 259.422ZM76.7582 281.363C75.9832 281.363 75.2809 281.291 74.6512 281.145C74.0457 281.024 73.5129 280.818 73.0528 280.528C72.5926 280.237 72.2052 279.862 71.8903 279.402C71.5997 278.941 71.3817 278.384 71.2364 277.731C71.1153 277.077 71.0548 276.314 71.0548 275.442V257.278C71.0548 256.915 71.079 256.612 71.1274 256.37C71.2001 256.128 71.3575 255.946 71.5997 255.825C71.8419 255.68 72.1809 255.607 72.6169 255.607C73.1012 255.607 73.4524 255.668 73.6704 255.789C73.9125 255.91 74.07 256.092 74.1426 256.334C74.2153 256.576 74.2516 256.867 74.2516 257.206V275.406C74.2516 275.89 74.3 276.314 74.3969 276.677C74.4938 277.016 74.6391 277.307 74.8328 277.549C75.0508 277.791 75.3172 277.961 75.632 278.057C75.9469 278.154 76.3222 278.203 76.7582 278.203C77.0488 278.203 77.291 278.239 77.4847 278.312C77.7027 278.384 77.8722 278.53 77.9933 278.748C78.1144 278.966 78.1749 279.305 78.1749 279.765C78.1749 280.249 78.1144 280.613 77.9933 280.855C77.8722 281.073 77.7027 281.206 77.4847 281.254C77.291 281.327 77.0488 281.363 76.7582 281.363ZM89.0459 281.363C87.9561 281.363 86.9147 281.145 85.9217 280.709C84.9288 280.273 84.0569 279.656 83.3062 278.857C82.5796 278.057 81.9984 277.125 81.5625 276.059C81.1507 274.97 80.9449 273.783 80.9449 272.499C80.9449 271.24 81.1507 270.078 81.5625 269.012C81.9984 267.946 82.5796 267.026 83.3062 266.251C84.0569 265.452 84.9288 264.834 85.9217 264.398C86.9147 263.963 87.9561 263.745 89.0459 263.745C90.2326 263.745 91.2982 263.963 92.2427 264.398C93.2114 264.834 94.0348 265.452 94.7129 266.251C95.4153 267.026 95.9481 267.959 96.3113 269.048C96.6746 270.114 96.8562 271.276 96.8562 272.536C96.8805 273.819 96.6988 274.994 96.3113 276.059C95.9481 277.125 95.4274 278.057 94.7493 278.857C94.0711 279.656 93.2477 280.273 92.279 280.709C91.3345 281.145 90.2568 281.363 89.0459 281.363ZM89.5181 278.275C90.5353 278.275 91.4435 278.033 92.2427 277.549C93.0661 277.065 93.7079 276.399 94.168 275.551C94.6524 274.679 94.8946 273.686 94.8946 272.572C94.8946 271.434 94.6524 270.441 94.168 269.593C93.7079 268.721 93.0661 268.043 92.2427 267.559C91.4435 267.075 90.5353 266.832 89.5181 266.832C88.501 266.832 87.5807 267.075 86.7573 267.559C85.9338 268.043 85.2799 268.721 84.7956 269.593C84.3354 270.441 84.1054 271.434 84.1054 272.572C84.1054 273.686 84.3354 274.679 84.7956 275.551C85.2799 276.399 85.9338 277.065 86.7573 277.549C87.6049 278.033 88.5252 278.275 89.5181 278.275ZM96.6383 281.363C96.1055 281.363 95.718 281.266 95.4758 281.073C95.2336 280.879 95.0883 280.552 95.0399 280.092V257.351C95.0399 256.988 95.0641 256.685 95.1125 256.443C95.1852 256.201 95.3305 256.019 95.5485 255.898C95.7906 255.753 96.1418 255.68 96.6019 255.68C97.0621 255.68 97.4011 255.753 97.6191 255.898C97.8613 256.019 98.0187 256.201 98.0914 256.443C98.164 256.685 98.2003 256.976 98.2003 257.315V279.692C98.2003 280.031 98.164 280.334 98.0914 280.6C98.0187 280.843 97.8734 281.024 97.6554 281.145C97.4375 281.291 97.0984 281.363 96.6383 281.363ZM108.261 281.363C107.486 281.363 106.783 281.291 106.154 281.145C105.548 281.024 105.015 280.818 104.555 280.528C104.095 280.237 103.708 279.862 103.393 279.402C103.102 278.941 102.884 278.384 102.739 277.731C102.618 277.077 102.557 276.314 102.557 275.442V257.278C102.557 256.915 102.582 256.612 102.63 256.37C102.703 256.128 102.86 255.946 103.102 255.825C103.344 255.68 103.683 255.607 104.119 255.607C104.604 255.607 104.955 255.668 105.173 255.789C105.415 255.91 105.573 256.092 105.645 256.334C105.718 256.576 105.754 256.867 105.754 257.206V275.406C105.754 275.89 105.803 276.314 105.899 276.677C105.996 277.016 106.142 277.307 106.335 277.549C106.553 277.791 106.82 277.961 107.135 278.057C107.449 278.154 107.825 278.203 108.261 278.203C108.551 278.203 108.794 278.239 108.987 278.312C109.205 278.384 109.375 278.53 109.496 278.748C109.617 278.966 109.677 279.305 109.677 279.765C109.677 280.249 109.617 280.613 109.496 280.855C109.375 281.073 109.205 281.206 108.987 281.254C108.794 281.327 108.551 281.363 108.261 281.363ZM114.736 281.363C114.276 281.363 113.925 281.291 113.683 281.145C113.465 281.024 113.319 280.843 113.247 280.6C113.174 280.358 113.138 280.068 113.138 279.729V265.379C113.138 265.04 113.174 264.75 113.247 264.507C113.319 264.265 113.465 264.084 113.683 263.963C113.925 263.841 114.288 263.781 114.772 263.781C115.233 263.781 115.572 263.854 115.79 263.999C116.008 264.12 116.153 264.302 116.225 264.544C116.298 264.786 116.334 265.089 116.334 265.452V279.765C116.334 280.104 116.298 280.395 116.225 280.637C116.153 280.879 115.995 281.061 115.753 281.182C115.535 281.303 115.196 281.363 114.736 281.363ZM114.736 259.422C114.203 259.422 113.804 259.349 113.537 259.204C113.271 259.034 113.089 258.804 112.992 258.513C112.92 258.223 112.883 257.884 112.883 257.496C112.883 257.109 112.932 256.782 113.029 256.515C113.126 256.225 113.307 256.019 113.574 255.898C113.84 255.753 114.24 255.68 114.772 255.68C115.281 255.68 115.668 255.753 115.935 255.898C116.201 256.043 116.371 256.261 116.443 256.552C116.54 256.842 116.589 257.181 116.589 257.569C116.589 257.956 116.54 258.295 116.443 258.586C116.371 258.852 116.201 259.058 115.935 259.204C115.668 259.349 115.269 259.422 114.736 259.422ZM134.594 278.53C135.054 278.893 135.296 279.244 135.32 279.583C135.369 279.922 135.199 280.322 134.812 280.782C134.521 281.121 134.255 281.339 134.013 281.436C133.795 281.557 133.564 281.569 133.322 281.472C133.08 281.4 132.802 281.23 132.487 280.964L124.277 274.279V279.729C124.277 280.068 124.228 280.358 124.131 280.6C124.059 280.843 123.914 281.024 123.696 281.145C123.478 281.291 123.126 281.363 122.642 281.363C122.206 281.363 121.867 281.291 121.625 281.145C121.383 281.024 121.225 280.843 121.153 280.6C121.104 280.334 121.08 280.031 121.08 279.692V257.278C121.08 256.939 121.116 256.649 121.189 256.406C121.262 256.164 121.419 255.983 121.661 255.862C121.903 255.716 122.242 255.644 122.678 255.644C123.163 255.644 123.514 255.716 123.732 255.862C123.95 255.983 124.095 256.176 124.168 256.443C124.24 256.685 124.277 256.976 124.277 257.315V270.174L130.271 264.435C130.537 264.168 130.791 263.987 131.034 263.89C131.3 263.769 131.554 263.745 131.797 263.817C132.063 263.89 132.329 264.084 132.596 264.398C133.032 264.883 133.238 265.295 133.213 265.634C133.213 265.948 132.995 266.312 132.559 266.723L126.674 272.281L134.594 278.53ZM146.036 281.545C144.583 281.545 143.288 281.303 142.149 280.818C141.011 280.334 140.042 279.68 139.243 278.857C138.468 278.009 137.875 277.04 137.463 275.951C137.051 274.861 136.845 273.686 136.845 272.427C136.845 270.756 137.233 269.266 138.008 267.959C138.783 266.651 139.849 265.621 141.205 264.871C142.585 264.096 144.159 263.708 145.927 263.708C147.138 263.708 148.216 263.902 149.16 264.289C150.129 264.653 150.953 265.149 151.631 265.779C152.309 266.409 152.829 267.111 153.193 267.886C153.556 268.661 153.738 269.436 153.738 270.211C153.738 271.446 153.447 272.318 152.866 272.826C152.285 273.311 151.57 273.553 150.722 273.553H140.224C140.2 274.619 140.478 275.539 141.059 276.314C141.665 277.065 142.416 277.646 143.312 278.057C144.232 278.469 145.152 278.675 146.073 278.675C146.751 278.675 147.332 278.639 147.816 278.566C148.301 278.493 148.724 278.397 149.088 278.275C149.451 278.154 149.766 278.033 150.032 277.912C150.299 277.791 150.529 277.67 150.722 277.549C150.94 277.428 151.146 277.343 151.34 277.295C151.558 277.246 151.764 277.27 151.958 277.367C152.176 277.44 152.345 277.597 152.466 277.84C152.612 278.033 152.708 278.215 152.757 278.384C152.805 278.554 152.829 278.736 152.829 278.929C152.829 279.268 152.539 279.644 151.958 280.055C151.376 280.467 150.565 280.818 149.524 281.109C148.507 281.4 147.344 281.545 146.036 281.545ZM140.224 271.41H149.342C149.802 271.41 150.141 271.349 150.359 271.228C150.601 271.107 150.722 270.78 150.722 270.247C150.722 269.569 150.517 268.964 150.105 268.431C149.693 267.874 149.124 267.426 148.398 267.087C147.695 266.748 146.884 266.578 145.964 266.578C144.898 266.578 143.917 266.796 143.021 267.232C142.149 267.644 141.459 268.213 140.95 268.939C140.442 269.666 140.2 270.489 140.224 271.41ZM172.699 281.254C172.335 281.254 172.045 281.194 171.827 281.073C171.633 280.976 171.475 280.843 171.354 280.673C171.258 280.479 171.185 280.273 171.136 280.055L165.506 265.743C165.385 265.379 165.324 265.077 165.324 264.834C165.348 264.592 165.445 264.386 165.615 264.217C165.808 264.047 166.087 263.902 166.45 263.781C167.031 263.563 167.479 263.514 167.794 263.636C168.109 263.732 168.363 264.047 168.557 264.58L172.699 275.624L176.549 264.834C176.622 264.641 176.707 264.459 176.803 264.289C176.925 264.096 177.094 263.938 177.312 263.817C177.53 263.696 177.809 263.636 178.148 263.636C178.535 263.636 178.826 263.696 179.019 263.817C179.237 263.938 179.407 264.084 179.528 264.253C179.673 264.423 179.77 264.604 179.819 264.798L183.633 275.696L187.774 264.762C187.992 264.18 188.259 263.805 188.574 263.636C188.913 263.466 189.373 263.49 189.954 263.708C190.463 263.878 190.802 264.12 190.971 264.435C191.141 264.75 191.104 265.198 190.862 265.779L185.231 280.092C185.159 280.286 185.062 280.479 184.941 280.673C184.844 280.843 184.687 280.976 184.469 281.073C184.275 281.194 184.008 281.254 183.669 281.254C183.33 281.254 183.064 281.206 182.87 281.109C182.676 281.012 182.519 280.867 182.398 280.673C182.277 280.455 182.168 280.225 182.071 279.983L178.184 268.794L174.261 279.983C174.164 280.273 174.055 280.516 173.934 280.709C173.837 280.903 173.691 281.036 173.498 281.109C173.304 281.206 173.038 281.254 172.699 281.254ZM201.3 281.581C200.113 281.581 198.975 281.351 197.885 280.891C196.82 280.431 195.863 279.801 195.015 279.002C194.168 278.179 193.502 277.222 193.017 276.132C192.533 275.042 192.291 273.856 192.291 272.572C192.291 271.313 192.521 270.15 192.981 269.085C193.441 267.995 194.083 267.038 194.906 266.215C195.73 265.391 196.674 264.75 197.74 264.289C198.83 263.805 199.992 263.563 201.227 263.563C202.898 263.563 204.4 263.963 205.732 264.762C207.088 265.537 208.166 266.602 208.965 267.959C209.764 269.315 210.164 270.84 210.164 272.536C210.164 273.868 209.922 275.091 209.437 276.205C208.953 277.295 208.299 278.239 207.476 279.038C206.652 279.838 205.708 280.467 204.642 280.927C203.576 281.363 202.462 281.581 201.3 281.581ZM201.227 278.421C202.244 278.421 203.189 278.166 204.061 277.658C204.933 277.149 205.635 276.447 206.168 275.551C206.701 274.655 206.967 273.638 206.967 272.499C206.967 271.361 206.713 270.356 206.204 269.484C205.72 268.612 205.042 267.934 204.17 267.45C203.298 266.966 202.305 266.723 201.191 266.723C200.125 266.723 199.157 266.978 198.285 267.486C197.437 267.995 196.747 268.685 196.214 269.557C195.706 270.429 195.451 271.422 195.451 272.536C195.451 273.698 195.718 274.727 196.25 275.624C196.783 276.495 197.486 277.186 198.357 277.694C199.254 278.179 200.21 278.421 201.227 278.421ZM215.27 281.327C214.81 281.327 214.459 281.254 214.217 281.109C213.999 280.988 213.854 280.806 213.781 280.564C213.733 280.322 213.708 280.031 213.708 279.692V265.27C213.708 264.955 213.745 264.689 213.817 264.471C213.89 264.253 214.035 264.084 214.253 263.963C214.495 263.841 214.847 263.781 215.307 263.781C215.67 263.781 215.948 263.829 216.142 263.926C216.36 263.999 216.506 264.108 216.578 264.253C216.675 264.398 216.736 264.556 216.76 264.725C216.784 264.895 216.796 265.052 216.796 265.198L216.723 266.869C216.966 266.457 217.268 266.069 217.632 265.706C217.995 265.319 218.419 264.98 218.903 264.689C219.387 264.374 219.908 264.132 220.465 263.963C221.046 263.793 221.664 263.708 222.318 263.708C223.383 263.708 224.364 263.902 225.26 264.289C226.156 264.653 226.919 265.198 227.549 265.924C228.203 266.627 228.699 267.474 229.038 268.467C229.402 269.46 229.583 270.586 229.583 271.846V279.729C229.583 280.068 229.547 280.358 229.474 280.6C229.426 280.843 229.281 281.024 229.038 281.145C228.82 281.266 228.481 281.327 228.021 281.327C227.537 281.327 227.174 281.254 226.931 281.109C226.713 280.988 226.568 280.806 226.496 280.564C226.423 280.322 226.387 280.031 226.387 279.692V271.809C226.387 270.792 226.217 269.908 225.878 269.157C225.539 268.407 225.03 267.825 224.352 267.414C223.674 266.978 222.814 266.76 221.773 266.76C220.78 266.76 219.908 266.978 219.157 267.414C218.431 267.825 217.862 268.407 217.45 269.157C217.063 269.908 216.869 270.792 216.869 271.809V279.729C216.869 280.068 216.832 280.358 216.76 280.6C216.687 280.843 216.53 281.024 216.288 281.145C216.07 281.266 215.731 281.327 215.27 281.327ZM241.486 281.363C240.396 281.363 239.354 281.145 238.361 280.709C237.369 280.273 236.497 279.656 235.746 278.857C235.019 278.057 234.438 277.125 234.002 276.059C233.59 274.97 233.385 273.783 233.385 272.499C233.385 271.24 233.59 270.078 234.002 269.012C234.438 267.946 235.019 267.026 235.746 266.251C236.497 265.452 237.369 264.834 238.361 264.398C239.354 263.963 240.396 263.745 241.486 263.745C242.672 263.745 243.738 263.963 244.682 264.398C245.651 264.834 246.475 265.452 247.153 266.251C247.855 267.026 248.388 267.959 248.751 269.048C249.114 270.114 249.296 271.276 249.296 272.536C249.32 273.819 249.139 274.994 248.751 276.059C248.388 277.125 247.867 278.057 247.189 278.857C246.511 279.656 245.687 280.273 244.719 280.709C243.774 281.145 242.697 281.363 241.486 281.363ZM241.958 278.275C242.975 278.275 243.883 278.033 244.682 277.549C245.506 277.065 246.148 276.399 246.608 275.551C247.092 274.679 247.334 273.686 247.334 272.572C247.334 271.434 247.092 270.441 246.608 269.593C246.148 268.721 245.506 268.043 244.682 267.559C243.883 267.075 242.975 266.832 241.958 266.832C240.941 266.832 240.02 267.075 239.197 267.559C238.374 268.043 237.72 268.721 237.235 269.593C236.775 270.441 236.545 271.434 236.545 272.572C236.545 273.686 236.775 274.679 237.235 275.551C237.72 276.399 238.374 277.065 239.197 277.549C240.045 278.033 240.965 278.275 241.958 278.275ZM249.078 281.363C248.545 281.363 248.158 281.266 247.916 281.073C247.673 280.879 247.528 280.552 247.48 280.092V257.351C247.48 256.988 247.504 256.685 247.552 256.443C247.625 256.201 247.77 256.019 247.988 255.898C248.23 255.753 248.582 255.68 249.042 255.68C249.502 255.68 249.841 255.753 250.059 255.898C250.301 256.019 250.458 256.201 250.531 256.443C250.604 256.685 250.64 256.976 250.64 257.315V279.692C250.64 280.031 250.604 280.334 250.531 280.6C250.458 280.843 250.313 281.024 250.095 281.145C249.877 281.291 249.538 281.363 249.078 281.363ZM263.461 281.545C262.008 281.545 260.713 281.303 259.574 280.818C258.436 280.334 257.467 279.68 256.668 278.857C255.893 278.009 255.3 277.04 254.888 275.951C254.476 274.861 254.271 273.686 254.271 272.427C254.271 270.756 254.658 269.266 255.433 267.959C256.208 266.651 257.274 265.621 258.63 264.871C260.01 264.096 261.584 263.708 263.352 263.708C264.563 263.708 265.641 263.902 266.586 264.289C267.554 264.653 268.378 265.149 269.056 265.779C269.734 266.409 270.255 267.111 270.618 267.886C270.981 268.661 271.163 269.436 271.163 270.211C271.163 271.446 270.872 272.318 270.291 272.826C269.71 273.311 268.995 273.553 268.148 273.553H257.649C257.625 274.619 257.903 275.539 258.485 276.314C259.09 277.065 259.841 277.646 260.737 278.057C261.657 278.469 262.577 278.675 263.498 278.675C264.176 278.675 264.757 278.639 265.241 278.566C265.726 278.493 266.15 278.397 266.513 278.275C266.876 278.154 267.191 278.033 267.457 277.912C267.724 277.791 267.954 277.67 268.148 277.549C268.366 277.428 268.571 277.343 268.765 277.295C268.983 277.246 269.189 277.27 269.383 277.367C269.601 277.44 269.77 277.597 269.891 277.84C270.037 278.033 270.133 278.215 270.182 278.384C270.23 278.554 270.255 278.736 270.255 278.929C270.255 279.268 269.964 279.644 269.383 280.055C268.801 280.467 267.99 280.818 266.949 281.109C265.932 281.4 264.769 281.545 263.461 281.545ZM257.649 271.41H266.767C267.227 271.41 267.566 271.349 267.784 271.228C268.026 271.107 268.148 270.78 268.148 270.247C268.148 269.569 267.942 268.964 267.53 268.431C267.118 267.874 266.549 267.426 265.823 267.087C265.12 266.748 264.309 266.578 263.389 266.578C262.323 266.578 261.342 266.796 260.446 267.232C259.574 267.644 258.884 268.213 258.376 268.939C257.867 269.666 257.625 270.489 257.649 271.41ZM276.395 281.363C275.935 281.363 275.584 281.291 275.342 281.145C275.124 281.024 274.979 280.843 274.906 280.6C274.857 280.334 274.833 280.031 274.833 279.692V265.379C274.833 265.016 274.87 264.713 274.942 264.471C275.015 264.229 275.16 264.059 275.378 263.963C275.596 263.841 275.947 263.781 276.432 263.781C276.868 263.781 277.194 263.841 277.412 263.963C277.655 264.059 277.812 264.217 277.885 264.435C277.982 264.629 278.03 264.859 278.03 265.125L277.885 266.215C278.054 265.9 278.248 265.585 278.466 265.27C278.708 264.955 278.999 264.677 279.338 264.435C279.701 264.168 280.125 263.95 280.609 263.781C281.118 263.611 281.735 263.527 282.462 263.527C282.825 263.527 283.164 263.563 283.479 263.636C283.818 263.684 284.133 263.769 284.424 263.89C284.738 264.011 285.005 264.156 285.223 264.326C285.441 264.471 285.61 264.641 285.731 264.834C285.877 265.004 285.949 265.21 285.949 265.452C285.949 265.985 285.78 266.445 285.441 266.832C285.102 267.196 284.751 267.377 284.387 267.377C284.072 267.377 283.842 267.341 283.697 267.268C283.552 267.171 283.406 267.075 283.261 266.978C283.14 266.881 282.958 266.796 282.716 266.723C282.474 266.627 282.087 266.578 281.554 266.578C281.19 266.578 280.803 266.651 280.391 266.796C280.004 266.941 279.628 267.159 279.265 267.45C278.902 267.716 278.599 268.067 278.357 268.503C278.139 268.939 278.03 269.448 278.03 270.029V279.765C278.03 280.104 277.994 280.395 277.921 280.637C277.848 280.879 277.691 281.061 277.449 281.182C277.231 281.303 276.88 281.363 276.395 281.363ZM313.213 281.327C312.68 281.327 312.293 281.218 312.051 281C311.833 280.782 311.7 280.443 311.651 279.983L311.797 278.166C311.554 278.554 311.179 279.002 310.67 279.511C310.162 279.995 309.496 280.431 308.672 280.818C307.849 281.182 306.844 281.363 305.657 281.363C304.495 281.363 303.405 281.133 302.388 280.673C301.395 280.213 300.511 279.571 299.736 278.748C298.985 277.924 298.392 276.98 297.956 275.914C297.544 274.849 297.338 273.71 297.338 272.499C297.338 271.313 297.544 270.199 297.956 269.157C298.392 268.092 298.997 267.159 299.772 266.36C300.547 265.561 301.431 264.931 302.424 264.471C303.441 264.011 304.519 263.781 305.657 263.781C306.723 263.781 307.631 263.926 308.382 264.217C309.133 264.483 309.774 264.846 310.307 265.307C310.864 265.743 311.348 266.239 311.76 266.796L311.688 265.27C311.663 264.737 311.772 264.362 312.014 264.144C312.281 263.902 312.693 263.781 313.25 263.781C313.71 263.781 314.037 263.854 314.23 263.999C314.448 264.144 314.594 264.35 314.666 264.616C314.739 264.883 314.775 265.21 314.775 265.597V279.62C314.775 279.959 314.739 280.261 314.666 280.528C314.594 280.794 314.448 280.988 314.23 281.109C314.012 281.254 313.673 281.327 313.213 281.327ZM306.202 278.312C307.171 278.312 308.055 278.057 308.854 277.549C309.677 277.04 310.319 276.362 310.779 275.515C311.264 274.643 311.506 273.65 311.506 272.536C311.506 271.397 311.252 270.405 310.743 269.557C310.259 268.685 309.605 268.007 308.781 267.523C307.982 267.014 307.098 266.76 306.129 266.76C304.991 266.76 303.998 267.026 303.151 267.559C302.327 268.067 301.673 268.758 301.189 269.63C300.705 270.501 300.462 271.494 300.462 272.608C300.462 273.698 300.705 274.679 301.189 275.551C301.673 276.399 302.339 277.077 303.187 277.585C304.059 278.07 305.064 278.312 306.202 278.312ZM324.628 281.363C323.853 281.363 323.151 281.291 322.521 281.145C321.916 281.024 321.383 280.818 320.923 280.528C320.462 280.237 320.075 279.862 319.76 279.402C319.47 278.941 319.252 278.384 319.106 277.731C318.985 277.077 318.925 276.314 318.925 275.442V257.278C318.925 256.915 318.949 256.612 318.997 256.37C319.07 256.128 319.227 255.946 319.47 255.825C319.712 255.68 320.051 255.607 320.487 255.607C320.971 255.607 321.322 255.668 321.54 255.789C321.782 255.91 321.94 256.092 322.012 256.334C322.085 256.576 322.121 256.867 322.121 257.206V275.406C322.121 275.89 322.17 276.314 322.267 276.677C322.364 277.016 322.509 277.307 322.703 277.549C322.921 277.791 323.187 277.961 323.502 278.057C323.817 278.154 324.192 278.203 324.628 278.203C324.919 278.203 325.161 278.239 325.355 278.312C325.573 278.384 325.742 278.53 325.863 278.748C325.984 278.966 326.045 279.305 326.045 279.765C326.045 280.249 325.984 280.613 325.863 280.855C325.742 281.073 325.573 281.206 325.355 281.254C325.161 281.327 324.919 281.363 324.628 281.363ZM331.103 281.363C330.643 281.363 330.292 281.291 330.05 281.145C329.832 281.024 329.687 280.843 329.614 280.6C329.541 280.358 329.505 280.068 329.505 279.729V265.379C329.505 265.04 329.541 264.75 329.614 264.507C329.687 264.265 329.832 264.084 330.05 263.963C330.292 263.841 330.655 263.781 331.14 263.781C331.6 263.781 331.939 263.854 332.157 263.999C332.375 264.12 332.52 264.302 332.593 264.544C332.665 264.786 332.702 265.089 332.702 265.452V279.765C332.702 280.104 332.665 280.395 332.593 280.637C332.52 280.879 332.363 281.061 332.12 281.182C331.903 281.303 331.563 281.363 331.103 281.363ZM331.103 259.422C330.571 259.422 330.171 259.349 329.905 259.204C329.638 259.034 329.456 258.804 329.36 258.513C329.287 258.223 329.251 257.884 329.251 257.496C329.251 257.109 329.299 256.782 329.396 256.515C329.493 256.225 329.674 256.019 329.941 255.898C330.207 255.753 330.607 255.68 331.14 255.68C331.648 255.68 332.036 255.753 332.302 255.898C332.569 256.043 332.738 256.261 332.811 256.552C332.908 256.842 332.956 257.181 332.956 257.569C332.956 257.956 332.908 258.295 332.811 258.586C332.738 258.852 332.569 259.058 332.302 259.204C332.036 259.349 331.636 259.422 331.103 259.422ZM344.894 281.436C344.483 281.436 344.144 281.375 343.877 281.254C343.635 281.133 343.429 280.915 343.26 280.6L336.539 265.961C336.273 265.379 336.212 264.943 336.357 264.653C336.503 264.338 336.842 264.047 337.375 263.781C337.859 263.539 338.271 263.466 338.61 263.563C338.949 263.636 339.239 263.95 339.482 264.507L344.894 277.404L350.198 264.871C350.465 264.314 350.755 263.914 351.07 263.672C351.385 263.43 351.881 263.478 352.559 263.817C353.213 264.132 353.54 264.495 353.54 264.907C353.54 265.295 353.431 265.718 353.213 266.178L346.529 280.564C346.408 280.855 346.214 281.073 345.948 281.218C345.681 281.363 345.33 281.436 344.894 281.436ZM364.142 281.545C362.689 281.545 361.393 281.303 360.255 280.818C359.117 280.334 358.148 279.68 357.349 278.857C356.574 278.009 355.98 277.04 355.569 275.951C355.157 274.861 354.951 273.686 354.951 272.427C354.951 270.756 355.339 269.266 356.114 267.959C356.889 266.651 357.954 265.621 359.31 264.871C360.691 264.096 362.265 263.708 364.033 263.708C365.244 263.708 366.321 263.902 367.266 264.289C368.235 264.653 369.058 265.149 369.736 265.779C370.414 266.409 370.935 267.111 371.298 267.886C371.662 268.661 371.843 269.436 371.843 270.211C371.843 271.446 371.553 272.318 370.971 272.826C370.39 273.311 369.676 273.553 368.828 273.553H358.329C358.305 274.619 358.584 275.539 359.165 276.314C359.77 277.065 360.521 277.646 361.417 278.057C362.338 278.469 363.258 278.675 364.178 278.675C364.856 278.675 365.438 278.639 365.922 278.566C366.406 278.493 366.83 278.397 367.193 278.275C367.557 278.154 367.871 278.033 368.138 277.912C368.404 277.791 368.634 277.67 368.828 277.549C369.046 277.428 369.252 277.343 369.446 277.295C369.664 277.246 369.869 277.27 370.063 277.367C370.281 277.44 370.451 277.597 370.572 277.84C370.717 278.033 370.814 278.215 370.862 278.384C370.911 278.554 370.935 278.736 370.935 278.929C370.935 279.268 370.644 279.644 370.063 280.055C369.482 280.467 368.671 280.818 367.629 281.109C366.612 281.4 365.45 281.545 364.142 281.545ZM358.329 271.41H367.448C367.908 271.41 368.247 271.349 368.465 271.228C368.707 271.107 368.828 270.78 368.828 270.247C368.828 269.569 368.622 268.964 368.211 268.431C367.799 267.874 367.23 267.426 366.503 267.087C365.801 266.748 364.989 266.578 364.069 266.578C363.004 266.578 362.023 266.796 361.127 267.232C360.255 267.644 359.565 268.213 359.056 268.939C358.547 269.666 358.305 270.489 358.329 271.41ZM377.039 281.4C376.313 281.4 375.804 281.254 375.514 280.964C375.223 280.673 375.078 280.189 375.078 279.511C375.078 279.002 375.138 278.615 375.259 278.348C375.38 278.057 375.586 277.852 375.877 277.731C376.168 277.585 376.555 277.513 377.039 277.513C377.766 277.513 378.262 277.658 378.529 277.949C378.819 278.239 378.965 278.748 378.965 279.474C378.965 279.959 378.904 280.346 378.783 280.637C378.662 280.903 378.456 281.097 378.166 281.218C377.899 281.339 377.524 281.4 377.039 281.4Z" fill="#653392"/>
<path d="M231.526 42.0347C234.084 42.0347 236.176 42.4222 237.803 43.1972C239.47 43.9334 240.942 44.8053 242.221 45.8128C242.996 46.394 243.577 46.4715 243.965 46.0453C244.391 45.5803 244.681 44.5147 244.836 42.8485H246.173C246.096 44.3597 246.038 46.2003 245.999 48.3702C245.96 50.5014 245.941 53.3495 245.941 56.9144H244.604C244.41 55.1319 244.158 53.6207 243.848 52.3807C243.538 51.102 243.112 49.9783 242.57 49.0096C242.027 48.0408 241.252 47.169 240.245 46.394C239.276 45.4253 238.152 44.7084 236.873 44.2434C235.595 43.7784 234.258 43.5459 232.863 43.5459C230.77 43.5459 228.988 44.1078 227.516 45.2315C226.043 46.3165 224.842 47.8083 223.912 49.7071C223.021 51.6058 222.362 53.7563 221.936 56.1588C221.509 58.5225 221.296 60.983 221.296 63.5405C221.296 66.1367 221.509 68.636 221.936 71.0384C222.401 73.4021 223.098 75.5139 224.028 77.3739C224.997 79.2339 226.237 80.7063 227.748 81.7913C229.259 82.8763 231.042 83.4188 233.095 83.4188C234.374 83.4188 235.653 83.1863 236.932 82.7213C238.249 82.2175 239.373 81.5007 240.303 80.5707C241.814 79.4082 242.841 77.9745 243.383 76.2696C243.926 74.5258 244.333 72.2203 244.604 69.3528H245.941C245.941 73.034 245.96 76.0177 245.999 78.3039C246.038 80.5513 246.096 82.45 246.173 84H244.836C244.681 82.3338 244.41 81.2876 244.023 80.8613C243.674 80.4351 243.073 80.4932 242.221 81.0357C240.787 82.0432 239.257 82.9344 237.629 83.7094C236.04 84.4456 233.987 84.8137 231.468 84.8137C227.361 84.8137 223.757 83.9806 220.657 82.3144C217.596 80.6482 215.213 78.2458 213.508 75.1071C211.803 71.9684 210.95 68.1904 210.95 63.773C210.95 59.4331 211.822 55.6357 213.566 52.3807C215.348 49.1258 217.77 46.5878 220.831 44.7665C223.931 42.9453 227.496 42.0347 231.526 42.0347ZM258.093 84.6394V79.6989H252.978V61.8549H258.093V56.8563H275.763V61.8549H280.936V76.7345H286.109V84.6394H278.669V79.6989H275.763V84.6394H258.093ZM260.36 76.7345H273.496V64.7611H260.36V76.7345ZM291.462 84.6394V46.9171H298.844V84.6394H291.462ZM305.937 84.6394V46.9171H313.318V84.6394H305.937ZM332.047 84.6394V56.8563H349.716V61.8549H352.564V56.8563H365.177V61.8549H370.234V84.6394H362.91V64.7611H354.831V84.6394H347.45V64.7611H339.429V84.6394H332.047ZM388.461 56.388C391.512 56.388 393.904 57.2893 395.637 59.092C397.37 60.8947 398.237 63.8413 398.237 67.932H381.129L381.025 66.944H391.685C391.72 65.2453 391.616 63.6853 391.373 62.264C391.13 60.808 390.749 59.6467 390.229 58.78C389.709 57.9133 389.016 57.48 388.149 57.48C386.936 57.48 385.896 58.2427 385.029 59.768C384.197 61.2933 383.694 63.824 383.521 67.36L383.677 67.672C383.642 68.088 383.608 68.5213 383.573 68.972C383.573 69.4227 383.573 69.8907 383.573 70.376C383.573 72.768 383.902 74.7093 384.561 76.2C385.254 77.6907 386.121 78.7827 387.161 79.476C388.201 80.1347 389.258 80.464 390.333 80.464C391.061 80.464 391.806 80.36 392.569 80.152C393.366 79.9093 394.164 79.4933 394.961 78.904C395.758 78.28 396.504 77.4133 397.197 76.304L398.133 76.616C397.717 77.9333 397.058 79.216 396.157 80.464C395.256 81.712 394.112 82.7347 392.725 83.532C391.338 84.3293 389.674 84.728 387.733 84.728C385.376 84.728 383.296 84.2253 381.493 83.22C379.69 82.2147 378.269 80.6893 377.229 78.644C376.224 76.5987 375.721 73.9987 375.721 70.844C375.721 67.62 376.258 64.9333 377.333 62.784C378.442 60.6347 379.95 59.04 381.857 58C383.798 56.9253 386 56.388 388.461 56.388Z" fill="#653392"/>
<path d="M152.592 121.396V148.056C153.884 145.369 155.615 143.509 157.784 142.476C160.006 141.391 162.486 140.848 165.224 140.848C167.446 140.848 169.228 141.133 170.572 141.701C171.915 142.218 172.974 142.941 173.749 143.871C174.627 144.853 175.247 146.118 175.609 147.668C176.022 149.218 176.229 151.311 176.229 153.946V174.793C176.229 176.963 176.591 178.435 177.314 179.21C178.089 179.985 179.381 180.373 181.189 180.373V182C180.207 181.948 178.709 181.897 176.694 181.845C174.731 181.742 172.819 181.69 170.959 181.69C168.944 181.69 166.981 181.742 165.069 181.845C163.209 181.897 161.814 181.948 160.884 182V180.373C162.434 180.373 163.519 179.985 164.139 179.21C164.759 178.435 165.069 176.963 165.069 174.793V150.691C165.069 149.399 164.94 148.288 164.682 147.358C164.423 146.377 163.933 145.628 163.209 145.111C162.538 144.543 161.556 144.258 160.264 144.258C158.869 144.258 157.578 144.646 156.39 145.421C155.253 146.144 154.323 147.177 153.6 148.521C152.928 149.864 152.592 151.414 152.592 153.171V174.793C152.592 176.963 152.902 178.435 153.522 179.21C154.142 179.985 155.227 180.373 156.777 180.373V182C155.847 181.948 154.478 181.897 152.67 181.845C150.861 181.742 149.027 181.69 147.167 181.69C145.152 181.69 143.111 181.742 141.045 181.845C139.03 181.897 137.506 181.948 136.472 182V180.373C138.281 180.373 139.547 179.985 140.27 179.21C141.045 178.435 141.432 176.963 141.432 174.793V130.696C141.432 128.371 141.071 126.666 140.347 125.581C139.676 124.445 138.384 123.876 136.472 123.876V122.249C138.126 122.404 139.727 122.481 141.277 122.481C143.396 122.481 145.411 122.404 147.322 122.249C149.234 122.042 150.99 121.758 152.592 121.396ZM196.454 183.056V174.896H188.006V145.424H196.454V137.168H225.638V145.424H234.182V174.896H225.638V183.056H196.454ZM200.198 170H221.894V150.224H200.198V170ZM261.848 140.848C266.395 140.848 269.959 142.192 272.543 144.878C275.126 147.565 276.418 151.957 276.418 158.053H250.921L250.766 156.581H266.653C266.705 154.049 266.55 151.724 266.188 149.606C265.826 147.436 265.258 145.705 264.483 144.413C263.708 143.122 262.675 142.476 261.383 142.476C259.575 142.476 258.025 143.613 256.733 145.886C255.493 148.159 254.744 151.931 254.486 157.201L254.718 157.666C254.667 158.286 254.615 158.931 254.563 159.603C254.563 160.275 254.563 160.972 254.563 161.695C254.563 165.26 255.054 168.154 256.036 170.375C257.069 172.597 258.361 174.224 259.911 175.258C261.461 176.239 263.036 176.73 264.638 176.73C265.723 176.73 266.834 176.575 267.97 176.265C269.159 175.903 270.347 175.283 271.535 174.405C272.724 173.475 273.834 172.184 274.868 170.53L276.263 170.995C275.643 172.959 274.661 174.87 273.318 176.73C271.974 178.59 270.269 180.114 268.203 181.303C266.136 182.491 263.656 183.085 260.763 183.085C257.25 183.085 254.15 182.336 251.463 180.838C248.777 179.339 246.658 177.066 245.108 174.018C243.61 170.969 242.861 167.095 242.861 162.393C242.861 157.588 243.662 153.584 245.263 150.381C246.917 147.177 249.164 144.801 252.006 143.251C254.899 141.649 258.18 140.848 261.848 140.848ZM293.349 183.056V174.896H284.901V120.752H297.093V137.168H322.533V145.424H331.077V174.896H322.533V183.056H293.349ZM297.093 170H318.789V150.224H297.093V170ZM358.744 140.848C363.29 140.848 366.855 142.192 369.438 144.878C372.022 147.565 373.313 151.957 373.313 158.053H347.816L347.661 156.581H363.548C363.6 154.049 363.445 151.724 363.083 149.606C362.722 147.436 362.154 145.705 361.379 144.413C360.604 143.122 359.57 142.476 358.279 142.476C356.47 142.476 354.92 143.613 353.629 145.886C352.389 148.159 351.64 151.931 351.381 157.201L351.614 157.666C351.562 158.286 351.51 158.931 351.459 159.603C351.459 160.275 351.459 160.972 351.459 161.695C351.459 165.26 351.95 168.154 352.931 170.375C353.965 172.597 355.256 174.224 356.806 175.258C358.356 176.239 359.932 176.73 361.534 176.73C362.618 176.73 363.729 176.575 364.866 176.265C366.054 175.903 367.243 175.283 368.431 174.405C369.619 173.475 370.73 172.184 371.763 170.53L373.158 170.995C372.538 172.959 371.557 174.87 370.213 176.73C368.87 178.59 367.165 180.114 365.098 181.303C363.032 182.491 360.552 183.085 357.659 183.085C354.145 183.085 351.045 182.336 348.359 180.838C345.672 179.339 343.554 177.066 342.004 174.018C340.506 170.969 339.757 167.095 339.757 162.393C339.757 157.588 340.557 153.584 342.159 150.381C343.812 147.177 346.06 144.801 348.901 143.251C351.795 141.649 355.075 140.848 358.744 140.848ZM378.498 171.654C380.281 169.484 382.257 168.399 384.427 168.399C386.597 168.399 387.682 169.717 387.682 172.351C387.682 174.676 386.829 176.924 385.124 179.094C383.419 181.186 381.521 182.232 379.428 182.232C377.103 182.232 375.941 180.915 375.941 178.28C375.941 175.955 376.793 173.746 378.498 171.654ZM404.073 128.294C405.623 124.806 407.599 120.699 410.001 115.972C412.404 111.167 414.458 107.253 416.162 104.231L418.604 99.6969C420.309 96.5195 423.331 94.9308 427.671 94.9308C429.763 94.9308 430.81 95.512 430.81 96.6745C430.81 96.907 430.732 97.2557 430.577 97.7207C429.957 99.3482 428.64 101.828 426.625 105.161C424.687 108.415 422.014 112.678 418.604 117.948C415.194 123.218 412.559 127.403 410.699 130.502L393.378 158.751C392.603 159.603 391.363 160.029 389.658 160.029C388.728 160.029 388.263 159.681 388.263 158.983C388.263 158.673 388.379 158.286 388.612 157.821C395.354 145.963 400.508 136.121 404.073 128.294Z" fill="#653392"/>
<path d="M18.8022 182.177C12.3574 182.177 7.59775 180.995 4.52317 178.63C1.50772 176.265 0 173.397 0 170.027C0 167.425 0.91646 165.563 2.74938 164.439C4.64142 163.257 6.50391 162.666 8.33683 162.666C9.22372 162.666 10.1697 162.991 11.1749 163.641C12.2392 164.292 12.7713 165.326 12.7713 166.745C12.7713 167.869 12.2687 168.903 11.2636 169.85C10.2584 170.736 9.07591 171.18 7.716 171.18C6.94735 171.18 6.20827 171.121 5.49876 171.002C4.78924 170.884 4.13885 170.648 3.54759 170.293V170.736C3.54759 173.338 4.8188 175.496 7.36124 177.211C9.90368 178.866 13.333 179.694 17.6492 179.694C21.4333 179.694 25.04 179.044 28.4694 177.743C31.9578 176.442 35.7715 173.959 39.9103 170.293C44.1083 166.627 49.0454 161.276 54.7215 154.24C60.4568 147.204 67.4928 137.951 75.8296 126.48C72.5186 124.293 70.863 121.691 70.863 118.676C70.863 116.015 72.016 113.827 74.3219 112.113C76.6278 110.398 79.052 109.541 81.5945 109.541C82.7179 109.541 83.3683 109.688 83.5456 109.984C83.723 110.28 83.8117 110.427 83.8117 110.427C83.8117 110.782 83.4569 111.019 82.7474 111.137C80.0276 111.551 77.9582 112.615 76.5392 114.33C75.1201 116.044 74.4106 118.055 74.4106 120.361C74.4106 121.721 75.3862 123.051 77.3374 124.352L78.579 122.667C85.0238 113.975 91.1138 106.348 96.8491 99.7847C102.643 93.2217 108.379 87.3682 114.055 82.2242C119.79 77.021 125.821 72.2614 132.148 67.9451L135.784 65.5505C132.414 63.4811 128.097 61.9142 122.835 60.85C117.573 59.7857 111.335 59.2535 104.122 59.2535C92.8285 59.2535 82.1266 60.85 72.016 64.0428C61.9645 67.2356 53.0955 71.4336 45.4091 76.6367C37.7227 81.7807 31.7213 87.4273 27.4051 93.5764C23.148 99.6665 21.1081 105.638 21.2855 111.492C21.4629 116.34 22.8819 119.71 25.5426 121.602C28.2033 123.494 30.8049 124.44 33.3473 124.44C37.6044 124.44 41.8911 123.14 46.2073 120.538C50.5235 117.937 54.6328 114.596 58.5352 110.516C62.4966 106.436 66.0442 102.12 69.1779 97.5675C72.3116 93.0147 74.8245 88.7281 76.7165 84.7075C78.6677 80.6277 79.7911 77.3758 80.0867 74.9516C80.2641 72.9413 80.678 71.9362 81.3284 71.9362C81.9197 71.9362 82.2153 72.8526 82.2153 74.6855C82.3927 79.8295 81.3875 85.417 79.1998 91.4479C77.0122 97.4197 73.7602 103.096 69.444 108.476C65.1869 113.857 59.9838 118.262 53.8346 121.691C47.6855 125.12 40.7677 126.835 33.0812 126.835C29.7702 126.835 26.5478 125.475 23.4141 122.755C20.2804 120.036 18.6544 116.458 18.5361 112.024C18.3588 106.229 19.8665 100.642 23.0593 95.2615C26.2521 89.881 30.6866 84.8849 36.3627 80.273C42.0389 75.6611 48.5428 71.6405 55.8745 68.2112C63.2653 64.7819 71.07 62.1212 79.2885 60.2291C87.5071 58.278 95.7257 57.3024 103.944 57.3024C111.335 57.3024 117.928 57.8641 123.722 58.9875C129.516 60.1109 134.542 61.7073 138.799 63.7767C142.465 61.7073 145.688 60.1996 148.466 59.2535C151.305 58.3075 153.433 57.8345 154.852 57.8345C155.976 57.8345 156.567 58.1301 156.626 58.7214C156.626 59.0762 156.478 59.3718 156.182 59.6083C155.946 59.8448 155.325 60.0222 154.32 60.1404C150.418 60.9091 146.308 62.6829 141.992 65.4618C146.781 68.2999 150.358 71.6997 152.724 75.6611C155.089 79.6226 156.271 83.9093 156.271 88.5211C156.271 94.0199 154.675 99.3413 151.482 104.485C148.289 109.629 143.973 114.241 138.533 118.321C133.094 122.401 126.944 125.653 120.086 128.077C113.286 130.442 106.25 131.624 98.9776 131.624C94.3066 131.624 89.9904 131.21 86.0289 130.383C76.3322 143.39 67.4632 153.678 59.4221 161.247C51.3809 168.756 43.9901 174.136 37.2496 177.388C30.5684 180.581 24.4192 182.177 18.8022 182.177ZM98.6229 129.318C103.353 129.318 108.438 128.343 113.877 126.392C119.317 124.381 124.432 121.425 129.221 117.523C134.069 113.62 138.001 108.772 141.017 102.978C144.091 97.124 145.628 90.3836 145.628 82.7563C145.628 76.4889 143.352 71.4632 138.799 67.6791C132.354 72.3501 125.585 78.8835 118.489 87.2795C111.394 95.6754 103.885 105.431 95.9622 116.547C94.5431 118.616 93.1537 120.627 91.7938 122.578C90.4339 124.47 89.074 126.332 87.714 128.165C91.3799 128.934 95.0162 129.318 98.6229 129.318Z" fill="#653392"/>
</svg>
