<?xml version="1.0" encoding="utf-8"?>
<!-- Generator: Adobe Illustrator 21.0.0, SVG Export Plug-In . SVG Version: 6.00 Build 0)  -->
<svg id="Layer_3" data-name="Layer 3" xmlns="http://www.w3.org/2000/svg" viewBox="0 0 588.86 105.27">
  <defs>
    <style>
      .cls-1 {
        fill: #775b69;
      }

      .cls-1, .cls-2, .cls-3 {
        stroke-width: 0px;
      }

      .cls-2 {
        fill: #d9b8aa;
      }

      .cls-3 {
        fill: #f28fbf;
      }
    </style>
  </defs>
  <path class="cls-1" d="M561.69,44.99c-3.81,1.79-7.38,4.24-11.32,5.17-12.28,2.89-18.2-.44-24.3-11.97-5.39-10.21-4.94-21.31-1.27-32.21,1-2.97,3.3-4.54,6.13-5.24,8.52-2.11,15.29.49,14.88,10.78-.08,2.07-.61,4.12-.72,6.19-.14,2.59.2,5.12,2.53,6.82,2.23,1.63,3.91,1.07,4.11-1.65.27-3.6-.06-7.23.14-10.84.12-2.22.31-4.65,1.29-6.55.86-1.66,2.66-3.27,4.42-3.94,4.57-1.72,9.5-2.11,14.16-.64,5.31,1.67,8.96,5.56,10.18,10.99,2.14,9.51,4.12,19.07,5.64,28.69.93,5.87,1.05,11.89,1.24,17.85.37,11.58-1.32,22.94-5.32,33.79-1.94,5.26-5.01,10.2-10.9,12.09-2.18.7-4.6.9-6.92.93-9.83.14-19.24-2-28.28-5.73-5.44-2.25-8.65-6.19-7.54-12.28,1.06-5.84,2.51-11.63,4.17-17.33.83-2.84,5.24-4.19,9-3.06,5.03,1.5,9.98,3.27,15,4.81,9.55,2.93,9.33.26,8.92-6.28-.3-4.71-1.8-9.36-2.95-13.99-.56-2.26-1.57-4.4-2.3-6.41Z"/>
  <path class="cls-1" d="M341.04,35.51c2.05,5.36,3.98,10.58,6.04,15.76,3.94,9.93,4.25,20.09.75,30.02-2.89,8.21-8.76,14.6-16.02,19.36-4.45,2.92-9.54,3.51-14.87,1.95-7.37-2.16-14.2-5.48-19.05-11.33-3.33-4.01-5.34-9.15-7.72-13.89-2.18-4.34-2.99-9.05-2.85-13.89.02-.9.34-2.07.96-2.64,4.06-3.71,8.17-7.37,12.42-10.86,2.15-1.76,6-.63,8,2.25,1.18,1.7,1.99,3.65,2.98,5.47.69,1.27,1.12,2.86,2.16,3.72,1.2.99,3.03,1.97,4.43,1.79,1.99-.26,3.41-1.92,3.56-4.23.45-6.85-.22-13.57-2.35-20.1-.2-.62-1.55-1.15-2.4-1.22-2.95-.22-5.98.07-8.87-.43-1.36-.24-3.27-1.66-3.56-2.87-1.6-6.74-3.43-13.52-.63-20.47,1.95-4.83,5.58-6.88,10.56-7.09,4.06-.18,8.13-.33,12.19-.61,8.56-.58,17.1-.92,25.63.53,2.6.44,4.05,1.93,5.06,3.94,2.81,5.6,2.94,11.29.09,16.96-1.83,3.64-5.41,4.57-8.85,5.68-2.31.75-4.67,1.35-7.65,2.19Z"/>
  <path class="cls-1" d="M396.56,64.54c-.4,6.41,2.42,8.75,8.05,6.86,3.16-1.06,6.25-2.37,9.32-3.67,3.67-1.54,7.04.38,7.59,4.24,1.07,7.5,1.41,15.01.52,22.55-.25,2.17-3.26,5.72-6,6.06-9.1,1.15-18.12.13-26.67-2.92-7.87-2.81-13.72-8.41-18.46-15.4-5.75-8.48-7.17-18-7.15-27.7.02-8.38,1.13-16.79,2.16-25.13.42-3.34,1.65-6.67,3.01-9.79,1.46-3.35,4.44-5.49,8.01-5.88,8.27-.9,16.58-1.57,24.89-1.92,2.5-.1,5.21.86,7.57,1.89,6.3,2.77,7.98,6.59,7.55,14.69-.39,7.28-3.85,9.36-10.74,9.76-3.08.18-6.17.15-9.26.19-2.78.03-4.82,2.96-3.68,5.48.21.47,1.1.88,1.69.89,2.45.04,4.9-.12,7.35-.12,2.07,0,4.16.01,6.22.25,3.3.38,5.82,1.81,6.74,5.34,1.16,4.51,1.11,8.64-3.12,11.67-2.57,1.84-5.33,2.97-8.63,2.69-2.33-.2-4.68-.04-7-.04Z"/>
  <path class="cls-3" d="M201.11,82.9c-.68,10.59-8.65,18.23-20.52,18.44-6.3.11-12.18-1.81-17.8-4.43-3.59-1.67-6.1-4.71-7.57-8.27-2.76-6.7-3.79-13.72-2.76-20.98.38-2.67,2.07-3.94,4.46-4.39,2.49-.47,5.02-.8,7.54-1.03,5.34-.49,7.91,2.24,9.98,9.05.75,2.48.78,5.17,1.13,7.77.28,2.07,1.43,3.33,3.52,3.48,2.02.14,4.47-1.83,4.55-3.95.19-4.7.17-9.41.04-14.12-.02-.58-1.12-1.42-1.87-1.64-4.5-1.33-9.16-2.2-13.55-3.81-5.14-1.89-8.02-6.28-10.45-10.94-4.44-8.52-6.26-17.7-6.81-27.17-.23-3.95-.3-7.94-.02-11.88.25-3.65,2.35-5.23,6.06-5.07,2.72.11,5.43.37,8.14.6,3.28.28,5.14,2.07,5.45,5.32.55,5.85.96,11.72,1.61,17.56.31,2.77.93,5.53,1.64,8.23.71,2.69,2.9,4.38,4.99,4.22,2.33-.18,4.47-2.05,4.65-4.81.55-8.16,1.06-16.34,1.18-24.52.06-4.38,1.48-6.3,5.99-6.37,1.36-.02,2.72-.19,4.08-.15,4.46.13,7.27,2.54,7.45,6.99.24,6.05.06,12.11.06,18.17.3,0-.03,35.85-1.18,53.72Z"/>
  <path class="cls-3" d="M37.66,72.49c0,6.29.05,12.07-.01,17.84-.09,7.93-1.31,9.06-9.31,8.9-7.8-.15-10.46-2.25-11.53-10.04-.76-5.54-.88-11.16-1.3-16.96-2.38-.14-4.97-.21-7.55-.45-4.62-.43-6.91-2.14-7.59-6.69-.51-3.42-.49-7.05.03-10.47.7-4.64,3.48-6.32,8.22-5.8,2.41.26,4.82.53,7.57.84,0-2.75-.15-5.17.03-7.57.55-7.49.95-15.01,1.97-22.44.49-3.59,1.6-7.41,3.53-10.43,5.55-8.68,15.94-10.88,24.49-1.45,5.96,6.58,8.75,14.69,10.51,23.22.55,2.65,1.44,5.24,1.74,7.91.46,4.15-.28,5.21-4.09,6.85-1.49.64-3.06,1.1-4.62,1.55-5.22,1.52-6.89.59-8.24-4.61-.37-1.4-.5-2.86-.91-4.25-.33-1.13-.9-2.19-1.37-3.28-.31.02-.62.03-.92.05-.31,1.14-.84,2.27-.89,3.42-.14,3.44-.03,6.88-.14,10.32-.05,1.62.7,1.93,2.12,2.01,2.61.16,5.22.47,7.81.84,2.05.29,3.43,1.68,3.52,3.61.2,4.4.24,8.83-.03,13.22-.15,2.35-1.61,3.96-4.36,3.88-2.71-.08-5.41-.02-8.68-.02Z"/>
  <path class="cls-1" d="M450.1,99.38c-6.47.04-9.99-2.93-13.54-8.65-4.2-6.77-5.45-14.35-6.81-21.88-2.06-11.38-3.87-22.82-5.37-34.29-.75-5.72-.69-11.56-.81-17.35-.14-7.17,3.53-11.27,10.75-12.04,2.61-.28,5.26-.25,7.89-.19,2.93.07,4.73,2,5.61,4.47,1.27,3.56,2.65,7.21,3.01,10.92,1,10.26,1.38,20.59,2.27,30.87.3,3.47,1.16,6.95,2.22,10.27.95,2.95,2.58,3.4,5.54,2.67,1.83-.45,3.74-.74,5.62-.75,2.84-.02,4.93.47,6.41,1.59,1.86,1.4,2.78,3.78,3.06,7.33.26,3.24,1.09,6.43,1.26,9.67.26,4.86-1.56,9.01-5.52,11.94-5.98,4.43-13.03,5.36-21.6,5.42Z"/>
  <path class="cls-1" d="M503.15,44.42c.36,5.85.56,11.71,1.15,17.53.37,3.67,2.28,3.2,4.19,3.04,3.52-.3,2.67-1.07,7.78-1.71.67-.08,5.37-.14,7.46,1.71,1.73,1.53,1.91,4.65,2.03,6.4.36,5.29.5,8.03-.68,14.49-.42,2.29-1.23,4.58-2.94,6.54-6.36,7.26-19.47,6.6-25.57,5.96-7.38-.78-9.63-9.95-10.26-12.75-2.09-9.27-2.39-10.54-4.3-19.85-1.45-7.1-2.38-14.32-3.2-21.53-1.2-10.59-2.08-21.22-3.11-31.83-.37-3.82,3.27-8.79,7.12-9.55,1.42-.28,2.87-.48,4.31-.51,6.71-.12,9.15,1.34,11.16,7.79,1.43,4.59,2.23,9.4,2.97,14.17,1.04,6.65,2.14,20.09,1.9,20.11Z"/>
  <path class="cls-3" d="M101.4,49.13c0-12.85.03-25.71-.02-38.56-.02-4.74,1.28-6.84,5.91-7.6,3.33-.55,6.78-.5,10.17-.43,3.28.07,5.02,2.34,5.2,5.27.36,5.94.35,11.91.39,17.87.06,8.42.07,16.84.02,25.25,0,1.64.93,1.68,2.14,2.1,7.18,2.5,14.73,4.68,18.59,12.1,3.37,6.49,3.58,13.47.26,19.88-1.58,3.05-4.82,5.7-7.92,7.44-9.45,5.32-19.66,6.54-30.27,4.02-2.54-.6-3.92-2.07-3.99-4.74-.18-7.14-.49-14.28-.59-21.42-.1-7.06-.02-14.11-.02-21.17.04,0,.08,0,.12,0ZM120.88,69.71c-.49-.47-.99-1.23-1.68-1.54-1.56-.69-3.32-1.78-4.83-1.57-2.28.32-3.87,2.42-3.86,4.66,0,1.93.61,4.37,1.88,5.66,2.82,2.88,6.21,5.21,9.43,7.68.46.35,1.61.54,1.89.26,3.85-3.9,8.4-7.43,9.17-13.33.31-2.36-.87-4.47-3.01-5.94-1.83-1.25-3.44-.87-4.95.36-1.36,1.11-2.58,2.4-4.03,3.76Z"/>
  <path class="cls-3" d="M88.39,68.14c0,6.7.19,13.4-.06,20.1-.21,5.7-3.17,9.23-9.79,7.83-6.31-1.32-8.81-3.83-9.21-10.22-.44-6.85-.94-13.71-1.11-20.57-.21-8.57-.27-17.14-.1-25.71.12-6.29,1.59-7.9,7.58-9.45,2-.52,4.07-.98,6.13-1.05,3.59-.14,5.05,1.05,5.38,4.64.57,6.12.99,12.26,1.21,18.4.2,5.34.04,10.69.04,16.03-.02,0-.04,0-.06,0Z"/>
  <path class="cls-2" d="M268.78,59.65c.71-1.59-1.23-3.04-2.55-1.9-1.63,1.41-3.29,2.8-5.05,4.04-.54.39-1.18.65-1.85.85-1.91.58-4.76-4.8-5-6.78-.09-.73-.3-1.55.13-2.05,10.51-12.17,26.28-10.5,25.98-4.09-.22,4.72,0,17.54-10.25,34.97-9.59,15.87-22.34,23.56-39.18,15.61-20.91-9.87-31.3-37.45-10.24-50.98-3.06-21.21,1.91-37.45,14.74-42.18,11.07-4.08,25.42,5.53,32.71,16.66,2.55,3.89,3.44,7.88,1.15,11.74-.82,1.39-2.83,1.47-3.84.21-2.89-3.57-4.76-4.83-7.99-7.54-6.29-5.29-15.39-6.82-19.96-1.28-5.5,6.67-3.77,14.37,2.52,20.23,0,0,2.76,3.46,4.31,5.79.86,1.29.39,3.05-1,3.73-1.07.52-2.14,1.03-3.26,1.4-3.99,1.35-4.72,2.66-7.98,4.96-6.36,4.5-6.09,11.71-.28,16.98,10.75,9.76,19.43,4.85,29.58-6.67,3.72-4.23,4.87-8.22,7.32-13.72Z"/>
  <path class="cls-3" d="M75.71,10.48c1.44-.94,2.9-1.87,4.33-2.84,1.8-1.22,3.61-1.68,5.47-.16,2.02,1.65,3.05,3.72,2.59,6.38-.79,4.56-4.26,7.37-6.93,10.75-2.01,2.53-3.79,2.4-5.98.52-2.4-2.06-4.97-3.95-7.23-6.16-2.73-2.67-2.96-6.05-.96-8.85,1.74-2.44,4.16-2.91,6.58-1.16,1.02.73,1.89,1.66,2.83,2.5-.23-.33-.47-.66-.7-.99Z"/>
</svg>
